<svg xmlns="http://www.w3.org/2000/svg" xmlns:xlink="http://www.w3.org/1999/xlink" width="500" zoomAndPan="magnify" viewBox="0 0 375 374.999991" height="500" preserveAspectRatio="xMidYMid meet" version="1.0"><defs><clipPath id="8eff874714"><path d="M 51.0625 315.667969 L 324 315.667969 L 324 365.578125 L 51.0625 365.578125 Z M 51.0625 315.667969 " clip-rule="nonzero"/></clipPath><clipPath id="01bea9a5c3"><path d="M 187.5 315.667969 C 112.148438 315.667969 51.0625 326.84375 51.0625 340.625 C 51.0625 354.40625 112.148438 365.578125 187.5 365.578125 C 262.851562 365.578125 323.9375 354.40625 323.9375 340.625 C 323.9375 326.84375 262.851562 315.667969 187.5 315.667969 Z M 187.5 315.667969 " clip-rule="nonzero"/></clipPath><clipPath id="9b9230166c"><path d="M 69.628906 10 L 303 10 L 303 352.578125 L 69.628906 352.578125 Z M 69.628906 10 " clip-rule="nonzero"/></clipPath></defs><g clip-path="url(#8eff874714)"><g clip-path="url(#01bea9a5c3)"><path fill="#000000" d="M 51.0625 315.667969 L 324.007812 315.667969 L 324.007812 365.578125 L 51.0625 365.578125 Z M 51.0625 315.667969 " fill-opacity="1" fill-rule="nonzero"/></g></g><g clip-path="url(#9b9230166c)"><path fill="#211d1d" d="M 97.605469 147.269531 C 97.117188 147.335938 96.679688 147.417969 96.320312 147.519531 C 95.878906 147.648438 95.445312 147.785156 95.023438 147.921875 C 94.132812 146.648438 93.484375 145.460938 93.375 144.515625 C 93.125 142.378906 96.210938 140.230469 100.800781 138.3125 C 99.824219 141.101562 98.761719 144.078125 97.605469 147.269531 Z M 299.574219 151.035156 C 301.613281 146.6875 301.921875 142.609375 300.492188 138.902344 C 299.253906 135.699219 296.765625 132.867188 293.066406 130.4375 C 293.3125 127.941406 293.273438 125.351562 292.769531 122.820312 C 290.339844 110.5625 271.773438 107.769531 255.691406 107.429688 C 251.492188 99.890625 247.570312 90.882812 242.382812 78.992188 C 239.589844 72.585938 236.425781 65.324219 232.695312 57.105469 C 219.492188 28.019531 203.59375 13.09375 184.402344 11.886719 C 182.28125 11.457031 171.261719 9.421875 158.449219 10.972656 C 139.71875 13.234375 126.328125 22.179688 119.726562 36.839844 C 114.21875 49.070312 113.625 58.203125 112.324219 78.199219 C 112.019531 82.902344 111.667969 88.230469 111.210938 94.367188 C 110.648438 101.914062 109.632812 108.566406 107.574219 116.585938 C 100.824219 118.609375 92.070312 121.675781 84.757812 125.695312 C 74.816406 131.160156 69.804688 137.148438 69.859375 143.488281 C 69.902344 148.828125 74.757812 156.382812 80.335938 162.398438 C 79.886719 163.734375 79.589844 164.988281 79.394531 166.066406 C 78.214844 172.566406 79.113281 177.726562 82.066406 181.402344 C 83.660156 183.386719 85.601562 184.617188 87.375 185.378906 C 86.527344 195.242188 87.582031 205.53125 92.398438 215.410156 C 100.316406 231.628906 117.425781 244.085938 143.265625 252.4375 C 143.398438 252.480469 143.542969 252.519531 143.675781 252.5625 C 142.390625 262.871094 139.800781 271.78125 137.390625 278.382812 C 136.699219 278.410156 135.988281 278.441406 135.253906 278.484375 C 132.859375 278.636719 124.742188 279.605469 120.910156 285.804688 C 118.359375 289.929688 118.375 295.351562 120.9375 301.933594 C 120.902344 302.0625 120.878906 302.199219 120.875 302.335938 C 118.597656 304.742188 112.527344 312.136719 112.191406 322.898438 C 110.972656 323.46875 108.957031 324.75 108.214844 327.140625 C 107.378906 329.832031 108.425781 333.015625 111.324219 336.589844 C 116.324219 342.757812 127.863281 348.613281 140.035156 351.167969 C 144.648438 352.136719 149.199219 352.613281 153.617188 352.613281 C 163.917969 352.613281 173.507812 350.019531 181.453125 344.964844 C 184.671875 342.917969 186.628906 340.109375 186.691406 337.445312 C 186.722656 335.945312 186.179688 333.765625 183.484375 331.671875 C 182.980469 327.980469 179.429688 309.835938 157.714844 305.636719 C 159.472656 302.746094 162.308594 296.871094 160.792969 290.945312 C 159.96875 287.71875 157.984375 284.96875 154.875 282.730469 C 158.796875 273.238281 160.535156 263.421875 161.308594 256.417969 C 169.496094 257.621094 178.621094 258.308594 187.828125 258.308594 C 200.371094 258.308594 213.058594 257.039062 223.714844 254.070312 C 224.449219 253.898438 225.207031 253.710938 225.980469 253.515625 C 224.582031 264.621094 221.347656 274.214844 218.359375 281.203125 C 213.769531 281.28125 208.257812 282.28125 204.523438 285.464844 C 202.011719 287.609375 200.621094 290.457031 200.363281 293.941406 C 200.246094 294.078125 200.15625 294.242188 200.089844 294.414062 C 196.886719 296.257812 187.898438 303.078125 190.597656 320.441406 C 189.800781 321.457031 188.363281 323.742188 188.777344 326.605469 C 189.214844 329.617188 191.527344 332.28125 195.644531 334.523438 C 205.691406 339.992188 224.007812 344.699219 240.1875 345.976562 C 243.171875 346.210938 246.363281 346.363281 249.648438 346.363281 C 262.671875 346.363281 277.140625 343.992188 285.78125 335.152344 C 287.402344 333.5 290.007812 329.6875 289.523438 325.910156 C 289.253906 323.84375 288.140625 322.113281 286.207031 320.753906 C 286.285156 316.726562 285.59375 299.519531 268.136719 295.195312 C 257.976562 292.675781 251.007812 297.285156 248.585938 299.273438 C 247.960938 298.828125 247.050781 298.257812 245.855469 297.710938 C 244.46875 297.082031 242.84375 296.683594 241.757812 296.46875 C 241.664062 294.109375 240.734375 289.160156 235.03125 285.46875 C 241.796875 270.546875 243.566406 256.117188 243.898438 247.015625 C 252.429688 242.898438 261.195312 236.976562 268.621094 228.460938 C 275.597656 220.457031 280.425781 211.265625 283.078125 200.972656 C 292.335938 200.074219 296.996094 193.78125 299.121094 190.902344 C 305.050781 182.875 301.511719 176.757812 299.542969 174.34375 C 305.933594 163.910156 301.277344 154.003906 299.574219 151.035156 " fill-opacity="1" fill-rule="nonzero"/></g><path fill="#ffffff" d="M 208.179688 73.832031 C 208.039062 73.472656 207.863281 73.121094 207.667969 72.789062 C 207.230469 72.121094 206.636719 71.535156 205.945312 71.144531 C 205.257812 70.753906 204.550781 70.519531 203.882812 70.382812 C 203.445312 70.304688 203.042969 70.195312 202.648438 70.121094 C 202.441406 70.085938 202.238281 70.050781 202.03125 70.046875 C 201.730469 70.039062 201.425781 70.09375 201.128906 70.21875 C 200.984375 70.28125 200.832031 70.375 200.691406 70.453125 C 200.625 70.476562 200.542969 70.601562 200.476562 70.839844 L 200.386719 71.300781 C 200.355469 71.519531 200.332031 71.800781 200.324219 72.046875 C 200.371094 72.289062 200.402344 72.5625 200.429688 72.785156 L 200.5 73.242188 C 200.542969 73.480469 200.574219 73.601562 200.613281 73.632812 L 200.828125 73.902344 C 200.972656 74.066406 201.101562 74.175781 201.230469 74.257812 C 201.484375 74.390625 201.738281 74.472656 201.875 74.707031 C 201.992188 74.953125 202.03125 75.1875 201.976562 75.402344 C 201.933594 75.601562 201.847656 75.742188 201.839844 75.832031 C 201.820312 75.898438 201.8125 75.953125 201.84375 75.992188 C 201.863281 76.050781 201.890625 76.140625 201.960938 76.203125 L 202.089844 76.316406 L 202.191406 76.484375 C 202.257812 76.597656 202.335938 76.71875 202.40625 76.84375 C 202.488281 77.144531 202.578125 77.453125 202.777344 77.816406 C 202.847656 78.007812 202.972656 78.210938 203.105469 78.425781 L 203.332031 78.757812 C 203.367188 78.863281 203.671875 79.023438 204.957031 79.445312 C 206.28125 79.652344 206.628906 79.597656 206.703125 79.488281 L 207.054688 79.175781 C 207.265625 78.960938 207.472656 78.738281 207.632812 78.496094 C 207.929688 77.996094 208.058594 77.425781 208.203125 76.859375 L 208.277344 76.3125 L 208.332031 75.90625 C 208.378906 75.59375 208.421875 75.257812 208.375 74.890625 C 208.339844 74.535156 208.304688 74.183594 208.179688 73.832031 Z M 232.578125 270.40625 L 232.347656 269.921875 C 232.316406 269.769531 232 269.574219 230.628906 269.269531 C 229.21875 269.238281 228.859375 269.308594 228.785156 269.425781 L 228.4375 269.746094 C 228.230469 269.957031 228.015625 270.167969 227.851562 270.382812 C 227.527344 270.8125 227.308594 271.257812 227.074219 271.699219 C 226.835938 272.144531 226.550781 272.566406 226.289062 272.996094 C 226.042969 273.433594 225.894531 273.898438 225.796875 274.390625 C 225.5625 275.359375 225.65625 276.484375 225.515625 277.554688 C 225.457031 278.09375 225.226562 278.554688 225.078125 279.054688 C 225.015625 279.3125 224.984375 279.585938 225.003906 279.882812 L 225.0625 280.351562 C 225.054688 280.421875 225.140625 280.539062 225.328125 280.714844 L 225.699219 281.03125 L 226.324219 281.496094 L 227.050781 281.785156 L 227.519531 281.921875 C 227.773438 281.980469 227.921875 281.976562 227.980469 281.929688 C 228.128906 281.847656 228.285156 281.761719 228.421875 281.675781 C 228.695312 281.496094 228.910156 281.285156 229.085938 281.050781 C 229.425781 280.582031 229.65625 280.0625 230.050781 279.613281 C 230.808594 278.703125 231.726562 277.820312 232.242188 276.75 C 232.515625 276.222656 232.726562 275.664062 232.800781 275.058594 C 232.878906 274.460938 232.878906 273.835938 232.929688 273.230469 C 232.957031 272.617188 233.007812 272.011719 232.875 271.371094 C 232.820312 271.054688 232.714844 270.734375 232.578125 270.40625 Z M 144.683594 276.113281 C 144.613281 276.421875 144.601562 276.75 144.625 277.097656 C 144.640625 277.273438 144.667969 277.449219 144.703125 277.636719 C 144.703125 277.71875 144.789062 277.839844 144.992188 278.015625 L 145.398438 278.324219 L 146.074219 278.761719 L 146.851562 278.972656 L 147.355469 279.054688 C 147.628906 279.078125 147.78125 279.050781 147.84375 278.984375 C 148.007812 278.863281 148.164062 278.738281 148.300781 278.613281 C 148.578125 278.347656 148.800781 278.066406 148.972656 277.761719 C 149.3125 277.152344 149.535156 276.5 149.921875 275.90625 C 150.675781 274.703125 151.574219 273.511719 152.039062 272.171875 C 152.296875 271.511719 152.457031 270.820312 152.507812 270.105469 C 152.527344 269.386719 152.511719 268.664062 152.5 267.945312 C 152.5 267.230469 152.492188 266.519531 152.320312 265.789062 C 152.25 265.425781 152.109375 265.058594 151.953125 264.695312 L 151.691406 264.152344 C 151.644531 263.976562 151.308594 263.777344 149.882812 263.523438 C 148.433594 263.597656 148.070312 263.726562 148 263.878906 L 147.652344 264.316406 C 147.449219 264.609375 147.25 264.898438 147.089844 265.1875 C 146.769531 265.765625 146.585938 266.351562 146.359375 266.933594 C 146.160156 267.519531 145.855469 268.082031 145.628906 268.652344 C 145.386719 269.226562 145.28125 269.820312 145.195312 270.429688 C 145.007812 271.636719 145.171875 272.96875 145.070312 274.257812 C 145.035156 274.910156 144.8125 275.496094 144.683594 276.113281 Z M 250.832031 181.261719 C 250.808594 181.128906 250.699219 180.996094 250.445312 180.847656 L 249.96875 180.625 C 249.742188 180.554688 249.460938 180.472656 249.203125 180.410156 C 249.195312 180.410156 249.1875 180.40625 249.179688 180.402344 L 248.371094 180.527344 L 247.867188 180.648438 C 247.605469 180.730469 247.460938 180.828125 247.417969 180.925781 C 247.296875 181.125 247.175781 181.328125 247.066406 181.527344 C 247.046875 181.570312 247.03125 181.613281 247.007812 181.65625 C 246.828125 182.015625 246.671875 182.382812 246.566406 182.75 C 246.308594 183.578125 246.140625 184.429688 245.746094 185.21875 C 244.992188 186.816406 243.953125 188.269531 243.207031 189.800781 C 242.792969 190.550781 242.46875 191.335938 242.179688 192.144531 C 242.035156 192.550781 241.925781 192.972656 241.796875 193.390625 L 241.355469 194.621094 C 241.066406 195.449219 240.671875 196.222656 240.441406 197.109375 C 240.324219 197.550781 240.199219 197.996094 240.109375 198.46875 L 239.992188 199.195312 C 239.914062 199.410156 240.078125 199.792969 241.125 200.828125 C 242.433594 201.472656 242.859375 201.476562 243.039062 201.3125 L 243.699219 200.886719 C 244.117188 200.585938 244.558594 200.292969 244.902344 199.929688 C 245.621094 199.230469 246.25 198.460938 246.8125 197.644531 C 247.402344 196.839844 248.007812 196.039062 248.539062 195.1875 C 249.089844 194.34375 249.449219 193.40625 249.769531 192.460938 C 250.410156 190.558594 250.539062 188.492188 250.722656 186.507812 C 250.722656 186.46875 250.734375 186.425781 250.738281 186.386719 C 250.832031 185.4375 251.023438 184.511719 251.101562 183.558594 C 251.113281 183.375 251.113281 183.1875 251.109375 183.003906 C 251.105469 182.683594 251.082031 182.363281 251.023438 182.039062 C 250.972656 181.78125 250.914062 181.523438 250.832031 181.261719 Z M 251.261719 168.703125 C 251.097656 165.941406 250.699219 163.164062 250 160.464844 C 249.726562 159.398438 249.40625 158.347656 249.03125 157.316406 C 248.992188 157.210938 248.957031 157.105469 248.921875 157 C 248.617188 156.195312 248.273438 155.410156 247.910156 154.632812 C 246.574219 151.777344 244.875 149.101562 243.039062 146.574219 C 242.476562 145.753906 241.871094 144.964844 241.269531 144.179688 C 240.6875 143.378906 240.042969 142.617188 239.386719 141.867188 C 238.710938 141.136719 238 140.441406 237.203125 139.816406 C 236.808594 139.507812 236.402344 139.210938 235.980469 138.929688 C 235.773438 138.78125 235.535156 138.671875 235.191406 138.675781 C 234.875 138.660156 234.449219 138.761719 233.933594 139.027344 C 233.617188 140.164062 233.742188 140.636719 234.019531 141.011719 C 234.296875 141.371094 234.550781 141.753906 234.8125 142.128906 C 235.09375 142.484375 235.34375 142.867188 235.613281 143.234375 L 236.421875 144.320312 C 236.941406 145.066406 237.519531 145.757812 238.003906 146.527344 L 238.753906 147.664062 C 238.980469 148.058594 239.1875 148.464844 239.40625 148.859375 C 241.101562 152.078125 242.238281 155.527344 243.332031 158.929688 C 243.589844 159.789062 243.804688 160.660156 244.070312 161.515625 C 244.234375 162.003906 244.371094 162.496094 244.507812 162.992188 C 244.605469 163.363281 244.703125 163.734375 244.804688 164.105469 C 245.019531 164.980469 245.324219 165.835938 245.535156 166.71875 L 245.578125 166.933594 L 246.089844 169.382812 L 246.367188 170.71875 L 246.542969 172.074219 C 246.566406 172.257812 246.601562 172.4375 246.625 172.617188 C 246.726562 173.34375 246.832031 174.070312 246.96875 174.796875 C 247.136719 175.707031 247.222656 176.628906 247.382812 177.550781 L 247.632812 178.945312 C 247.6875 179.410156 247.957031 179.875 249.175781 180.402344 C 250.398438 179.980469 250.671875 179.496094 250.734375 179.015625 L 251 177.558594 C 251.140625 176.585938 251.347656 175.605469 251.375 174.621094 C 251.414062 173.640625 251.425781 172.652344 251.410156 171.667969 L 251.390625 170.179688 Z M 83.792969 142.453125 C 83.890625 142.167969 84 141.878906 84.074219 141.578125 C 84.46875 140.410156 84.773438 138.992188 85.496094 137.6875 C 85.847656 137.035156 86.371094 136.511719 86.859375 135.953125 C 87.101562 135.667969 87.324219 135.363281 87.519531 135.007812 C 87.617188 134.832031 87.714844 134.65625 87.804688 134.460938 C 87.863281 134.375 87.863281 134.226562 87.792969 133.96875 L 87.644531 133.492188 L 87.34375 132.765625 C 87.167969 132.574219 86.960938 132.371094 86.785156 132.210938 L 86.378906 131.914062 C 86.144531 131.769531 85.972656 131.734375 85.863281 131.777344 C 85.625 131.835938 85.378906 131.894531 85.152344 131.976562 C 84.703125 132.140625 84.277344 132.355469 83.90625 132.628906 C 83.152344 133.164062 82.511719 133.828125 81.769531 134.417969 C 80.308594 135.609375 78.757812 136.984375 77.8125 138.847656 C 77.585938 139.316406 77.351562 139.785156 77.183594 140.285156 C 77.039062 140.792969 76.929688 141.316406 76.847656 141.835938 C 76.75 142.359375 76.808594 142.910156 76.789062 143.4375 L 76.796875 144.226562 L 76.890625 145.007812 C 76.964844 145.527344 76.996094 146.046875 77.121094 146.546875 C 77.265625 147.039062 77.429688 147.527344 77.636719 147.996094 C 77.808594 148.472656 78.125 148.890625 78.4375 149.292969 L 78.933594 149.878906 C 79.054688 150.082031 79.453125 150.199219 80.8125 149.890625 C 82.050781 149.1875 82.328125 148.914062 82.324219 148.71875 L 82.445312 148.117188 C 82.503906 147.730469 82.546875 147.363281 82.632812 147.011719 C 82.707031 146.660156 82.742188 146.332031 82.75 146.007812 C 82.792969 145.683594 82.867188 145.367188 82.914062 145.058594 L 82.996094 144.601562 L 83.160156 144.160156 C 83.277344 143.867188 83.351562 143.578125 83.488281 143.300781 C 83.617188 143.023438 83.726562 142.746094 83.792969 142.453125 Z M 175.960938 235.082031 C 175.652344 234.667969 175.339844 234.285156 175.023438 233.902344 C 174.394531 233.136719 173.679688 232.519531 173.03125 231.804688 C 172.703125 231.457031 172.367188 231.121094 172.054688 230.761719 C 171.742188 230.398438 171.445312 230.023438 171.121094 229.679688 C 170.796875 229.339844 170.492188 228.980469 170.148438 228.65625 L 169.105469 227.703125 C 167.710938 226.441406 166.121094 225.316406 164.714844 223.980469 C 164 223.320312 163.460938 222.53125 162.847656 221.792969 C 162.558594 221.417969 162.210938 221.070312 161.84375 220.742188 C 161.65625 220.578125 161.460938 220.417969 161.265625 220.261719 C 161.175781 220.175781 161.027344 220.121094 160.757812 220.136719 C 160.507812 220.136719 160.101562 220.230469 159.523438 220.382812 C 159.0625 220.757812 158.777344 221.070312 158.648438 221.289062 C 158.496094 221.527344 158.476562 221.691406 158.511719 221.824219 C 158.558594 222.105469 158.621094 222.378906 158.695312 222.640625 C 158.84375 223.175781 159.050781 223.667969 159.300781 224.136719 C 159.8125 225.066406 160.425781 225.921875 160.941406 226.851562 C 161.980469 228.699219 162.992188 230.652344 164.417969 232.253906 C 165.121094 233.054688 165.863281 233.835938 166.726562 234.472656 C 167.597656 235.109375 168.484375 235.710938 169.386719 236.277344 C 170.273438 236.871094 171.195312 237.417969 172.175781 237.855469 C 172.65625 238.085938 173.195312 238.234375 173.722656 238.390625 L 174.527344 238.585938 C 174.777344 238.679688 175.160156 238.574219 176.09375 237.570312 C 176.605469 236.292969 176.570312 235.910156 176.402344 235.71875 Z M 123.171875 64.796875 C 123.277344 65.507812 123.4375 66.210938 123.710938 66.894531 C 123.835938 67.242188 124.054688 67.570312 124.261719 67.894531 L 124.609375 68.375 C 124.683594 68.539062 125.035156 68.671875 126.421875 68.648438 C 127.773438 68.300781 128.089844 68.113281 128.128906 67.953125 L 128.375 67.472656 C 128.523438 67.152344 128.636719 66.84375 128.742188 66.539062 C 128.964844 65.929688 129.003906 65.34375 129.140625 64.761719 C 129.238281 64.179688 129.421875 63.609375 129.570312 63.046875 C 129.699219 62.480469 129.757812 61.921875 129.746094 61.347656 C 129.78125 60.214844 129.515625 58.992188 129.535156 57.78125 C 129.527344 57.171875 129.730469 56.621094 129.835938 56.042969 C 129.898438 55.757812 129.910156 55.453125 129.886719 55.128906 C 129.875 54.96875 129.851562 54.800781 129.824219 54.632812 C 129.824219 54.554688 129.742188 54.433594 129.554688 54.265625 L 129.183594 53.953125 L 128.5625 53.492188 C 128.328125 53.402344 128.050781 53.3125 127.832031 53.246094 L 127.347656 53.148438 C 127.085938 53.121094 126.9375 53.148438 126.867188 53.21875 C 126.695312 53.339844 126.542969 53.46875 126.398438 53.601562 C 126.113281 53.875 125.890625 54.167969 125.71875 54.484375 C 125.378906 55.121094 125.160156 55.800781 124.8125 56.4375 C 124.128906 57.714844 123.335938 59.035156 123.039062 60.46875 C 122.882812 61.175781 122.773438 61.902344 122.851562 62.632812 C 122.910156 63.363281 123.050781 64.082031 123.171875 64.796875 Z M 124.78125 50.976562 C 124.804688 51.371094 125.074219 51.796875 126.453125 52.257812 C 127.914062 51.972656 128.265625 51.652344 128.371094 51.304688 L 128.789062 50.277344 C 129.054688 49.597656 129.253906 48.917969 129.546875 48.269531 C 129.816406 47.609375 130.050781 46.957031 130.253906 46.296875 C 130.425781 45.628906 130.777344 45.023438 131.023438 44.382812 C 132.050781 41.832031 133.597656 39.605469 134.863281 37.230469 C 136.222656 34.910156 137.601562 32.464844 139.457031 30.332031 C 139.921875 29.804688 140.429688 29.316406 140.9375 28.828125 L 142.550781 27.464844 C 143.09375 27.019531 143.613281 26.535156 144.132812 26.035156 L 144.890625 25.261719 C 145.15625 24.996094 145.28125 24.570312 145.054688 23.277344 C 144.617188 22.808594 144.238281 22.539062 143.957031 22.429688 C 143.65625 22.292969 143.425781 22.304688 143.238281 22.371094 C 142.84375 22.484375 142.449219 22.605469 142.074219 22.757812 C 141.3125 23.042969 140.609375 23.421875 139.929688 23.839844 C 139.246094 24.253906 138.625 24.753906 137.972656 25.214844 C 137.355469 25.714844 136.707031 26.179688 136.070312 26.667969 C 133.507812 28.589844 130.984375 30.765625 129.101562 33.484375 L 128.386719 34.5 C 128.171875 34.851562 127.960938 35.203125 127.769531 35.566406 C 127.375 36.296875 126.984375 37.023438 126.683594 37.796875 C 126.125 39.355469 125.578125 40.90625 125.246094 42.519531 C 124.820312 44.097656 124.59375 45.714844 124.503906 47.332031 C 124.414062 48.136719 124.535156 48.960938 124.613281 49.765625 Z M 277.007812 307.839844 C 276.707031 307.367188 276.417969 306.863281 276.019531 306.476562 C 275.257812 305.660156 274.414062 304.914062 273.464844 304.304688 C 272.554688 303.621094 271.554688 303.074219 270.542969 302.523438 C 269.503906 302.054688 268.402344 301.6875 267.269531 301.53125 C 265.015625 301.121094 262.714844 301.390625 260.5625 301.78125 C 260.023438 301.878906 259.488281 301.976562 258.949219 302.042969 C 258.417969 302.152344 257.882812 302.210938 257.359375 302.359375 C 256.832031 302.496094 256.320312 302.691406 255.828125 302.957031 C 255.582031 303.082031 255.339844 303.242188 255.105469 303.398438 C 254.988281 303.464844 254.882812 303.597656 254.824219 303.867188 C 254.757812 304.101562 254.738281 304.507812 254.8125 305.074219 C 255.425781 306.070312 255.691406 306.285156 255.941406 306.304688 L 256.660156 306.375 C 257.132812 306.398438 257.59375 306.40625 258.046875 306.367188 L 259.40625 306.265625 C 259.855469 306.261719 260.3125 306.273438 260.765625 306.308594 C 262.582031 306.507812 264.277344 307.144531 265.886719 307.621094 C 267.476562 308.195312 269.160156 308.429688 270.769531 309.113281 C 271.597656 309.394531 272.339844 309.855469 273.199219 310.1875 C 273.640625 310.335938 274.050781 310.550781 274.503906 310.722656 L 275.199219 310.976562 C 275.414062 311.085938 275.777344 311.023438 276.871094 310.269531 C 277.589844 309.183594 277.582031 308.792969 277.421875 308.570312 Z M 163.417969 314.945312 L 162.71875 314.417969 C 162.242188 314.089844 161.757812 313.765625 161.253906 313.484375 C 160.210938 312.988281 159.109375 312.628906 157.992188 312.28125 C 155.722656 311.734375 153.28125 311.101562 150.785156 311.695312 C 148.304688 312.128906 145.96875 313.382812 144.042969 314.929688 C 143.550781 315.304688 143.074219 315.691406 142.621094 316.109375 C 142.148438 316.496094 141.71875 316.9375 141.3125 317.394531 C 140.925781 317.871094 140.574219 318.375 140.324219 318.953125 C 140.195312 319.230469 140.085938 319.523438 139.996094 319.835938 C 139.941406 319.976562 139.933594 320.15625 140.058594 320.410156 C 140.164062 320.644531 140.410156 320.972656 140.851562 321.339844 C 141.980469 321.632812 142.3125 321.632812 142.519531 321.484375 L 143.113281 321.074219 C 143.488281 320.792969 143.871094 320.53125 144.203125 320.234375 C 144.570312 319.96875 144.882812 319.648438 145.269531 319.414062 C 145.453125 319.289062 145.636719 319.160156 145.824219 319.042969 L 146.4375 318.765625 C 148.105469 318.0625 149.886719 317.992188 151.59375 317.863281 C 152.03125 317.847656 152.464844 317.832031 152.894531 317.789062 C 153.339844 317.804688 153.789062 317.789062 154.238281 317.75 L 154.917969 317.679688 L 155.617188 317.683594 L 157.03125 317.6875 C 157.984375 317.773438 158.945312 317.925781 159.953125 317.941406 C 160.449219 318 160.96875 318.015625 161.496094 318.023438 L 162.304688 318.007812 C 162.5625 318.035156 162.898438 317.847656 163.613281 316.730469 C 163.824219 315.445312 163.65625 315.089844 163.417969 314.945312 Z M 133.675781 175.363281 C 134.066406 175.011719 134.097656 174.40625 133.746094 174.015625 C 133.054688 173.246094 132.253906 172.582031 131.382812 172.050781 C 130.519531 171.507812 129.605469 171.058594 128.664062 170.699219 C 127.714844 170.351562 126.753906 170.0625 125.765625 169.878906 C 124.777344 169.691406 123.792969 169.582031 122.746094 169.636719 C 122.476562 169.652344 122.222656 169.808594 122.101562 170.070312 C 121.929688 170.445312 122.09375 170.890625 122.46875 171.0625 L 122.515625 171.085938 C 123.355469 171.472656 124.242188 171.828125 125.09375 172.175781 C 125.953125 172.53125 126.804688 172.871094 127.640625 173.238281 C 128.488281 173.582031 129.304688 173.96875 130.128906 174.339844 C 130.953125 174.714844 131.746094 175.128906 132.597656 175.503906 L 132.652344 175.527344 C 132.984375 175.671875 133.386719 175.621094 133.675781 175.363281 Z M 127.644531 186.273438 C 127.167969 185.472656 126.570312 184.738281 125.875 184.121094 C 125.191406 183.484375 124.425781 182.949219 123.625 182.488281 C 122.816406 182.03125 121.976562 181.640625 121.09375 181.371094 C 120.207031 181.089844 119.328125 180.902344 118.328125 180.882812 C 117.984375 180.878906 117.648438 181.0625 117.472656 181.382812 C 117.222656 181.847656 117.398438 182.425781 117.859375 182.675781 L 117.953125 182.726562 C 118.640625 183.097656 119.414062 183.449219 120.140625 183.800781 C 120.875 184.15625 121.601562 184.507812 122.316406 184.886719 C 123.039062 185.246094 123.742188 185.640625 124.445312 186.042969 C 125.160156 186.433594 125.835938 186.882812 126.589844 187.296875 L 126.644531 187.324219 C 126.867188 187.445312 127.152344 187.445312 127.386719 187.308594 C 127.742188 187.09375 127.859375 186.628906 127.644531 186.273438 Z M 122.023438 160.292969 C 121.964844 160.699219 122.242188 161.074219 122.644531 161.132812 L 122.777344 161.15625 C 123.546875 161.269531 124.433594 161.40625 125.25 161.550781 C 126.082031 161.710938 126.914062 161.871094 127.738281 162.0625 C 128.15625 162.152344 128.574219 162.238281 128.984375 162.347656 C 129.40625 162.425781 129.8125 162.558594 130.238281 162.636719 C 131.082031 162.835938 131.921875 163.042969 132.816406 163.175781 L 132.847656 163.179688 C 133.199219 163.234375 133.5625 163.085938 133.78125 162.773438 C 134.078125 162.335938 133.964844 161.738281 133.53125 161.441406 C 132.746094 160.90625 131.898438 160.480469 131.011719 160.148438 C 130.128906 159.804688 129.214844 159.554688 128.273438 159.378906 C 127.332031 159.226562 126.375 159.125 125.410156 159.164062 C 124.429688 159.207031 123.496094 159.316406 122.484375 159.71875 C 122.246094 159.808594 122.066406 160.023438 122.023438 160.292969 Z M 140.960938 201.355469 C 140.972656 201.402344 142.117188 205.042969 140.988281 208.867188 C 140.746094 209.675781 140.402344 210.488281 139.929688 211.277344 C 139.816406 211.460938 139.710938 211.648438 139.585938 211.832031 C 139.328125 212.203125 139.039062 212.554688 138.730469 212.894531 C 135.808594 216.128906 130.632812 217.9375 123.308594 218.269531 L 122.921875 218.285156 C 116.8125 218.566406 104.101562 219.144531 99.171875 212.730469 C 97.078125 210.011719 96.59375 206.152344 97.707031 201.25 C 97.851562 201.371094 98.003906 201.492188 98.148438 201.613281 C 99.074219 202.3125 100.019531 202.980469 101.007812 203.566406 C 102.753906 204.609375 104.574219 205.507812 106.464844 206.21875 C 106.507812 206.394531 106.570312 206.566406 106.671875 206.730469 C 107.214844 207.601562 107.722656 208.308594 108.320312 209.035156 C 108.910156 209.75 109.535156 210.425781 110.199219 211.074219 C 110.851562 211.726562 111.566406 212.328125 112.3125 212.882812 C 113.0625 213.433594 113.886719 213.90625 114.746094 214.277344 C 115.117188 214.441406 115.570312 214.347656 115.847656 214.023438 C 116.183594 213.625 116.136719 213.023438 115.738281 212.683594 L 115.691406 212.644531 C 115.066406 212.117188 114.449219 211.605469 113.882812 211.019531 C 113.3125 210.445312 112.761719 209.851562 112.265625 209.207031 C 111.863281 208.691406 111.492188 208.160156 111.136719 207.613281 C 112.035156 207.820312 112.9375 207.992188 113.847656 208.101562 C 114.96875 208.296875 116.105469 208.3125 117.230469 208.394531 C 118.355469 208.453125 119.484375 208.378906 120.605469 208.355469 C 121.085938 208.347656 121.488281 207.972656 121.527344 207.488281 C 121.566406 206.972656 121.179688 206.515625 120.664062 206.476562 L 120.578125 206.472656 L 118.980469 206.347656 C 118.523438 206.304688 118.0625 206.304688 117.609375 206.246094 C 117.535156 206.234375 117.460938 206.230469 117.390625 206.21875 C 116.335938 206.054688 115.28125 205.964844 114.253906 205.707031 C 112.171875 205.328125 110.160156 204.664062 108.214844 203.894531 C 106.265625 203.117188 104.429688 202.085938 102.703125 200.929688 C 102.175781 200.578125 101.671875 200.199219 101.175781 199.8125 C 100.855469 199.5625 100.535156 199.3125 100.222656 199.058594 C 99.84375 198.714844 99.445312 198.382812 99.085938 198.027344 C 98.902344 197.851562 98.726562 197.675781 98.558594 197.496094 C 98.386719 197.324219 98.203125 197.117188 98.09375 196.988281 L 98.050781 196.9375 C 98.039062 196.925781 98.027344 196.90625 98.015625 196.894531 C 97.996094 196.875 97.976562 196.863281 97.960938 196.847656 C 97.777344 196.667969 92.972656 191.925781 93.761719 186.6875 C 94.375 186.707031 94.976562 186.699219 95.597656 186.671875 C 96.714844 186.617188 97.828125 186.503906 98.933594 186.328125 C 100.039062 186.15625 101.140625 185.894531 102.21875 185.558594 C 103.296875 185.210938 104.34375 184.734375 105.316406 184.144531 C 105.679688 183.921875 105.863281 183.472656 105.726562 183.046875 C 105.566406 182.550781 105.039062 182.277344 104.535156 182.433594 L 104.484375 182.449219 C 103.53125 182.75 102.589844 183.027344 101.605469 183.203125 C 100.625 183.378906 99.636719 183.515625 98.632812 183.558594 C 97.628906 183.605469 96.621094 183.601562 95.613281 183.535156 C 94.625 183.46875 93.570312 183.378906 92.675781 183.214844 L 92.632812 183.207031 C 92.582031 183.195312 92.53125 183.191406 92.476562 183.183594 C 92.4375 183.183594 92.40625 183.1875 92.367188 183.183594 C 92.160156 183.167969 91.703125 183.113281 91.082031 182.980469 C 90.601562 182.875 90.035156 182.722656 89.417969 182.496094 C 88.890625 182.308594 88.332031 182.070312 87.769531 181.757812 C 86.703125 181.179688 85.621094 180.367188 84.714844 179.230469 C 82.429688 176.363281 81.773438 172.140625 82.761719 166.675781 C 82.84375 166.210938 82.953125 165.710938 83.085938 165.183594 C 85.464844 167.441406 87.84375 169.316406 89.953125 170.554688 C 90.324219 170.777344 90.691406 170.980469 91.042969 171.15625 C 91.199219 171.234375 91.363281 171.292969 91.527344 171.359375 C 92.050781 171.578125 92.601562 171.734375 93.171875 171.835938 C 93.6875 171.925781 94.214844 171.980469 94.75 171.980469 C 97.578125 171.980469 100.574219 170.757812 102.492188 168.59375 C 103.789062 167.125 106.382812 163.070312 102.445312 157.175781 C 101.558594 155.851562 100.398438 154.464844 99.15625 153.011719 C 98.992188 152.816406 98.824219 152.625 98.65625 152.425781 C 98.398438 152.128906 98.140625 151.824219 97.878906 151.519531 C 97.679688 151.28125 97.480469 151.046875 97.28125 150.8125 C 97.527344 150.742188 97.835938 150.6875 98.199219 150.644531 C 98.726562 150.585938 99.355469 150.550781 100.050781 150.566406 C 102.578125 150.617188 105.902344 151.25 107.808594 153.054688 C 107.816406 153.0625 107.828125 153.070312 107.835938 153.078125 C 107.851562 153.089844 107.859375 153.105469 107.875 153.113281 L 107.917969 153.152344 L 108.070312 153.273438 C 108.125 153.316406 108.1875 153.375 108.25 153.429688 C 108.371094 153.539062 108.496094 153.65625 108.617188 153.777344 C 108.863281 154.015625 109.09375 154.285156 109.328125 154.539062 C 109.566406 154.828125 109.796875 155.121094 110.019531 155.421875 C 110.21875 155.6875 110.414062 155.960938 110.59375 156.242188 C 111.359375 157.4375 112 158.734375 112.417969 160.117188 C 112.546875 160.457031 112.605469 160.816406 112.699219 161.164062 C 112.792969 161.515625 112.878906 161.867188 112.921875 162.230469 L 113.09375 163.308594 L 113.164062 164.40625 C 113.25 165.089844 113.179688 165.785156 113.183594 166.480469 C 113.183594 166.527344 113.183594 166.574219 113.183594 166.625 C 113.148438 167.367188 113.050781 168.109375 113 168.867188 L 112.992188 168.980469 C 112.960938 169.433594 113.265625 169.855469 113.722656 169.960938 C 114.230469 170.074219 114.730469 169.757812 114.847656 169.253906 C 115.027344 168.457031 115.25 167.664062 115.375 166.855469 L 115.519531 165.625 C 115.582031 165.210938 115.597656 164.800781 115.601562 164.382812 L 115.613281 163.128906 L 115.515625 161.878906 C 115.496094 161.460938 115.425781 161.046875 115.351562 160.632812 C 115.265625 160.21875 115.226562 159.792969 115.109375 159.386719 C 114.738281 157.738281 114.101562 156.144531 113.289062 154.640625 C 112.886719 153.886719 112.40625 153.171875 111.890625 152.476562 C 111.820312 152.390625 111.75 152.300781 111.679688 152.214844 C 115.515625 150.238281 125.554688 146.546875 139.234375 152.53125 C 139.761719 152.761719 140.289062 153.003906 140.820312 153.265625 C 141.339844 153.515625 141.863281 153.785156 142.394531 154.0625 C 142.671875 154.207031 142.941406 154.34375 143.21875 154.496094 C 146.488281 156.304688 153.402344 161.78125 153.929688 167.203125 C 154.164062 169.613281 153.113281 171.761719 150.722656 173.773438 C 150.210938 174.203125 149.996094 174.890625 150.175781 175.535156 C 150.226562 175.722656 155.21875 194.394531 142 199.210938 C 141.132812 199.53125 140.671875 200.480469 140.960938 201.355469 Z M 297.378906 177.074219 C 298.8125 179.046875 300.566406 183.183594 296.367188 188.867188 C 294.335938 191.617188 290.824219 196.355469 283.890625 197.445312 C 285.558594 189.308594 285.933594 180.519531 285 171.113281 C 283.882812 159.800781 280.054688 149.71875 274.992188 139.953125 C 274.351562 138.722656 273.695312 137.496094 273.019531 136.269531 C 272.3125 134.984375 271.585938 133.703125 270.84375 132.425781 C 270.320312 131.515625 269.785156 130.605469 269.242188 129.699219 C 269.558594 129.484375 269.894531 129.273438 270.265625 129.085938 C 271.769531 128.324219 273.515625 127.945312 275.488281 127.945312 C 277.925781 127.945312 280.703125 128.527344 283.816406 129.6875 C 285.878906 130.460938 287.726562 131.308594 289.359375 132.21875 C 289.90625 132.523438 290.433594 132.835938 290.933594 133.15625 C 291.476562 133.507812 291.988281 133.867188 292.472656 134.230469 C 294.84375 136.027344 296.476562 138.011719 297.292969 140.136719 C 298.195312 142.46875 298.140625 145.066406 297.160156 147.878906 C 297 147.691406 296.84375 147.503906 296.679688 147.316406 C 295.878906 146.410156 295.058594 145.519531 294.214844 144.652344 C 293.007812 143.40625 291.75 142.207031 290.445312 141.0625 C 289.984375 140.660156 289.523438 140.265625 289.050781 139.875 C 288.992188 139.824219 288.9375 139.773438 288.875 139.726562 C 288.433594 139.363281 287.773438 139.390625 287.363281 139.8125 C 286.9375 140.257812 286.945312 140.960938 287.386719 141.394531 L 287.398438 141.402344 C 287.652344 141.648438 287.890625 141.917969 288.144531 142.171875 C 288.582031 142.609375 289.015625 143.054688 289.441406 143.507812 C 290.355469 144.492188 291.253906 145.492188 292.101562 146.535156 C 292.839844 147.4375 293.554688 148.351562 294.246094 149.285156 C 294.929688 150.210938 295.617188 151.179688 296.21875 152.105469 L 296.234375 152.128906 C 296.242188 152.140625 296.25 152.152344 296.257812 152.164062 C 296.871094 153.066406 303.253906 162.992188 295.976562 173.542969 C 295.386719 174.355469 294.742188 175.191406 294.097656 175.996094 C 293.425781 176.835938 292.738281 177.664062 292.039062 178.472656 C 290.632812 180.101562 289.164062 181.664062 287.609375 183.125 L 287.597656 183.136719 C 287.183594 183.527344 287.128906 184.179688 287.488281 184.636719 C 287.867188 185.125 288.570312 185.210938 289.054688 184.828125 C 290.398438 183.777344 291.675781 182.652344 292.921875 181.503906 C 292.914062 181.539062 292.910156 181.578125 292.90625 181.617188 C 292.730469 183.050781 292.515625 184.480469 292.460938 185.941406 L 292.457031 185.949219 C 292.445312 186.34375 292.675781 186.722656 293.0625 186.875 C 293.550781 187.070312 294.109375 186.832031 294.304688 186.339844 C 294.84375 184.976562 295.226562 183.582031 295.648438 182.195312 C 296.066406 180.808594 296.464844 179.414062 296.851562 178.019531 C 296.867188 177.957031 296.882812 177.882812 296.894531 177.816406 C 296.902344 177.734375 296.902344 177.65625 296.902344 177.578125 C 297.0625 177.410156 297.222656 177.242188 297.378906 177.074219 " fill-opacity="1" fill-rule="nonzero"/><path fill="#7f3e1a" d="M 142.789062 318.757812 C 142.867188 318.941406 143.058594 319.1875 143.394531 319.472656 C 144.261719 319.699219 144.519531 319.699219 144.675781 319.582031 L 145.132812 319.269531 C 145.417969 319.054688 145.714844 318.851562 145.972656 318.625 C 146.253906 318.417969 146.492188 318.175781 146.789062 317.992188 C 146.929688 317.898438 147.070312 317.796875 147.21875 317.710938 L 147.6875 317.492188 C 148.96875 316.957031 150.339844 316.902344 151.648438 316.804688 C 151.984375 316.792969 152.316406 316.777344 152.648438 316.746094 C 152.992188 316.761719 153.335938 316.746094 153.683594 316.714844 L 154.203125 316.660156 L 154.742188 316.664062 L 155.828125 316.667969 C 156.5625 316.734375 157.296875 316.847656 158.074219 316.859375 C 158.457031 316.90625 158.851562 316.917969 159.257812 316.925781 L 159.878906 316.914062 C 160.078125 316.933594 160.332031 316.789062 160.882812 315.933594 C 161.046875 314.945312 160.917969 314.667969 160.734375 314.558594 L 160.195312 314.15625 C 159.832031 313.902344 159.460938 313.652344 159.074219 313.4375 C 158.269531 313.058594 157.421875 312.78125 156.566406 312.511719 C 154.820312 312.09375 152.945312 311.605469 151.027344 312.0625 C 149.121094 312.394531 147.332031 313.359375 145.847656 314.550781 C 145.46875 314.835938 145.101562 315.132812 144.753906 315.453125 C 144.390625 315.75 144.0625 316.089844 143.75 316.441406 C 143.453125 316.804688 143.179688 317.195312 142.992188 317.636719 C 142.890625 317.855469 142.804688 318.078125 142.738281 318.316406 C 142.695312 318.425781 142.691406 318.5625 142.789062 318.757812 Z M 131.226562 308.476562 C 131.457031 308.003906 131.253906 307.441406 130.78125 307.214844 L 130.710938 307.179688 C 130.015625 306.847656 129.328125 306.554688 128.695312 306.152344 C 128.050781 305.78125 127.441406 305.351562 126.882812 304.867188 C 126.320312 304.386719 125.792969 303.863281 125.320312 303.300781 C 125.085938 303.019531 124.859375 302.734375 124.644531 302.445312 C 124.445312 302.164062 124.21875 301.820312 124.105469 301.605469 C 124.074219 301.542969 124.03125 301.476562 123.988281 301.417969 C 123.855469 301.222656 123.683594 301.0625 123.492188 300.941406 C 121.253906 295.203125 121.167969 290.601562 123.242188 287.242188 C 126.464844 282.035156 133.957031 281.3125 135.425781 281.21875 C 135.730469 281.199219 136.035156 281.183594 136.335938 281.167969 C 134.621094 285.519531 133.128906 288.53125 132.449219 289.835938 C 131.816406 289.324219 131.21875 288.734375 130.691406 288.195312 L 130.621094 288.125 C 130.324219 287.820312 129.847656 287.75 129.464844 287.980469 C 129.023438 288.25 128.882812 288.824219 129.152344 289.269531 C 129.460938 289.78125 129.761719 290.199219 130.113281 290.621094 C 130.449219 291.042969 130.808594 291.441406 131.183594 291.832031 C 131.558594 292.222656 131.980469 292.5625 132.378906 292.929688 C 132.804688 293.265625 133.242188 293.589844 133.683594 293.90625 C 134.148438 294.195312 134.609375 294.488281 135.085938 294.753906 L 136.578125 295.460938 C 137.097656 295.644531 137.625 295.8125 138.148438 295.984375 C 138.675781 296.148438 139.226562 296.226562 139.765625 296.34375 C 140.308594 296.46875 140.859375 296.476562 141.414062 296.511719 C 141.964844 296.539062 142.511719 296.601562 143.0625 296.519531 L 144.695312 296.375 C 145.230469 296.265625 145.757812 296.128906 146.28125 296.003906 L 147.070312 295.808594 C 147.320312 295.722656 147.570312 295.621094 147.820312 295.519531 L 149.304688 294.921875 C 149.792969 294.710938 150.230469 294.40625 150.695312 294.15625 C 151.152344 293.898438 151.601562 293.625 152.046875 293.347656 C 152.320312 293.175781 152.457031 292.835938 152.355469 292.515625 C 152.238281 292.128906 151.828125 291.910156 151.441406 292.03125 L 151.34375 292.058594 C 150.816406 292.222656 150.304688 292.417969 149.796875 292.609375 C 151.289062 290.257812 152.601562 287.804688 153.75 285.3125 C 156.046875 287.09375 157.515625 289.203125 158.136719 291.613281 C 159.527344 297.019531 156.359375 302.699219 154.949219 304.875 C 154.410156 304.828125 153.910156 304.8125 153.386719 304.8125 C 152.65625 304.796875 151.933594 304.832031 151.210938 304.867188 C 150.488281 304.921875 149.769531 304.988281 149.054688 305.074219 C 148.34375 305.195312 147.625 305.28125 146.921875 305.441406 C 144.097656 306.007812 141.34375 306.9375 138.792969 308.265625 C 136.257812 309.589844 133.828125 311.171875 131.773438 313.15625 C 130.679688 314.074219 129.792969 315.191406 128.84375 316.242188 C 127.917969 317.3125 127.160156 318.515625 126.335938 319.648438 C 126.046875 320.046875 126.109375 320.605469 126.488281 320.921875 C 126.890625 321.257812 127.484375 321.207031 127.816406 320.808594 L 127.886719 320.726562 L 129.175781 319.191406 C 129.617188 318.691406 129.984375 318.128906 130.480469 317.6875 C 131.433594 316.761719 132.316406 315.769531 133.378906 314.980469 C 135.367188 313.238281 137.644531 311.882812 140.007812 310.777344 C 142.371094 309.664062 144.90625 308.929688 147.480469 308.519531 C 148.121094 308.402344 148.773438 308.359375 149.417969 308.273438 C 150.066406 308.21875 150.714844 308.179688 151.363281 308.148438 C 152.011719 308.144531 152.65625 308.128906 153.300781 308.164062 C 153.925781 308.183594 154.609375 308.25 155.132812 308.324219 L 155.234375 308.339844 C 155.246094 308.339844 155.261719 308.34375 155.273438 308.34375 C 155.621094 308.382812 155.957031 308.316406 156.246094 308.164062 C 176.988281 311.679688 180.277344 328.171875 180.75 331.820312 C 170.550781 339.945312 153.019531 340.585938 144.125 339.652344 C 124.21875 337.570312 116.128906 325.460938 114.925781 323.46875 C 115.050781 314.214844 120.015625 307.464844 122.359375 304.785156 C 122.59375 305.03125 122.828125 305.273438 123.074219 305.5 C 123.746094 306.109375 124.46875 306.664062 125.238281 307.136719 C 126.003906 307.617188 126.804688 308.035156 127.648438 308.351562 C 128.484375 308.691406 129.367188 308.894531 130.246094 309.011719 C 130.644531 309.0625 131.046875 308.859375 131.226562 308.476562 Z M 182.1875 334.160156 C 173.550781 340.855469 160.398438 342.714844 150.695312 342.714844 C 148.113281 342.714844 145.777344 342.582031 143.839844 342.378906 C 124.074219 340.308594 115.324219 329.152344 112.996094 325.5625 C 112.222656 325.984375 111.199219 326.75 110.828125 327.964844 C 110.300781 329.707031 111.207031 332.089844 113.453125 334.863281 C 118.933594 341.621094 135.808594 349.863281 153.78125 349.863281 C 162.660156 349.863281 171.808594 347.851562 179.980469 342.65625 C 181.867188 341.453125 183.902344 339.4375 183.949219 337.382812 C 183.976562 336.269531 183.378906 335.1875 182.1875 334.160156 Z M 236.738281 144.546875 C 236.960938 144.835938 237.164062 145.148438 237.378906 145.449219 C 237.605469 145.738281 237.808594 146.046875 238.023438 146.34375 L 238.679688 147.222656 C 239.101562 147.828125 239.570312 148.386719 239.960938 149.011719 L 240.5625 149.929688 C 240.75 150.246094 240.921875 150.578125 241.097656 150.898438 C 242.46875 153.503906 243.386719 156.292969 244.269531 159.046875 C 244.484375 159.742188 244.652344 160.445312 244.871094 161.140625 C 245 161.535156 245.113281 161.933594 245.222656 162.332031 C 245.304688 162.636719 245.382812 162.933594 245.460938 163.238281 C 245.640625 163.945312 245.886719 164.636719 246.054688 165.347656 L 246.089844 165.523438 L 246.503906 167.503906 L 246.726562 168.585938 L 246.871094 169.683594 C 246.890625 169.832031 246.917969 169.976562 246.941406 170.121094 C 247.019531 170.710938 247.101562 171.296875 247.214844 171.886719 C 247.351562 172.625 247.417969 173.367188 247.550781 174.117188 L 247.753906 175.242188 C 247.800781 175.621094 248.011719 175.996094 249 176.421875 C 249.992188 176.082031 250.214844 175.691406 250.261719 175.300781 L 250.476562 174.121094 C 250.59375 173.332031 250.757812 172.539062 250.78125 171.742188 C 250.8125 170.949219 250.824219 170.148438 250.808594 169.351562 L 250.792969 168.152344 L 250.691406 166.957031 C 250.554688 164.71875 250.234375 162.476562 249.667969 160.285156 C 249.445312 159.425781 249.183594 158.574219 248.882812 157.738281 C 248.851562 157.65625 248.828125 157.570312 248.792969 157.484375 C 248.546875 156.835938 248.269531 156.195312 247.976562 155.566406 C 246.894531 153.257812 245.519531 151.089844 244.035156 149.046875 C 243.582031 148.386719 243.09375 147.746094 242.605469 147.109375 C 242.132812 146.460938 241.609375 145.84375 241.082031 145.238281 C 240.53125 144.648438 239.957031 144.082031 239.3125 143.582031 C 238.992188 143.328125 238.664062 143.089844 238.320312 142.863281 C 238.15625 142.742188 237.960938 142.652344 237.6875 142.65625 C 237.429688 142.640625 237.085938 142.726562 236.667969 142.941406 C 236.414062 143.859375 236.511719 144.246094 236.738281 144.546875 Z M 249.054688 187.851562 C 249.117188 187.207031 249.246094 186.582031 249.296875 185.941406 C 249.308594 185.816406 249.304688 185.6875 249.304688 185.5625 C 249.300781 185.347656 249.289062 185.132812 249.246094 184.914062 C 249.210938 184.738281 249.171875 184.566406 249.117188 184.386719 C 249.101562 184.300781 249.023438 184.210938 248.855469 184.109375 L 248.53125 183.957031 C 248.378906 183.910156 248.191406 183.855469 248.019531 183.8125 C 248.011719 183.8125 248.003906 183.808594 248 183.808594 L 247.453125 183.890625 L 247.113281 183.972656 C 246.933594 184.03125 246.839844 184.09375 246.8125 184.160156 C 246.726562 184.296875 246.644531 184.433594 246.574219 184.566406 C 246.558594 184.597656 246.550781 184.625 246.53125 184.652344 C 246.414062 184.898438 246.304688 185.144531 246.234375 185.394531 C 246.058594 185.953125 245.949219 186.527344 245.683594 187.0625 C 245.171875 188.140625 244.46875 189.125 243.964844 190.160156 C 243.683594 190.667969 243.464844 191.195312 243.269531 191.742188 C 243.171875 192.015625 243.097656 192.300781 243.011719 192.582031 L 242.714844 193.414062 C 242.519531 193.972656 242.25 194.496094 242.09375 195.097656 C 242.015625 195.398438 241.933594 195.695312 241.871094 196.015625 L 241.792969 196.507812 C 241.738281 196.652344 241.851562 196.910156 242.558594 197.609375 C 243.441406 198.046875 243.730469 198.046875 243.855469 197.933594 L 244.296875 197.648438 C 244.582031 197.445312 244.875 197.246094 245.113281 197.003906 C 245.597656 196.53125 246.023438 196.007812 246.402344 195.457031 C 246.800781 194.914062 247.210938 194.375 247.570312 193.796875 C 247.9375 193.230469 248.183594 192.59375 248.398438 191.953125 C 248.835938 190.667969 248.921875 189.273438 249.042969 187.933594 C 249.042969 187.90625 249.050781 187.878906 249.054688 187.851562 Z M 171.070312 185.578125 C 169.460938 150.90625 187.757812 135.765625 201.8125 131.199219 C 202.371094 131.015625 202.921875 130.851562 203.464844 130.703125 C 204.03125 130.546875 204.589844 130.410156 205.132812 130.289062 C 205.75 130.15625 206.355469 130.03125 206.941406 129.9375 C 231.183594 126.058594 245.171875 136.535156 252.21875 147.765625 C 252.570312 148.328125 252.910156 148.886719 253.222656 149.449219 C 253.558594 150.042969 253.875 150.636719 254.171875 151.226562 C 256.03125 154.921875 257.179688 158.550781 257.730469 161.625 C 259.8125 173.253906 259.136719 182.460938 256.914062 189.742188 C 256.742188 190.308594 256.558594 190.863281 256.371094 191.40625 C 256.175781 191.953125 255.976562 192.492188 255.765625 193.019531 C 248.34375 211.566406 230.4375 215.886719 227.660156 216.453125 C 224.816406 217.027344 222.0625 217.445312 219.382812 217.742188 C 218.816406 217.804688 218.242188 217.878906 217.679688 217.929688 C 217.101562 217.980469 216.535156 218.007812 215.964844 218.046875 C 202.769531 218.929688 191.808594 216.242188 183.867188 210.058594 C 172.644531 201.320312 171.238281 189.109375 171.070312 185.578125 Z M 257.464844 304.886719 C 257.933594 305.648438 258.136719 305.8125 258.332031 305.832031 L 258.878906 305.882812 C 259.242188 305.902344 259.597656 305.90625 259.941406 305.878906 L 260.980469 305.800781 C 261.328125 305.796875 261.675781 305.804688 262.023438 305.832031 C 263.414062 305.984375 264.710938 306.472656 265.945312 306.839844 C 267.160156 307.277344 268.453125 307.457031 269.683594 307.976562 C 270.324219 308.199219 270.886719 308.550781 271.546875 308.800781 C 271.882812 308.917969 272.195312 309.082031 272.542969 309.214844 L 273.078125 309.40625 C 273.238281 309.492188 273.519531 309.445312 274.355469 308.867188 C 274.90625 308.035156 274.898438 307.734375 274.78125 307.566406 L 274.460938 307.003906 C 274.230469 306.644531 274.011719 306.257812 273.703125 305.964844 C 273.121094 305.335938 272.472656 304.765625 271.746094 304.292969 C 271.054688 303.773438 270.289062 303.355469 269.511719 302.9375 C 268.714844 302.578125 267.871094 302.292969 267.003906 302.171875 C 265.277344 301.859375 263.515625 302.0625 261.871094 302.367188 C 261.453125 302.441406 261.046875 302.511719 260.632812 302.566406 C 260.226562 302.648438 259.816406 302.695312 259.414062 302.808594 C 259.015625 302.914062 258.621094 303.0625 258.242188 303.265625 C 258.054688 303.359375 257.871094 303.480469 257.691406 303.605469 C 257.597656 303.65625 257.519531 303.757812 257.472656 303.964844 C 257.425781 304.140625 257.40625 304.453125 257.464844 304.886719 Z M 250.386719 301.347656 C 252.457031 299.679688 258.605469 295.652344 267.480469 297.851562 C 283.808594 301.902344 283.605469 318.351562 283.460938 321.015625 C 272.363281 338.367188 240.425781 334.269531 234.101562 333.269531 C 203.390625 328.390625 194.765625 321.546875 193.339844 320.210938 C 191.027344 305.75 197.214844 299.566406 200.417969 297.394531 C 200.421875 297.402344 200.421875 297.40625 200.421875 297.410156 C 200.632812 298.097656 200.898438 298.761719 201.21875 299.394531 C 201.859375 300.660156 202.679688 301.84375 203.695312 302.824219 C 203.925781 303.089844 204.214844 303.300781 204.476562 303.535156 C 204.742188 303.761719 205.003906 303.992188 205.300781 304.175781 L 206.167969 304.761719 L 207.082031 305.246094 C 207.386719 305.40625 207.695312 305.554688 208.015625 305.664062 L 208.972656 306.015625 C 209.613281 306.222656 210.277344 306.347656 210.921875 306.5 C 211.351562 306.597656 211.804688 306.386719 211.992188 305.972656 C 212.207031 305.5 212 304.945312 211.527344 304.730469 L 211.40625 304.675781 C 210.863281 304.429688 210.308594 304.222656 209.78125 303.972656 C 209.28125 303.671875 208.730469 303.472656 208.273438 303.121094 L 207.5625 302.652344 L 206.910156 302.113281 C 206.6875 301.949219 206.496094 301.742188 206.304688 301.542969 C 206.117188 301.339844 205.898438 301.164062 205.742188 300.933594 C 205.019531 300.097656 204.476562 299.125 204.078125 298.109375 C 203.882812 297.601562 203.722656 297.078125 203.601562 296.554688 C 203.546875 296.289062 203.488281 296.027344 203.457031 295.765625 C 203.414062 295.519531 203.394531 295.207031 203.390625 295.066406 L 203.390625 295.023438 C 203.390625 294.976562 203.390625 294.933594 203.386719 294.886719 C 203.359375 294.589844 203.25 294.320312 203.09375 294.09375 C 203.304688 291.359375 204.355469 289.207031 206.300781 287.550781 C 209.136719 285.136719 213.355469 284.21875 217.113281 284 C 215.070312 288.421875 213.292969 291.453125 212.542969 292.679688 C 211.890625 292.15625 211.269531 291.546875 210.726562 290.992188 L 210.660156 290.921875 C 210.363281 290.617188 209.882812 290.546875 209.503906 290.777344 C 209.058594 291.046875 208.914062 291.621094 209.1875 292.0625 C 209.496094 292.578125 209.796875 292.996094 210.148438 293.417969 C 210.484375 293.839844 210.847656 294.238281 211.21875 294.628906 C 211.59375 295.019531 212.011719 295.355469 212.410156 295.726562 C 212.839844 296.0625 213.277344 296.382812 213.71875 296.703125 C 214.179688 296.992188 214.644531 297.285156 215.121094 297.546875 L 216.613281 298.257812 C 217.132812 298.441406 217.660156 298.609375 218.183594 298.78125 C 218.710938 298.949219 219.261719 299.023438 219.800781 299.140625 C 220.34375 299.265625 220.894531 299.273438 221.449219 299.308594 C 222 299.335938 222.546875 299.398438 223.097656 299.316406 L 224.730469 299.167969 C 225.265625 299.058594 225.792969 298.925781 226.316406 298.800781 L 227.101562 298.605469 C 227.359375 298.515625 227.605469 298.417969 227.855469 298.316406 L 229.339844 297.71875 C 229.828125 297.507812 230.269531 297.203125 230.730469 296.953125 C 231.1875 296.691406 231.636719 296.421875 232.082031 296.148438 C 232.355469 295.972656 232.492188 295.632812 232.390625 295.308594 C 232.273438 294.925781 231.863281 294.707031 231.476562 294.824219 L 231.378906 294.855469 C 230.820312 295.027344 230.28125 295.234375 229.742188 295.433594 C 231.269531 292.949219 232.636719 290.449219 233.859375 287.953125 C 238.308594 290.957031 238.992188 294.710938 239.042969 296.453125 C 238.820312 296.726562 238.675781 297.070312 238.660156 297.449219 C 238.652344 297.5625 238.621094 297.832031 238.578125 298.039062 C 238.539062 298.261719 238.488281 298.488281 238.429688 298.710938 C 238.308594 299.160156 238.15625 299.601562 237.984375 300.035156 C 237.628906 300.90625 237.144531 301.714844 236.527344 302.425781 C 235.917969 303.132812 235.207031 303.777344 234.363281 304.257812 C 233.972656 304.546875 233.511719 304.71875 233.074219 304.957031 C 232.625 305.167969 232.144531 305.320312 231.679688 305.523438 L 231.535156 305.585938 C 231.144531 305.753906 230.90625 306.175781 230.988281 306.609375 C 231.078125 307.121094 231.566406 307.460938 232.078125 307.367188 C 232.648438 307.265625 233.242188 307.195312 233.8125 307.027344 C 234.382812 306.847656 234.960938 306.6875 235.503906 306.410156 C 236.621094 305.929688 237.636719 305.195312 238.542969 304.355469 C 239.449219 303.503906 240.210938 302.496094 240.800781 301.40625 C 240.949219 301.132812 241.082031 300.851562 241.21875 300.574219 C 241.335938 300.285156 241.464844 300 241.566406 299.703125 C 241.617188 299.558594 241.660156 299.40625 241.703125 299.257812 C 242.605469 299.457031 243.75 299.761719 244.714844 300.203125 C 245.359375 300.496094 245.890625 300.792969 246.328125 301.0625 C 246.03125 301.410156 245.75 301.765625 245.488281 302.128906 C 244.890625 302.945312 244.355469 303.800781 243.878906 304.683594 C 243.394531 305.566406 242.972656 306.484375 242.636719 307.433594 C 242.289062 308.378906 242.074219 309.378906 241.941406 310.371094 C 241.890625 310.78125 242.109375 311.195312 242.511719 311.363281 C 242.988281 311.570312 243.546875 311.347656 243.75 310.867188 L 243.777344 310.804688 C 244.128906 309.980469 244.449219 309.167969 244.875 308.394531 C 245.28125 307.617188 245.734375 306.859375 246.25 306.148438 C 246.761719 305.433594 247.316406 304.75 247.914062 304.109375 C 248.214844 303.792969 248.523438 303.480469 248.832031 303.179688 C 249.132812 302.890625 249.484375 302.570312 249.75 302.363281 L 249.765625 302.351562 C 249.808594 302.316406 249.855469 302.28125 249.898438 302.238281 C 250.15625 301.988281 250.320312 301.675781 250.386719 301.347656 Z M 283.824219 333.234375 C 265.496094 351.980469 214.492188 341.660156 196.957031 332.117188 C 193.648438 330.316406 191.808594 328.339844 191.492188 326.238281 C 191.289062 324.886719 191.773438 323.6875 192.246094 322.882812 C 195.449219 325.421875 205.671875 331.523438 233.671875 335.972656 C 236.035156 336.347656 241.8125 337.128906 248.820312 337.128906 C 261.121094 337.128906 277.199219 334.710938 285.164062 323.410156 C 286.121094 324.226562 286.660156 325.167969 286.800781 326.261719 C 287.167969 329.109375 284.777344 332.261719 283.824219 333.234375 " fill-opacity="1" fill-rule="nonzero"/><path fill="#80cc42" d="M 81.882812 145.1875 C 81.933594 144.941406 81.953125 144.710938 81.960938 144.484375 C 81.992188 144.253906 82.042969 144.035156 82.078125 143.820312 L 82.132812 143.5 L 82.25 143.1875 C 82.332031 142.984375 82.382812 142.785156 82.480469 142.589844 C 82.570312 142.394531 82.644531 142.199219 82.691406 141.996094 C 82.761719 141.792969 82.835938 141.589844 82.886719 141.378906 C 83.164062 140.5625 83.378906 139.570312 83.882812 138.65625 C 84.128906 138.199219 84.496094 137.835938 84.839844 137.441406 C 85.007812 137.242188 85.164062 137.03125 85.300781 136.78125 C 85.371094 136.65625 85.4375 136.53125 85.5 136.394531 C 85.539062 136.335938 85.539062 136.234375 85.496094 136.050781 L 85.386719 135.71875 L 85.179688 135.210938 C 85.054688 135.078125 84.910156 134.933594 84.789062 134.820312 L 84.503906 134.613281 C 84.339844 134.511719 84.214844 134.488281 84.140625 134.519531 C 83.972656 134.558594 83.804688 134.601562 83.644531 134.65625 C 83.328125 134.773438 83.03125 134.921875 82.773438 135.113281 C 82.242188 135.488281 81.792969 135.953125 81.273438 136.367188 C 80.25 137.199219 79.164062 138.164062 78.503906 139.46875 C 78.347656 139.796875 78.183594 140.128906 78.066406 140.476562 C 77.960938 140.832031 77.886719 141.199219 77.828125 141.5625 C 77.761719 141.929688 77.796875 142.3125 77.785156 142.683594 L 77.792969 143.234375 L 77.859375 143.785156 C 77.910156 144.148438 77.933594 144.511719 78.023438 144.859375 C 78.121094 145.207031 78.238281 145.546875 78.382812 145.875 C 78.5 146.210938 78.722656 146.503906 78.941406 146.78125 L 79.289062 147.191406 C 79.375 147.335938 79.652344 147.417969 80.605469 147.203125 C 81.472656 146.710938 81.664062 146.519531 81.664062 146.382812 L 81.746094 145.960938 C 81.789062 145.6875 81.820312 145.433594 81.882812 145.1875 Z M 126.40625 66.378906 C 127.359375 66.136719 127.585938 66.003906 127.613281 65.890625 L 127.785156 65.546875 C 127.890625 65.320312 127.96875 65.101562 128.046875 64.886719 C 128.199219 64.457031 128.230469 64.042969 128.328125 63.628906 C 128.398438 63.21875 128.527344 62.816406 128.632812 62.417969 C 128.722656 62.019531 128.765625 61.625 128.753906 61.214844 C 128.777344 60.410156 128.59375 59.550781 128.605469 58.691406 C 128.601562 58.261719 128.742188 57.871094 128.820312 57.464844 C 128.863281 57.261719 128.871094 57.042969 128.855469 56.820312 C 128.84375 56.703125 128.828125 56.582031 128.808594 56.464844 C 128.8125 56.414062 128.753906 56.328125 128.621094 56.207031 L 128.359375 55.984375 L 127.917969 55.65625 C 127.75 55.597656 127.558594 55.53125 127.398438 55.484375 L 127.058594 55.414062 C 126.871094 55.394531 126.769531 55.414062 126.71875 55.464844 C 126.601562 55.550781 126.488281 55.640625 126.386719 55.734375 C 126.183594 55.929688 126.027344 56.136719 125.90625 56.363281 C 125.667969 56.8125 125.511719 57.289062 125.265625 57.742188 C 124.78125 58.644531 124.21875 59.578125 124.007812 60.59375 C 123.898438 61.09375 123.824219 61.605469 123.875 62.125 C 123.921875 62.640625 124.019531 63.152344 124.109375 63.652344 C 124.179688 64.15625 124.292969 64.65625 124.488281 65.140625 C 124.574219 65.382812 124.730469 65.617188 124.875 65.847656 L 125.121094 66.1875 C 125.171875 66.300781 125.425781 66.394531 126.40625 66.378906 Z M 126.972656 45.136719 L 127.085938 45.980469 C 127.101562 46.253906 127.289062 46.550781 128.25 46.871094 C 129.265625 46.671875 129.511719 46.449219 129.585938 46.207031 L 129.875 45.492188 C 130.058594 45.019531 130.195312 44.546875 130.402344 44.09375 C 130.589844 43.636719 130.753906 43.183594 130.894531 42.722656 C 131.011719 42.257812 131.261719 41.835938 131.429688 41.390625 C 132.144531 39.617188 133.21875 38.066406 134.101562 36.417969 C 135.046875 34.800781 136.003906 33.101562 137.296875 31.617188 C 137.621094 31.25 137.972656 30.910156 138.328125 30.570312 L 139.449219 29.625 C 139.824219 29.3125 140.1875 28.976562 140.546875 28.628906 L 141.078125 28.089844 C 141.257812 27.902344 141.347656 27.609375 141.191406 26.710938 C 140.886719 26.386719 140.621094 26.195312 140.425781 26.121094 C 140.21875 26.027344 140.058594 26.027344 139.925781 26.078125 C 139.652344 26.15625 139.378906 26.242188 139.117188 26.347656 C 138.589844 26.546875 138.097656 26.808594 137.625 27.101562 C 137.152344 27.390625 136.71875 27.734375 136.265625 28.058594 C 135.835938 28.40625 135.382812 28.730469 134.9375 29.066406 C 133.15625 30.40625 131.402344 31.917969 130.089844 33.8125 L 129.597656 34.515625 C 129.449219 34.761719 129.300781 35.007812 129.167969 35.261719 C 128.890625 35.765625 128.617188 36.273438 128.410156 36.808594 C 128.023438 37.894531 127.644531 38.972656 127.410156 40.09375 C 127.113281 41.191406 126.957031 42.316406 126.894531 43.445312 C 126.832031 44.003906 126.914062 44.574219 126.972656 45.136719 Z M 90.875 167.101562 C 88.863281 165.796875 86.574219 163.871094 84.320312 161.617188 C 83.890625 161.1875 83.464844 160.746094 83.042969 160.296875 C 82.625 159.851562 82.207031 159.402344 81.800781 158.9375 C 77.191406 153.742188 73.320312 147.621094 73.285156 143.460938 C 73.210938 134.890625 86.269531 128 97.234375 123.730469 C 100.367188 122.507812 103.523438 121.429688 106.523438 120.488281 C 107.179688 120.285156 107.832031 120.085938 108.472656 119.894531 C 109.128906 119.695312 109.769531 119.507812 110.402344 119.328125 C 117.417969 117.308594 122.90625 116.195312 123.910156 116.078125 C 123.910156 116.078125 123.914062 116.078125 123.914062 116.078125 C 124.492188 116.101562 125.070312 115.820312 125.410156 115.296875 C 125.921875 114.503906 125.691406 113.445312 124.898438 112.929688 C 124.296875 112.539062 124.132812 112.433594 119.640625 113.425781 C 117.789062 113.835938 114.925781 114.511719 111.382812 115.492188 C 113.171875 108.121094 114.097656 101.773438 114.628906 94.621094 C 115.085938 88.46875 115.4375 83.132812 115.742188 78.421875 C 117.050781 58.257812 117.597656 49.910156 122.851562 38.242188 C 129.007812 24.570312 141.09375 16.539062 158.769531 14.382812 C 162.039062 13.984375 165.207031 13.832031 168.132812 13.832031 C 168.210938 13.832031 168.285156 13.832031 168.359375 13.832031 C 148.535156 19.730469 140.539062 39.167969 143.230469 74.914062 C 143.402344 77.179688 143.59375 79.445312 143.785156 81.730469 C 145.292969 99.542969 146.839844 117.890625 140.003906 149.128906 C 124.152344 142.441406 112.664062 147.667969 109.117188 149.710938 C 106.839844 148.089844 103.882812 147.371094 101.28125 147.179688 C 102.640625 143.421875 103.859375 139.976562 104.960938 136.765625 C 110.800781 134.816406 117.867188 133.230469 123.695312 132.355469 C 124.628906 132.214844 125.273438 131.34375 125.132812 130.410156 C 125.011719 129.578125 124.304688 128.976562 123.496094 128.953125 C 123.394531 128.953125 123.292969 128.953125 123.1875 128.96875 C 120.597656 129.359375 113.386719 130.546875 106.339844 132.671875 C 105.664062 132.875 104.988281 133.085938 104.320312 133.308594 C 103.632812 133.535156 102.945312 133.773438 102.273438 134.019531 C 95.261719 136.585938 89.410156 140.171875 89.96875 144.914062 C 90.136719 146.304688 90.824219 147.761719 91.789062 149.242188 C 92.097656 149.714844 92.429688 150.191406 92.785156 150.667969 C 93.132812 151.128906 93.492188 151.59375 93.867188 152.054688 C 94.320312 152.613281 94.785156 153.167969 95.257812 153.722656 C 95.523438 154.03125 95.789062 154.34375 96.054688 154.65625 C 96.21875 154.84375 96.375 155.03125 96.539062 155.21875 C 96.980469 155.738281 97.410156 156.246094 97.816406 156.738281 C 98.488281 157.5625 99.105469 158.347656 99.59375 159.078125 C 101.492188 161.914062 101.605469 164.421875 99.921875 166.328125 C 98.507812 167.925781 96.058594 168.773438 94.042969 168.519531 C 93.515625 168.453125 93.019531 168.320312 92.582031 168.097656 C 92.523438 168.070312 92.464844 168.035156 92.410156 168.007812 C 91.921875 167.753906 91.40625 167.449219 90.875 167.101562 Z M 200.335938 111.488281 C 199.613281 110.554688 198.898438 109.722656 198.191406 108.980469 C 193.308594 103.863281 188.835938 103.035156 186.214844 103.121094 C 186.417969 103.527344 186.617188 103.9375 186.800781 104.347656 C 187.453125 105.832031 188.03125 107.328125 188.371094 108.894531 C 188.484375 109.40625 188.152344 109.914062 187.640625 110.023438 C 187.226562 110.113281 186.824219 109.925781 186.617188 109.582031 L 186.609375 109.566406 C 186.214844 108.910156 185.859375 108.242188 185.484375 107.59375 C 185.117188 106.941406 184.738281 106.300781 184.332031 105.679688 C 183.925781 105.058594 183.511719 104.453125 183.070312 103.878906 C 182.847656 103.59375 182.625 103.308594 182.402344 103.039062 C 182.1875 102.785156 181.917969 102.480469 181.75 102.332031 C 181.65625 102.246094 181.574219 102.148438 181.503906 102.046875 C 163.019531 90.785156 160.449219 104.964844 160.449219 104.964844 C 162.140625 107.792969 164.300781 110.058594 166.746094 111.875 C 166.832031 111.9375 166.914062 112 166.996094 112.0625 C 167.074219 112.121094 167.15625 112.175781 167.234375 112.230469 C 177.421875 119.445312 192.269531 119.125 199.722656 118.394531 C 200.347656 118.332031 200.914062 118.265625 201.429688 118.207031 C 202.101562 118.121094 202.671875 118.042969 203.125 117.976562 C 203.917969 117.855469 204.359375 117.769531 204.359375 117.769531 C 203.773438 116.683594 203.1875 115.679688 202.601562 114.746094 C 201.84375 113.539062 201.085938 112.460938 200.335938 111.488281 Z M 207.210938 75.90625 L 207.25 75.609375 C 207.285156 75.382812 207.316406 75.136719 207.285156 74.871094 C 207.257812 74.609375 207.230469 74.355469 207.140625 74.097656 C 207.035156 73.835938 206.910156 73.582031 206.769531 73.339844 C 206.449219 72.851562 206.015625 72.425781 205.515625 72.144531 C 205.011719 71.863281 204.496094 71.6875 204.011719 71.589844 C 203.695312 71.53125 203.402344 71.453125 203.113281 71.402344 C 202.964844 71.371094 202.816406 71.347656 202.667969 71.347656 C 202.445312 71.339844 202.222656 71.378906 202.011719 71.46875 C 201.902344 71.515625 201.792969 71.585938 201.691406 71.640625 C 201.640625 71.660156 201.582031 71.75 201.535156 71.921875 L 201.46875 72.257812 C 201.445312 72.417969 201.429688 72.621094 201.425781 72.800781 C 201.457031 72.976562 201.476562 73.175781 201.5 73.335938 L 201.550781 73.667969 C 201.582031 73.84375 201.601562 73.929688 201.632812 73.957031 L 201.789062 74.152344 C 201.890625 74.269531 201.984375 74.351562 202.078125 74.40625 C 202.269531 74.507812 202.453125 74.566406 202.550781 74.734375 C 202.636719 74.914062 202.667969 75.085938 202.628906 75.242188 C 202.59375 75.390625 202.53125 75.488281 202.527344 75.554688 C 202.511719 75.605469 202.503906 75.644531 202.53125 75.671875 C 202.542969 75.714844 202.5625 75.78125 202.617188 75.828125 L 202.707031 75.90625 L 202.78125 76.027344 C 202.832031 76.109375 202.886719 76.199219 202.9375 76.292969 C 203 76.511719 203.0625 76.734375 203.207031 77.003906 C 203.261719 77.136719 203.351562 77.285156 203.449219 77.441406 L 203.613281 77.6875 C 203.636719 77.761719 203.859375 77.875 204.792969 78.183594 C 205.757812 78.335938 206.007812 78.292969 206.066406 78.214844 L 206.320312 77.988281 C 206.476562 77.832031 206.628906 77.667969 206.738281 77.496094 C 206.957031 77.128906 207.050781 76.714844 207.15625 76.300781 Z M 209.253906 74.34375 C 209.394531 75.074219 209.367188 75.796875 209.191406 76.488281 C 208.882812 77.710938 208.109375 78.828125 206.929688 79.667969 C 204.828125 81.160156 201.082031 81.886719 196.851562 79.464844 C 196.832031 79.453125 196.816406 79.445312 196.796875 79.433594 C 196.632812 79.339844 196.453125 79.300781 196.28125 79.300781 L 192.960938 75.957031 L 196.265625 72.292969 C 196.628906 72.292969 196.984375 72.097656 197.167969 71.75 C 197.945312 70.285156 199.984375 69.28125 202.199219 69.140625 C 202.769531 69.101562 203.355469 69.121094 203.933594 69.207031 C 205.601562 69.457031 208.5 70.453125 209.253906 74.34375 Z M 145.894531 275.226562 C 145.90625 275.34375 145.921875 275.46875 145.945312 275.589844 C 145.945312 275.652344 146.003906 275.730469 146.144531 275.847656 L 146.417969 276.058594 L 146.875 276.355469 L 147.402344 276.5 L 147.746094 276.554688 C 147.929688 276.570312 148.03125 276.550781 148.078125 276.507812 C 148.1875 276.425781 148.289062 276.339844 148.386719 276.253906 C 148.574219 276.074219 148.726562 275.886719 148.84375 275.675781 C 149.074219 275.265625 149.222656 274.824219 149.484375 274.417969 C 149.996094 273.605469 150.605469 272.796875 150.917969 271.890625 C 151.09375 271.441406 151.203125 270.972656 151.238281 270.492188 C 151.25 270 151.242188 269.515625 151.234375 269.023438 C 151.230469 268.539062 151.226562 268.054688 151.109375 267.5625 C 151.0625 267.316406 150.96875 267.070312 150.859375 266.824219 L 150.683594 266.453125 C 150.65625 266.332031 150.425781 266.195312 149.457031 266.027344 C 148.476562 266.078125 148.230469 266.164062 148.179688 266.265625 L 147.949219 266.5625 C 147.808594 266.761719 147.671875 266.957031 147.566406 267.15625 C 147.347656 267.546875 147.222656 267.945312 147.070312 268.339844 C 146.933594 268.734375 146.726562 269.117188 146.574219 269.503906 C 146.410156 269.890625 146.335938 270.296875 146.28125 270.707031 C 146.15625 271.527344 146.261719 272.429688 146.199219 273.304688 C 146.171875 273.742188 146.019531 274.140625 145.933594 274.5625 C 145.886719 274.769531 145.875 274.992188 145.894531 275.226562 Z M 182.503906 254.828125 C 175.230469 254.617188 168.125 253.984375 161.632812 253.023438 C 161.921875 249.347656 161.921875 246.96875 161.921875 246.640625 C 161.914062 245.699219 161.148438 244.941406 160.207031 244.941406 C 160.203125 244.941406 160.203125 244.941406 160.199219 244.941406 C 159.535156 244.945312 158.96875 245.324219 158.6875 245.878906 C 158.566406 246.117188 158.492188 246.378906 158.496094 246.660156 C 158.496094 246.738281 158.492188 248.941406 158.207031 252.476562 C 158.164062 253.015625 158.117188 253.585938 158.058594 254.1875 C 158.007812 254.730469 157.949219 255.292969 157.882812 255.882812 C 157.140625 262.542969 155.503906 271.910156 151.886719 280.914062 C 151.71875 281.335938 151.546875 281.761719 151.367188 282.183594 C 151.1875 282.601562 151.007812 283.023438 150.816406 283.441406 C 149.402344 286.597656 147.722656 289.671875 145.738281 292.527344 C 144.222656 292.769531 139.996094 293.140625 135.808594 290.8125 C 136.722656 289.03125 138.335938 285.683594 140.085938 281.09375 C 140.253906 280.648438 140.425781 280.195312 140.597656 279.734375 C 140.757812 279.292969 140.921875 278.839844 141.085938 278.378906 C 143.394531 271.855469 145.769531 263.355469 147.023438 253.539062 C 147.097656 252.972656 147.160156 252.398438 147.226562 251.824219 C 147.289062 251.253906 147.347656 250.675781 147.40625 250.097656 C 147.707031 246.980469 147.886719 243.746094 147.917969 240.410156 C 147.917969 240.125 147.925781 239.835938 147.925781 239.546875 C 147.925781 238.601562 147.160156 237.835938 146.210938 237.835938 C 145.265625 237.835938 144.5 238.601562 144.5 239.546875 C 144.5 242.824219 144.332031 246.007812 144.046875 249.089844 C 119.285156 241.039062 102.945312 229.203125 95.480469 213.90625 C 91.78125 206.328125 90.460938 198.410156 90.558594 190.625 C 91.390625 194.285156 93.660156 197.214844 94.859375 198.554688 C 92.886719 205.402344 93.421875 210.867188 96.453125 214.816406 C 101.105469 220.867188 110.46875 221.863281 117.570312 221.863281 C 119.660156 221.863281 121.558594 221.777344 123.078125 221.707031 L 123.460938 221.691406 C 130.847656 221.359375 136.398438 219.582031 140.039062 216.402344 C 143.304688 224.546875 147.929688 232.179688 154.09375 238.558594 C 160.308594 244.996094 169.476562 251.5625 182.503906 254.828125 Z M 228.847656 271.296875 L 228.601562 271.523438 C 228.457031 271.671875 228.308594 271.816406 228.195312 271.96875 C 227.964844 272.265625 227.8125 272.578125 227.652344 272.882812 C 227.484375 273.195312 227.285156 273.488281 227.101562 273.789062 C 226.933594 274.089844 226.832031 274.417969 226.761719 274.757812 C 226.597656 275.4375 226.660156 276.222656 226.566406 276.964844 C 226.523438 277.34375 226.363281 277.664062 226.261719 278.015625 C 226.214844 278.191406 226.195312 278.382812 226.203125 278.589844 L 226.246094 278.917969 C 226.246094 278.96875 226.300781 279.046875 226.429688 279.171875 L 226.691406 279.390625 L 227.128906 279.714844 L 227.636719 279.917969 L 227.960938 280.011719 C 228.140625 280.054688 228.242188 280.050781 228.285156 280.015625 C 228.386719 279.960938 228.496094 279.902344 228.589844 279.84375 C 228.78125 279.714844 228.929688 279.566406 229.050781 279.40625 C 229.289062 279.078125 229.453125 278.714844 229.726562 278.402344 C 230.253906 277.769531 230.894531 277.152344 231.253906 276.40625 C 231.445312 276.039062 231.59375 275.648438 231.644531 275.226562 C 231.699219 274.808594 231.699219 274.375 231.734375 273.953125 C 231.753906 273.523438 231.789062 273.105469 231.695312 272.65625 C 231.65625 272.433594 231.585938 272.210938 231.492188 271.984375 L 231.328125 271.644531 C 231.304688 271.539062 231.082031 271.402344 230.128906 271.191406 C 229.144531 271.167969 228.898438 271.21875 228.847656 271.296875 Z M 229.5625 252.523438 C 232.980469 251.515625 236.613281 250.242188 240.34375 248.636719 C 239.835938 257.429688 237.953125 270.484375 231.980469 283.839844 C 231.792969 284.253906 231.605469 284.667969 231.414062 285.082031 C 231.222656 285.496094 231.027344 285.902344 230.828125 286.316406 C 229.359375 289.339844 227.679688 292.367188 225.746094 295.347656 C 224.207031 295.582031 220.046875 295.917969 215.949219 293.6875 C 217.027344 291.890625 218.898438 288.558594 220.933594 284 C 221.125 283.570312 221.320312 283.125 221.515625 282.667969 C 221.703125 282.238281 221.890625 281.796875 222.078125 281.339844 C 225.144531 273.960938 228.3125 264.03125 229.5625 252.523438 Z M 289.75 128.542969 C 288.304688 127.8125 286.726562 127.121094 285.015625 126.480469 C 278.417969 124.015625 272.910156 123.875 268.648438 126.070312 C 268.226562 126.285156 267.839844 126.519531 267.476562 126.761719 C 266.019531 124.367188 264.527344 121.964844 263.027344 119.546875 C 261.292969 116.757812 259.507812 113.878906 257.753906 110.976562 C 271.871094 111.527344 287.558594 114.167969 289.410156 123.484375 C 289.742188 125.148438 289.824219 126.851562 289.75 128.542969 " fill-opacity="1" fill-rule="nonzero"/><path fill="#f4e038" d="M 252.664062 203.980469 C 244.222656 214.890625 232.75 218.210938 228.203125 219.136719 C 225.335938 219.71875 222.542969 220.15625 219.828125 220.457031 C 219.253906 220.523438 218.6875 220.578125 218.121094 220.628906 C 217.546875 220.683594 216.976562 220.730469 216.40625 220.769531 C 214.628906 220.894531 212.882812 220.964844 211.179688 220.964844 C 199.484375 220.964844 189.632812 218.023438 182.183594 212.21875 C 173.988281 205.835938 168.808594 195.921875 168.332031 185.703125 C 166.632812 149.070312 186.382812 133.164062 201.367188 128.460938 C 201.925781 128.285156 202.476562 128.125 203.023438 127.980469 C 203.589844 127.832031 204.144531 127.695312 204.691406 127.578125 C 205.3125 127.445312 205.917969 127.328125 206.507812 127.234375 C 222.273438 124.710938 235.925781 127.894531 246 136.445312 C 248.964844 138.957031 251.597656 141.953125 253.804688 145.226562 C 254.160156 145.75 254.5 146.28125 254.832031 146.816406 C 255.171875 147.367188 255.496094 147.929688 255.808594 148.488281 C 258.050781 152.511719 259.65625 156.828125 260.429688 161.144531 C 262.464844 172.519531 262.09375 182.535156 259.367188 191.101562 C 259.191406 191.652344 259.015625 192.203125 258.820312 192.738281 C 258.625 193.277344 258.410156 193.800781 258.195312 194.328125 C 256.773438 197.8125 254.941406 201.039062 252.664062 203.980469 Z M 173.792969 235.378906 C 173.109375 236.109375 172.828125 236.183594 172.648438 236.117188 L 172.054688 235.972656 C 171.671875 235.863281 171.277344 235.753906 170.925781 235.582031 C 170.207031 235.261719 169.53125 234.863281 168.882812 234.429688 C 168.222656 234.011719 167.574219 233.570312 166.9375 233.109375 C 166.300781 232.640625 165.761719 232.070312 165.246094 231.484375 C 164.199219 230.3125 163.460938 228.882812 162.699219 227.527344 C 162.320312 226.847656 161.871094 226.21875 161.5 225.539062 C 161.316406 225.195312 161.164062 224.835938 161.054688 224.445312 C 161 224.253906 160.957031 224.050781 160.921875 223.84375 C 160.894531 223.75 160.910156 223.628906 161.019531 223.453125 C 161.113281 223.292969 161.324219 223.066406 161.664062 222.789062 C 162.085938 222.675781 162.382812 222.613281 162.5625 222.613281 C 162.761719 222.597656 162.871094 222.640625 162.933594 222.699219 C 163.078125 222.816406 163.222656 222.933594 163.359375 223.054688 C 163.628906 223.296875 163.882812 223.546875 164.097656 223.824219 C 164.542969 224.363281 164.9375 224.941406 165.460938 225.425781 C 166.492188 226.402344 167.65625 227.226562 168.679688 228.148438 L 169.441406 228.847656 C 169.691406 229.082031 169.914062 229.347656 170.152344 229.597656 C 170.390625 229.851562 170.609375 230.125 170.835938 230.390625 C 171.066406 230.65625 171.3125 230.898438 171.550781 231.15625 C 172.023438 231.675781 172.550781 232.128906 173.011719 232.6875 C 173.238281 232.96875 173.472656 233.25 173.695312 233.554688 L 174.019531 234.019531 C 174.144531 234.160156 174.171875 234.4375 173.792969 235.378906 Z M 156.632812 92.136719 C 157.570312 90.453125 159.617188 88.441406 164.019531 88.441406 C 166.734375 88.441406 170.132812 89.222656 174.117188 90.765625 L 174.15625 90.78125 C 178.976562 92.644531 184.4375 94.757812 193.535156 94.757812 C 194.292969 94.757812 195.074219 94.738281 195.863281 94.710938 C 196.265625 94.699219 196.660156 94.683594 197.0625 94.664062 C 197.222656 94.652344 197.410156 94.636719 197.585938 94.625 C 198.101562 94.589844 198.671875 94.539062 199.300781 94.480469 C 199.875 94.425781 200.480469 94.367188 201.136719 94.296875 C 204.171875 93.988281 207.953125 93.601562 211.527344 93.601562 C 214.394531 93.601562 223.117188 93.601562 225.019531 99.496094 C 226.058594 102.710938 225.527344 106.21875 223.527344 109.378906 C 220.132812 114.734375 213.054688 118.503906 203.472656 120.09375 C 202.917969 120.183594 202.351562 120.269531 201.777344 120.34375 C 201.691406 120.355469 201.605469 120.371094 201.519531 120.382812 C 201.039062 120.449219 200.558594 120.496094 200.074219 120.550781 C 197.410156 120.84375 194.726562 121 192.078125 121 C 181.074219 121 166.351562 118.40625 158.699219 106.042969 C 156.316406 102.191406 154.34375 96.242188 156.632812 92.136719 Z M 156.105469 47.449219 C 156.941406 44.542969 159.425781 42.425781 162.429688 42.054688 C 165.4375 41.6875 168.359375 43.140625 169.871094 45.761719 C 170.15625 46.253906 169.988281 46.882812 169.496094 47.164062 C 169.007812 47.449219 168.378906 47.28125 168.09375 46.789062 C 166.988281 44.882812 164.863281 43.824219 162.679688 44.097656 C 160.496094 44.363281 158.691406 45.902344 158.082031 48.019531 C 157.949219 48.46875 157.542969 48.761719 157.09375 48.761719 C 157 48.761719 156.902344 48.75 156.8125 48.722656 C 156.265625 48.5625 155.949219 47.996094 156.105469 47.449219 Z M 172.925781 67.878906 L 166.429688 70.882812 L 173.523438 71.308594 C 173.882812 76.527344 171.726562 80.980469 168.296875 81.636719 C 164.496094 82.355469 160.578125 78.128906 159.546875 72.195312 C 158.519531 66.257812 160.765625 60.859375 164.566406 60.136719 C 167.992188 59.484375 171.511719 62.859375 172.925781 67.878906 Z M 196.273438 75.898438 L 196.265625 72.292969 C 196.101562 72.292969 195.933594 72.257812 195.777344 72.179688 C 195.734375 72.15625 195.691406 72.121094 195.652344 72.09375 C 195.25 71.792969 195.109375 71.246094 195.355469 70.789062 C 195.371094 70.75 195.398438 70.714844 195.421875 70.679688 C 196.519531 68.730469 198.984375 67.398438 201.707031 67.121094 C 201.699219 67.082031 201.6875 67.039062 201.679688 66.996094 C 200.648438 61.058594 202.894531 55.660156 206.695312 54.9375 C 210.125 54.285156 213.644531 57.660156 215.058594 62.679688 L 208.558594 65.6875 L 215.652344 66.109375 C 215.980469 70.847656 214.230469 74.941406 211.339844 76.148438 C 211.085938 78.160156 209.949219 80.039062 208.121094 81.339844 C 206.695312 82.351562 204.6875 83.09375 202.335938 83.09375 C 200.769531 83.09375 199.054688 82.761719 197.257812 81.96875 C 196.765625 81.746094 196.269531 81.503906 195.765625 81.210938 C 195.539062 81.082031 195.382812 80.871094 195.308594 80.644531 C 195.277344 80.542969 195.257812 80.4375 195.257812 80.328125 C 195.253906 80.152344 195.296875 79.972656 195.390625 79.808594 C 195.582031 79.480469 195.921875 79.300781 196.28125 79.300781 Z M 197.496094 43.867188 C 198.332031 40.957031 200.816406 38.839844 203.820312 38.46875 C 206.828125 38.105469 209.746094 39.558594 211.261719 42.179688 C 211.546875 42.667969 211.378906 43.296875 210.886719 43.582031 C 210.394531 43.863281 209.765625 43.699219 209.484375 43.207031 C 208.378906 41.300781 206.253906 40.242188 204.070312 40.511719 C 201.886719 40.777344 200.082031 42.320312 199.46875 44.433594 C 199.339844 44.886719 198.929688 45.175781 198.484375 45.175781 C 198.390625 45.175781 198.296875 45.164062 198.199219 45.136719 C 197.652344 44.980469 197.339844 44.410156 197.496094 43.867188 Z M 281.589844 171.449219 C 280.269531 158.09375 274.90625 146.355469 268.214844 134.722656 C 267.730469 133.882812 267.242188 133.046875 266.746094 132.210938 C 266.460938 131.726562 266.175781 131.246094 265.886719 130.765625 C 265.859375 130.714844 265.828125 130.664062 265.800781 130.613281 C 265.488281 130.097656 265.175781 129.578125 264.863281 129.058594 C 264.386719 128.273438 263.902344 127.484375 263.417969 126.695312 C 262.332031 124.921875 261.226562 123.144531 260.113281 121.351562 C 258.300781 118.433594 256.425781 115.414062 254.589844 112.367188 C 254.292969 111.875 253.996094 111.375 253.707031 110.871094 C 253.375 110.296875 253.042969 109.71875 252.714844 109.128906 C 252.398438 108.558594 252.082031 107.976562 251.765625 107.390625 C 247.835938 100.074219 244.082031 91.464844 239.242188 80.359375 C 236.457031 73.964844 233.292969 66.714844 229.574219 58.519531 C 222.746094 43.476562 215.488281 32.691406 207.386719 25.554688 C 200.875 19.8125 193.933594 16.488281 186.433594 15.523438 C 185.847656 15.449219 185.261719 15.386719 184.667969 15.34375 C 184.085938 15.296875 183.503906 15.265625 182.914062 15.25 C 182.539062 15.238281 182.167969 15.222656 181.792969 15.222656 C 178.050781 15.222656 174.167969 15.777344 170.132812 16.875 C 158.421875 20.070312 143.25 29.535156 146.648438 74.660156 C 146.820312 76.917969 147.007812 79.167969 147.203125 81.441406 C 148.671875 98.820312 150.308594 118.234375 143.179688 150.601562 C 143.742188 150.882812 144.304688 151.1875 144.878906 151.5 C 148.101562 153.28125 156.625 159.515625 157.339844 166.871094 C 157.65625 170.128906 156.445312 173.082031 153.742188 175.664062 C 155.511719 183.210938 155.535156 196.78125 144.597656 201.839844 C 145.066406 204.273438 145.460938 209.136719 142.570312 213.519531 C 145.707031 221.863281 150.300781 229.703125 156.558594 236.179688 C 171.734375 251.890625 194.113281 257.027344 221.347656 251.085938 C 221.867188 250.972656 222.386719 250.863281 222.910156 250.742188 C 222.945312 250.730469 222.988281 250.722656 223.023438 250.714844 C 223.539062 250.59375 224.101562 250.457031 224.691406 250.308594 C 225.222656 250.171875 225.785156 250.019531 226.371094 249.859375 C 226.933594 249.707031 227.519531 249.535156 228.128906 249.359375 C 228.699219 249.1875 229.285156 249.003906 229.890625 248.8125 C 233.046875 247.804688 236.664062 246.472656 240.492188 244.71875 C 241.066406 244.453125 241.644531 244.179688 242.230469 243.898438 C 242.804688 243.621094 243.386719 243.332031 243.964844 243.035156 C 257.910156 235.914062 273.546875 223.214844 279.546875 201.046875 C 279.695312 200.492188 279.835938 199.933594 279.972656 199.367188 C 280.109375 198.808594 280.242188 198.238281 280.363281 197.667969 C 282.023438 190.027344 282.574219 181.339844 281.589844 171.449219 " fill-opacity="1" fill-rule="nonzero"/></svg>