<svg xmlns="http://www.w3.org/2000/svg" xmlns:xlink="http://www.w3.org/1999/xlink" width="500" zoomAndPan="magnify" viewBox="0 0 375 374.999991" height="500" preserveAspectRatio="xMidYMid meet" version="1.0"><defs><g/><clipPath id="43c17f2be7"><path d="M 129.949219 189.847656 L 245.082031 189.847656 L 245.082031 210.902344 L 129.949219 210.902344 Z M 129.949219 189.847656 " clip-rule="nonzero"/></clipPath><clipPath id="a6357199ba"><path d="M 187.5 189.847656 C 155.714844 189.847656 129.949219 194.5625 129.949219 200.375 C 129.949219 206.1875 155.714844 210.902344 187.5 210.902344 C 219.285156 210.902344 245.050781 206.1875 245.050781 200.375 C 245.050781 194.5625 219.285156 189.847656 187.5 189.847656 Z M 187.5 189.847656 " clip-rule="nonzero"/></clipPath><clipPath id="82a808dccc"><path d="M 137.78125 61 L 237 61 L 237 205.417969 L 137.78125 205.417969 Z M 137.78125 61 " clip-rule="nonzero"/></clipPath></defs><g clip-path="url(#43c17f2be7)"><g clip-path="url(#a6357199ba)"><path fill="#ffffff" d="M 129.949219 189.847656 L 245.082031 189.847656 L 245.082031 210.902344 L 129.949219 210.902344 Z M 129.949219 189.847656 " fill-opacity="1" fill-rule="nonzero"/></g></g><g clip-path="url(#82a808dccc)"><path fill="#211d1d" d="M 149.582031 118.8125 C 149.375 118.84375 149.191406 118.878906 149.039062 118.921875 C 148.851562 118.972656 148.671875 119.03125 148.492188 119.089844 C 148.117188 118.550781 147.84375 118.050781 147.796875 117.652344 C 147.691406 116.75 148.992188 115.84375 150.929688 115.035156 C 150.515625 116.210938 150.070312 117.46875 149.582031 118.8125 Z M 234.773438 120.402344 C 235.632812 118.570312 235.765625 116.847656 235.160156 115.285156 C 234.640625 113.933594 233.589844 112.738281 232.03125 111.714844 C 232.132812 110.660156 232.117188 109.570312 231.90625 108.5 C 230.878906 103.332031 223.046875 102.152344 216.261719 102.007812 C 214.492188 98.828125 212.839844 95.03125 210.652344 90.015625 C 209.472656 87.3125 208.136719 84.25 206.5625 80.78125 C 200.996094 68.511719 194.289062 62.21875 186.191406 61.707031 C 185.296875 61.527344 180.648438 60.667969 175.246094 61.320312 C 167.34375 62.277344 161.695312 66.050781 158.910156 72.234375 C 156.589844 77.394531 156.335938 81.242188 155.789062 89.679688 C 155.660156 91.664062 155.511719 93.910156 155.320312 96.5 C 155.082031 99.683594 154.65625 102.488281 153.785156 105.871094 C 150.9375 106.726562 147.246094 108.019531 144.160156 109.714844 C 139.96875 112.019531 137.855469 114.542969 137.875 117.21875 C 137.894531 119.472656 139.941406 122.660156 142.296875 125.195312 C 142.105469 125.757812 141.980469 126.289062 141.898438 126.742188 C 141.402344 129.484375 141.78125 131.660156 143.027344 133.210938 C 143.699219 134.050781 144.519531 134.566406 145.265625 134.890625 C 144.910156 139.050781 145.351562 143.390625 147.382812 147.554688 C 150.722656 154.398438 157.941406 159.652344 168.839844 163.175781 C 168.898438 163.195312 168.957031 163.210938 169.015625 163.226562 C 168.472656 167.578125 167.378906 171.335938 166.363281 174.121094 C 166.070312 174.128906 165.773438 174.144531 165.460938 174.164062 C 164.449219 174.226562 161.027344 174.636719 159.410156 177.25 C 158.335938 178.992188 158.339844 181.277344 159.421875 184.054688 C 159.40625 184.109375 159.398438 184.167969 159.394531 184.222656 C 158.433594 185.238281 155.875 188.355469 155.734375 192.898438 C 155.21875 193.136719 154.367188 193.679688 154.054688 194.6875 C 153.703125 195.824219 154.144531 197.164062 155.367188 198.671875 C 157.476562 201.273438 162.34375 203.746094 167.480469 204.824219 C 169.425781 205.230469 171.34375 205.433594 173.207031 205.433594 C 177.554688 205.433594 181.597656 204.335938 184.949219 202.207031 C 186.308594 201.34375 187.132812 200.15625 187.15625 199.03125 C 187.171875 198.402344 186.945312 197.480469 185.804688 196.597656 C 185.59375 195.039062 184.09375 187.386719 174.9375 185.617188 C 175.679688 184.398438 176.875 181.917969 176.234375 179.417969 C 175.886719 178.058594 175.050781 176.898438 173.738281 175.953125 C 175.390625 171.949219 176.125 167.808594 176.453125 164.855469 C 179.90625 165.363281 183.753906 165.652344 187.640625 165.652344 C 192.929688 165.652344 198.28125 165.117188 202.777344 163.863281 C 203.085938 163.792969 203.40625 163.714844 203.730469 163.628906 C 203.140625 168.316406 201.777344 172.363281 200.515625 175.308594 C 198.582031 175.34375 196.257812 175.765625 194.679688 177.109375 C 193.621094 178.011719 193.035156 179.214844 192.925781 180.683594 C 192.875 180.742188 192.839844 180.808594 192.808594 180.882812 C 191.460938 181.660156 187.667969 184.535156 188.804688 191.859375 C 188.472656 192.289062 187.863281 193.253906 188.039062 194.460938 C 188.222656 195.730469 189.199219 196.855469 190.9375 197.800781 C 195.171875 200.105469 202.898438 202.09375 209.722656 202.632812 C 210.984375 202.730469 212.328125 202.796875 213.714844 202.796875 C 219.210938 202.796875 225.3125 201.796875 228.957031 198.066406 C 229.640625 197.367188 230.738281 195.761719 230.535156 194.167969 C 230.421875 193.296875 229.953125 192.566406 229.136719 191.992188 C 229.167969 190.292969 228.878906 183.035156 221.515625 181.210938 C 217.230469 180.148438 214.289062 182.09375 213.265625 182.933594 C 213.003906 182.742188 212.617188 182.503906 212.117188 182.273438 C 211.53125 182.007812 210.84375 181.839844 210.386719 181.75 C 210.347656 180.753906 209.953125 178.664062 207.550781 177.109375 C 210.402344 170.816406 211.148438 164.726562 211.289062 160.886719 C 214.886719 159.152344 218.585938 156.65625 221.71875 153.0625 C 224.660156 149.6875 226.695312 145.808594 227.816406 141.464844 C 231.722656 141.085938 233.6875 138.433594 234.582031 137.21875 C 237.085938 133.832031 235.59375 131.253906 234.761719 130.234375 C 237.457031 125.835938 235.492188 121.65625 234.773438 120.402344 " fill-opacity="1" fill-rule="nonzero"/></g><path fill="#ffffff" d="M 196.222656 87.835938 C 196.164062 87.683594 196.089844 87.535156 196.007812 87.398438 C 195.824219 87.113281 195.574219 86.867188 195.28125 86.703125 C 194.988281 86.539062 194.691406 86.441406 194.410156 86.382812 C 194.226562 86.347656 194.054688 86.300781 193.890625 86.273438 C 193.800781 86.257812 193.714844 86.242188 193.628906 86.242188 C 193.503906 86.238281 193.375 86.257812 193.25 86.3125 C 193.1875 86.339844 193.125 86.378906 193.0625 86.410156 C 193.035156 86.421875 193.003906 86.472656 192.972656 86.574219 L 192.933594 86.769531 C 192.921875 86.863281 192.914062 86.980469 192.910156 87.082031 C 192.929688 87.1875 192.941406 87.300781 192.953125 87.394531 L 192.984375 87.585938 C 193.003906 87.6875 193.015625 87.738281 193.03125 87.753906 L 193.121094 87.867188 C 193.183594 87.9375 193.238281 87.984375 193.292969 88.015625 C 193.398438 88.074219 193.503906 88.105469 193.5625 88.207031 C 193.613281 88.308594 193.628906 88.410156 193.605469 88.5 C 193.589844 88.585938 193.550781 88.644531 193.550781 88.679688 C 193.539062 88.710938 193.539062 88.730469 193.550781 88.75 C 193.558594 88.773438 193.570312 88.8125 193.601562 88.839844 L 193.652344 88.882812 L 193.695312 88.957031 C 193.726562 89.003906 193.757812 89.054688 193.789062 89.109375 C 193.824219 89.234375 193.859375 89.363281 193.945312 89.519531 C 193.972656 89.597656 194.027344 89.683594 194.082031 89.773438 L 194.179688 89.914062 C 194.191406 89.960938 194.320312 90.027344 194.863281 90.207031 C 195.421875 90.292969 195.566406 90.269531 195.601562 90.222656 L 195.746094 90.089844 C 195.839844 90 195.925781 89.90625 195.992188 89.804688 C 196.117188 89.59375 196.171875 89.351562 196.234375 89.113281 L 196.265625 88.882812 L 196.289062 88.710938 C 196.308594 88.578125 196.324219 88.4375 196.304688 88.285156 C 196.289062 88.132812 196.277344 87.984375 196.222656 87.835938 Z M 206.515625 170.753906 L 206.417969 170.550781 C 206.402344 170.488281 206.269531 170.402344 205.691406 170.277344 C 205.097656 170.261719 204.945312 170.292969 204.914062 170.339844 L 204.769531 170.476562 C 204.679688 170.566406 204.589844 170.65625 204.523438 170.746094 C 204.382812 170.925781 204.292969 171.113281 204.191406 171.300781 C 204.09375 171.488281 203.972656 171.667969 203.863281 171.847656 C 203.757812 172.03125 203.695312 172.226562 203.65625 172.4375 C 203.554688 172.84375 203.59375 173.320312 203.535156 173.769531 C 203.511719 173.996094 203.414062 174.191406 203.351562 174.402344 C 203.324219 174.511719 203.3125 174.628906 203.320312 174.753906 L 203.34375 174.949219 C 203.339844 174.980469 203.375 175.027344 203.457031 175.101562 L 203.613281 175.238281 L 203.875 175.433594 L 204.183594 175.554688 L 204.382812 175.613281 C 204.488281 175.636719 204.550781 175.636719 204.574219 175.617188 C 204.636719 175.582031 204.703125 175.546875 204.761719 175.507812 C 204.875 175.433594 204.96875 175.34375 205.039062 175.246094 C 205.183594 175.046875 205.28125 174.828125 205.449219 174.636719 C 205.769531 174.253906 206.15625 173.882812 206.375 173.429688 C 206.488281 173.207031 206.578125 172.972656 206.609375 172.71875 C 206.640625 172.464844 206.640625 172.203125 206.664062 171.945312 C 206.675781 171.6875 206.695312 171.433594 206.640625 171.160156 C 206.617188 171.027344 206.574219 170.894531 206.515625 170.753906 Z M 169.4375 173.164062 C 169.410156 173.292969 169.402344 173.429688 169.414062 173.578125 C 169.421875 173.652344 169.433594 173.726562 169.445312 173.804688 C 169.445312 173.839844 169.484375 173.890625 169.570312 173.964844 L 169.742188 174.09375 L 170.027344 174.28125 L 170.355469 174.367188 L 170.566406 174.402344 C 170.679688 174.414062 170.746094 174.402344 170.773438 174.375 C 170.839844 174.324219 170.90625 174.269531 170.964844 174.214844 C 171.082031 174.105469 171.175781 173.988281 171.246094 173.859375 C 171.390625 173.601562 171.484375 173.328125 171.648438 173.074219 C 171.96875 172.566406 172.347656 172.066406 172.542969 171.5 C 172.648438 171.222656 172.71875 170.929688 172.738281 170.628906 C 172.75 170.324219 172.742188 170.019531 172.738281 169.71875 C 172.734375 169.417969 172.734375 169.113281 172.660156 168.808594 C 172.628906 168.65625 172.570312 168.5 172.503906 168.347656 L 172.394531 168.117188 C 172.375 168.042969 172.234375 167.957031 171.632812 167.851562 C 171.019531 167.882812 170.867188 167.9375 170.839844 168 L 170.691406 168.1875 C 170.605469 168.3125 170.523438 168.429688 170.453125 168.554688 C 170.320312 168.796875 170.242188 169.046875 170.144531 169.292969 C 170.0625 169.539062 169.933594 169.773438 169.839844 170.015625 C 169.734375 170.257812 169.691406 170.507812 169.65625 170.765625 C 169.578125 171.273438 169.644531 171.835938 169.601562 172.378906 C 169.585938 172.65625 169.492188 172.902344 169.4375 173.164062 Z M 214.214844 133.152344 C 214.207031 133.097656 214.15625 133.039062 214.050781 132.976562 L 213.851562 132.882812 C 213.753906 132.855469 213.636719 132.820312 213.527344 132.792969 C 213.523438 132.792969 213.519531 132.792969 213.519531 132.789062 L 213.175781 132.84375 L 212.964844 132.894531 C 212.851562 132.929688 212.792969 132.96875 212.773438 133.011719 C 212.722656 133.09375 212.671875 133.179688 212.625 133.265625 C 212.617188 133.285156 212.609375 133.300781 212.601562 133.320312 C 212.523438 133.472656 212.460938 133.625 212.414062 133.78125 C 212.304688 134.128906 212.234375 134.488281 212.070312 134.824219 C 211.75 135.496094 211.3125 136.109375 210.996094 136.753906 C 210.824219 137.070312 210.6875 137.402344 210.566406 137.742188 C 210.503906 137.914062 210.457031 138.09375 210.402344 138.269531 L 210.214844 138.789062 C 210.09375 139.136719 209.929688 139.464844 209.832031 139.835938 C 209.78125 140.023438 209.730469 140.210938 209.691406 140.410156 L 209.640625 140.71875 C 209.609375 140.808594 209.679688 140.96875 210.121094 141.40625 C 210.671875 141.679688 210.851562 141.679688 210.925781 141.609375 L 211.207031 141.429688 C 211.382812 141.304688 211.566406 141.179688 211.714844 141.027344 C 212.015625 140.730469 212.28125 140.40625 212.519531 140.0625 C 212.769531 139.722656 213.023438 139.386719 213.246094 139.027344 C 213.480469 138.671875 213.628906 138.277344 213.765625 137.875 C 214.035156 137.074219 214.089844 136.203125 214.167969 135.367188 C 214.167969 135.347656 214.171875 135.332031 214.175781 135.316406 C 214.214844 134.914062 214.296875 134.523438 214.328125 134.121094 C 214.332031 134.042969 214.332031 133.964844 214.332031 133.886719 C 214.328125 133.753906 214.320312 133.617188 214.292969 133.480469 C 214.273438 133.371094 214.25 133.261719 214.214844 133.152344 Z M 214.394531 127.855469 C 214.324219 126.691406 214.160156 125.519531 213.863281 124.378906 C 213.746094 123.929688 213.613281 123.488281 213.453125 123.050781 C 213.4375 123.007812 213.425781 122.964844 213.40625 122.917969 C 213.28125 122.578125 213.136719 122.246094 212.980469 121.917969 C 212.417969 120.714844 211.699219 119.585938 210.925781 118.519531 C 210.691406 118.175781 210.433594 117.84375 210.179688 117.511719 C 209.933594 117.171875 209.664062 116.851562 209.386719 116.535156 C 209.101562 116.226562 208.800781 115.933594 208.464844 115.671875 C 208.300781 115.539062 208.128906 115.414062 207.949219 115.296875 C 207.863281 115.234375 207.761719 115.1875 207.617188 115.1875 C 207.484375 115.183594 207.304688 115.226562 207.085938 115.335938 C 206.953125 115.816406 207.003906 116.015625 207.121094 116.175781 C 207.238281 116.328125 207.347656 116.488281 207.457031 116.644531 C 207.574219 116.796875 207.683594 116.957031 207.792969 117.113281 L 208.136719 117.570312 C 208.355469 117.886719 208.601562 118.175781 208.804688 118.5 L 209.117188 118.980469 C 209.214844 119.148438 209.304688 119.316406 209.394531 119.484375 C 210.109375 120.84375 210.589844 122.296875 211.050781 123.734375 C 211.160156 124.09375 211.25 124.464844 211.363281 124.824219 C 211.429688 125.03125 211.488281 125.238281 211.546875 125.445312 C 211.589844 125.601562 211.628906 125.757812 211.671875 125.917969 C 211.761719 126.285156 211.890625 126.644531 211.980469 127.019531 L 212 127.109375 L 212.214844 128.140625 L 212.332031 128.707031 L 212.40625 129.277344 C 212.414062 129.355469 212.429688 129.429688 212.441406 129.507812 C 212.484375 129.8125 212.527344 130.121094 212.585938 130.425781 C 212.65625 130.808594 212.691406 131.199219 212.761719 131.585938 L 212.863281 132.175781 C 212.890625 132.371094 213 132.566406 213.515625 132.789062 C 214.03125 132.613281 214.148438 132.40625 214.171875 132.203125 L 214.285156 131.589844 C 214.34375 131.179688 214.433594 130.765625 214.445312 130.351562 C 214.460938 129.9375 214.464844 129.523438 214.457031 129.105469 L 214.449219 128.480469 Z M 143.753906 116.785156 C 143.796875 116.664062 143.839844 116.539062 143.875 116.414062 C 144.039062 115.921875 144.167969 115.320312 144.472656 114.773438 C 144.621094 114.496094 144.84375 114.277344 145.046875 114.042969 C 145.148438 113.921875 145.242188 113.792969 145.328125 113.640625 C 145.367188 113.570312 145.410156 113.492188 145.445312 113.410156 C 145.472656 113.375 145.472656 113.3125 145.441406 113.203125 L 145.378906 113.003906 L 145.253906 112.695312 C 145.179688 112.617188 145.089844 112.53125 145.015625 112.460938 L 144.84375 112.335938 C 144.746094 112.277344 144.671875 112.261719 144.628906 112.28125 C 144.527344 112.304688 144.425781 112.328125 144.328125 112.363281 C 144.136719 112.433594 143.957031 112.523438 143.804688 112.640625 C 143.484375 112.863281 143.214844 113.144531 142.902344 113.394531 C 142.285156 113.894531 141.632812 114.476562 141.230469 115.261719 C 141.136719 115.460938 141.039062 115.65625 140.96875 115.867188 C 140.90625 116.082031 140.859375 116.300781 140.824219 116.523438 C 140.785156 116.742188 140.808594 116.976562 140.800781 117.199219 L 140.804688 117.53125 L 140.84375 117.859375 C 140.875 118.078125 140.886719 118.296875 140.941406 118.507812 C 141.003906 118.71875 141.070312 118.921875 141.15625 119.121094 C 141.230469 119.320312 141.363281 119.5 141.496094 119.667969 L 141.703125 119.914062 C 141.757812 120 141.921875 120.050781 142.496094 119.921875 C 143.019531 119.625 143.136719 119.507812 143.136719 119.425781 L 143.1875 119.171875 C 143.210938 119.007812 143.230469 118.855469 143.265625 118.707031 C 143.296875 118.558594 143.3125 118.417969 143.316406 118.28125 C 143.332031 118.144531 143.363281 118.011719 143.382812 117.882812 L 143.417969 117.6875 L 143.488281 117.503906 C 143.539062 117.378906 143.566406 117.257812 143.625 117.140625 C 143.679688 117.023438 143.726562 116.90625 143.753906 116.785156 Z M 182.632812 155.855469 C 182.503906 155.679688 182.371094 155.519531 182.238281 155.355469 C 181.972656 155.035156 181.667969 154.773438 181.398438 154.472656 C 181.257812 154.324219 181.117188 154.183594 180.984375 154.03125 C 180.855469 153.878906 180.726562 153.722656 180.589844 153.578125 C 180.453125 153.433594 180.328125 153.28125 180.179688 153.144531 L 179.742188 152.742188 C 179.152344 152.210938 178.480469 151.734375 177.890625 151.171875 C 177.585938 150.894531 177.359375 150.5625 177.101562 150.25 C 176.980469 150.09375 176.832031 149.945312 176.679688 149.804688 C 176.597656 149.738281 176.515625 149.667969 176.433594 149.601562 C 176.394531 149.566406 176.332031 149.542969 176.21875 149.550781 C 176.113281 149.550781 175.945312 149.589844 175.699219 149.652344 C 175.503906 149.8125 175.382812 149.945312 175.332031 150.035156 C 175.265625 150.136719 175.257812 150.207031 175.273438 150.261719 C 175.292969 150.378906 175.316406 150.496094 175.347656 150.609375 C 175.410156 150.832031 175.5 151.039062 175.605469 151.238281 C 175.820312 151.628906 176.078125 151.992188 176.296875 152.382812 C 176.734375 153.164062 177.160156 153.984375 177.761719 154.660156 C 178.058594 155 178.375 155.328125 178.738281 155.597656 C 179.105469 155.867188 179.480469 156.121094 179.859375 156.359375 C 180.234375 156.609375 180.621094 156.839844 181.035156 157.023438 C 181.238281 157.121094 181.464844 157.183594 181.6875 157.25 L 182.027344 157.332031 C 182.132812 157.371094 182.296875 157.328125 182.6875 156.90625 C 182.90625 156.367188 182.890625 156.203125 182.820312 156.125 Z M 160.367188 84.027344 C 160.410156 84.324219 160.476562 84.621094 160.59375 84.910156 C 160.644531 85.058594 160.738281 85.195312 160.824219 85.332031 L 160.972656 85.535156 C 161.003906 85.605469 161.152344 85.660156 161.734375 85.648438 C 162.304688 85.503906 162.441406 85.425781 162.457031 85.359375 L 162.558594 85.152344 C 162.621094 85.019531 162.671875 84.886719 162.714844 84.761719 C 162.808594 84.503906 162.824219 84.257812 162.882812 84.011719 C 162.925781 83.765625 163 83.523438 163.066406 83.289062 C 163.117188 83.050781 163.144531 82.8125 163.136719 82.570312 C 163.152344 82.09375 163.042969 81.578125 163.046875 81.066406 C 163.046875 80.808594 163.132812 80.578125 163.175781 80.332031 C 163.203125 80.214844 163.207031 80.085938 163.199219 79.949219 C 163.191406 79.882812 163.183594 79.808594 163.171875 79.738281 C 163.171875 79.707031 163.136719 79.65625 163.058594 79.582031 L 162.902344 79.453125 L 162.640625 79.257812 C 162.539062 79.21875 162.421875 79.179688 162.332031 79.152344 L 162.128906 79.113281 C 162.015625 79.101562 161.953125 79.113281 161.925781 79.140625 C 161.851562 79.195312 161.789062 79.246094 161.726562 79.304688 C 161.605469 79.417969 161.511719 79.542969 161.441406 79.675781 C 161.296875 79.945312 161.203125 80.230469 161.058594 80.5 C 160.769531 81.039062 160.433594 81.597656 160.308594 82.199219 C 160.242188 82.5 160.195312 82.804688 160.230469 83.113281 C 160.253906 83.421875 160.3125 83.722656 160.367188 84.027344 Z M 161.042969 78.195312 C 161.054688 78.363281 161.167969 78.542969 161.75 78.738281 C 162.367188 78.617188 162.515625 78.480469 162.558594 78.335938 L 162.734375 77.902344 C 162.847656 77.613281 162.929688 77.328125 163.054688 77.054688 C 163.167969 76.777344 163.269531 76.5 163.351562 76.222656 C 163.425781 75.941406 163.574219 75.683594 163.675781 75.414062 C 164.109375 74.339844 164.761719 73.398438 165.296875 72.398438 C 165.871094 71.417969 166.453125 70.386719 167.234375 69.488281 C 167.429688 69.265625 167.644531 69.058594 167.859375 68.855469 L 168.539062 68.277344 C 168.769531 68.089844 168.988281 67.886719 169.207031 67.675781 L 169.527344 67.347656 C 169.640625 67.238281 169.691406 67.058594 169.597656 66.511719 C 169.410156 66.3125 169.25 66.199219 169.132812 66.152344 C 169.003906 66.097656 168.910156 66.101562 168.828125 66.128906 C 168.664062 66.179688 168.496094 66.230469 168.339844 66.292969 C 168.019531 66.414062 167.71875 66.574219 167.433594 66.75 C 167.144531 66.925781 166.882812 67.132812 166.609375 67.328125 C 166.347656 67.539062 166.074219 67.738281 165.804688 67.941406 C 164.726562 68.753906 163.660156 69.671875 162.867188 70.816406 L 162.566406 71.246094 C 162.476562 71.394531 162.386719 71.542969 162.304688 71.695312 C 162.140625 72.003906 161.972656 72.3125 161.847656 72.636719 C 161.613281 73.292969 161.382812 73.949219 161.238281 74.628906 C 161.058594 75.292969 160.964844 75.976562 160.925781 76.660156 C 160.890625 77 160.941406 77.347656 160.972656 77.6875 Z M 225.253906 186.546875 C 225.128906 186.347656 225.007812 186.132812 224.839844 185.972656 C 224.519531 185.625 224.160156 185.3125 223.761719 185.054688 C 223.378906 184.765625 222.957031 184.535156 222.53125 184.304688 C 222.089844 184.105469 221.625 183.949219 221.148438 183.882812 C 220.195312 183.710938 219.226562 183.824219 218.320312 183.988281 C 218.089844 184.03125 217.867188 184.070312 217.636719 184.101562 C 217.414062 184.144531 217.1875 184.171875 216.96875 184.234375 C 216.746094 184.292969 216.527344 184.375 216.320312 184.484375 C 216.21875 184.539062 216.117188 184.605469 216.015625 184.671875 C 215.96875 184.699219 215.921875 184.757812 215.898438 184.871094 C 215.871094 184.96875 215.863281 185.140625 215.894531 185.378906 C 216.152344 185.800781 216.265625 185.890625 216.371094 185.898438 L 216.671875 185.925781 C 216.871094 185.9375 217.066406 185.941406 217.257812 185.925781 L 217.832031 185.882812 C 218.019531 185.878906 218.214844 185.882812 218.402344 185.898438 C 219.171875 185.984375 219.886719 186.25 220.566406 186.453125 C 221.234375 186.695312 221.945312 186.792969 222.625 187.082031 C 222.972656 187.203125 223.285156 187.394531 223.648438 187.535156 C 223.835938 187.597656 224.007812 187.6875 224.199219 187.761719 L 224.492188 187.867188 C 224.582031 187.914062 224.738281 187.890625 225.199219 187.570312 C 225.5 187.113281 225.496094 186.949219 225.429688 186.855469 Z M 177.339844 189.542969 L 177.046875 189.320312 C 176.847656 189.179688 176.640625 189.042969 176.429688 188.925781 C 175.988281 188.71875 175.523438 188.566406 175.054688 188.417969 C 174.097656 188.1875 173.066406 187.921875 172.011719 188.171875 C 170.964844 188.355469 169.980469 188.882812 169.167969 189.535156 C 168.960938 189.695312 168.761719 189.859375 168.570312 190.03125 C 168.371094 190.195312 168.1875 190.382812 168.019531 190.574219 C 167.855469 190.777344 167.707031 190.988281 167.601562 191.234375 C 167.546875 191.351562 167.5 191.472656 167.460938 191.605469 C 167.4375 191.664062 167.4375 191.742188 167.488281 191.847656 C 167.535156 191.945312 167.636719 192.085938 167.820312 192.238281 C 168.300781 192.363281 168.441406 192.363281 168.527344 192.300781 L 168.777344 192.128906 C 168.933594 192.011719 169.097656 191.898438 169.238281 191.773438 C 169.390625 191.660156 169.523438 191.527344 169.6875 191.425781 C 169.765625 191.375 169.839844 191.320312 169.921875 191.273438 L 170.179688 191.152344 C 170.882812 190.859375 171.632812 190.828125 172.355469 190.773438 C 172.539062 190.769531 172.722656 190.761719 172.902344 190.742188 C 173.089844 190.75 173.28125 190.742188 173.46875 190.726562 L 173.757812 190.695312 L 174.050781 190.699219 L 174.648438 190.699219 C 175.050781 190.734375 175.453125 190.800781 175.878906 190.804688 C 176.089844 190.832031 176.308594 190.835938 176.53125 190.839844 L 176.871094 190.835938 C 176.980469 190.847656 177.121094 190.765625 177.421875 190.296875 C 177.515625 189.753906 177.441406 189.601562 177.339844 189.542969 Z M 164.796875 130.664062 C 164.960938 130.515625 164.972656 130.261719 164.824219 130.097656 C 164.535156 129.773438 164.195312 129.492188 163.828125 129.269531 C 163.464844 129.039062 163.078125 128.847656 162.683594 128.699219 C 162.28125 128.550781 161.875 128.429688 161.460938 128.351562 C 161.042969 128.273438 160.628906 128.226562 160.183594 128.25 C 160.070312 128.253906 159.964844 128.320312 159.914062 128.429688 C 159.839844 128.589844 159.910156 128.777344 160.070312 128.851562 L 160.089844 128.859375 C 160.441406 129.023438 160.816406 129.171875 161.175781 129.320312 C 161.539062 129.472656 161.898438 129.613281 162.25 129.765625 C 162.605469 129.914062 162.953125 130.078125 163.300781 130.234375 C 163.648438 130.390625 163.980469 130.566406 164.339844 130.722656 L 164.363281 130.734375 C 164.503906 130.792969 164.671875 130.773438 164.796875 130.664062 Z M 162.253906 135.265625 C 162.050781 134.929688 161.800781 134.621094 161.503906 134.359375 C 161.21875 134.089844 160.894531 133.863281 160.558594 133.667969 C 160.214844 133.476562 159.863281 133.3125 159.488281 133.199219 C 159.113281 133.082031 158.742188 133 158.324219 132.992188 C 158.175781 132.992188 158.035156 133.066406 157.960938 133.203125 C 157.855469 133.398438 157.929688 133.644531 158.125 133.75 L 158.164062 133.769531 C 158.453125 133.925781 158.78125 134.074219 159.085938 134.222656 C 159.394531 134.375 159.703125 134.523438 160.003906 134.679688 C 160.308594 134.832031 160.605469 135 160.902344 135.167969 C 161.203125 135.335938 161.488281 135.523438 161.808594 135.699219 L 161.828125 135.710938 C 161.925781 135.761719 162.042969 135.761719 162.144531 135.703125 C 162.292969 135.613281 162.34375 135.417969 162.253906 135.265625 Z M 159.878906 124.308594 C 159.855469 124.480469 159.972656 124.636719 160.140625 124.664062 L 160.199219 124.671875 C 160.523438 124.71875 160.898438 124.777344 161.242188 124.839844 C 161.59375 124.90625 161.945312 124.972656 162.292969 125.054688 C 162.46875 125.089844 162.644531 125.128906 162.816406 125.175781 C 162.996094 125.207031 163.167969 125.261719 163.347656 125.296875 C 163.703125 125.378906 164.058594 125.46875 164.433594 125.523438 L 164.445312 125.527344 C 164.59375 125.546875 164.75 125.488281 164.839844 125.355469 C 164.964844 125.167969 164.917969 124.917969 164.734375 124.792969 C 164.402344 124.566406 164.046875 124.386719 163.671875 124.246094 C 163.300781 124.101562 162.914062 123.996094 162.519531 123.921875 C 162.121094 123.855469 161.714844 123.816406 161.308594 123.832031 C 160.894531 123.847656 160.503906 123.898438 160.074219 124.066406 C 159.976562 124.105469 159.898438 124.195312 159.878906 124.308594 Z M 167.867188 141.628906 C 167.875 141.648438 168.355469 143.183594 167.878906 144.796875 C 167.777344 145.136719 167.632812 145.480469 167.433594 145.8125 C 167.386719 145.890625 167.34375 145.96875 167.289062 146.046875 C 167.179688 146.203125 167.058594 146.351562 166.929688 146.496094 C 165.695312 147.859375 163.511719 148.625 160.421875 148.765625 L 160.261719 148.769531 C 157.683594 148.886719 152.320312 149.132812 150.242188 146.425781 C 149.359375 145.28125 149.15625 143.652344 149.625 141.582031 C 149.683594 141.632812 149.75 141.683594 149.8125 141.738281 C 150.199219 142.03125 150.597656 142.3125 151.015625 142.5625 C 151.753906 143 152.519531 143.378906 153.320312 143.679688 C 153.335938 143.753906 153.363281 143.828125 153.40625 143.894531 C 153.632812 144.261719 153.847656 144.5625 154.101562 144.867188 C 154.347656 145.167969 154.613281 145.457031 154.890625 145.726562 C 155.167969 146.003906 155.46875 146.257812 155.785156 146.492188 C 156.101562 146.722656 156.449219 146.921875 156.8125 147.078125 C 156.96875 147.148438 157.160156 147.109375 157.277344 146.972656 C 157.417969 146.804688 157.398438 146.550781 157.230469 146.40625 L 157.210938 146.390625 C 156.945312 146.167969 156.6875 145.953125 156.445312 145.707031 C 156.207031 145.464844 155.972656 145.210938 155.765625 144.941406 C 155.597656 144.722656 155.4375 144.5 155.289062 144.269531 C 155.667969 144.355469 156.046875 144.429688 156.433594 144.472656 C 156.90625 144.554688 157.382812 144.5625 157.859375 144.597656 C 158.332031 144.621094 158.808594 144.589844 159.285156 144.582031 C 159.484375 144.578125 159.65625 144.421875 159.671875 144.214844 C 159.6875 143.996094 159.523438 143.804688 159.308594 143.789062 L 159.269531 143.785156 L 158.597656 143.734375 C 158.402344 143.714844 158.210938 143.714844 158.019531 143.691406 C 157.988281 143.6875 157.957031 143.683594 157.925781 143.679688 C 157.484375 143.613281 157.035156 143.574219 156.601562 143.464844 C 155.726562 143.304688 154.875 143.023438 154.054688 142.699219 C 153.234375 142.371094 152.460938 141.9375 151.730469 141.449219 C 151.507812 141.300781 151.296875 141.140625 151.085938 140.976562 C 150.949219 140.871094 150.816406 140.765625 150.6875 140.660156 C 150.523438 140.515625 150.355469 140.375 150.207031 140.226562 C 150.128906 140.152344 150.054688 140.078125 149.980469 140 C 149.910156 139.929688 149.832031 139.839844 149.785156 139.785156 L 149.769531 139.765625 C 149.765625 139.757812 149.757812 139.753906 149.753906 139.746094 C 149.746094 139.738281 149.738281 139.734375 149.730469 139.726562 C 149.652344 139.652344 147.625 137.652344 147.960938 135.441406 C 148.21875 135.449219 148.472656 135.445312 148.734375 135.433594 C 149.203125 135.410156 149.675781 135.363281 150.140625 135.289062 C 150.609375 135.21875 151.070312 135.105469 151.527344 134.964844 C 151.980469 134.816406 152.421875 134.617188 152.835938 134.367188 C 152.988281 134.273438 153.0625 134.085938 153.007812 133.90625 C 152.9375 133.695312 152.714844 133.582031 152.503906 133.648438 L 152.480469 133.652344 C 152.082031 133.78125 151.683594 133.898438 151.269531 133.972656 C 150.855469 134.046875 150.4375 134.105469 150.015625 134.121094 C 149.589844 134.140625 149.164062 134.140625 148.742188 134.113281 C 148.324219 134.082031 147.878906 134.046875 147.5 133.976562 L 147.484375 133.972656 C 147.460938 133.96875 147.441406 133.964844 147.417969 133.964844 C 147.402344 133.960938 147.386719 133.964844 147.371094 133.964844 C 147.285156 133.957031 147.089844 133.933594 146.828125 133.878906 C 146.625 133.832031 146.386719 133.769531 146.125 133.675781 C 145.90625 133.59375 145.667969 133.492188 145.429688 133.363281 C 144.980469 133.117188 144.527344 132.777344 144.144531 132.296875 C 143.179688 131.085938 142.902344 129.304688 143.320312 127 C 143.355469 126.804688 143.398438 126.59375 143.457031 126.371094 C 144.460938 127.324219 145.464844 128.113281 146.351562 128.636719 C 146.507812 128.730469 146.664062 128.816406 146.8125 128.890625 C 146.878906 128.921875 146.949219 128.949219 147.015625 128.976562 C 147.238281 129.066406 147.46875 129.132812 147.710938 129.175781 C 147.929688 129.214844 148.148438 129.238281 148.375 129.238281 C 149.570312 129.238281 150.832031 128.722656 151.640625 127.808594 C 152.191406 127.1875 153.285156 125.480469 151.621094 122.992188 C 151.246094 122.433594 150.757812 121.851562 150.234375 121.238281 C 150.164062 121.15625 150.09375 121.074219 150.023438 120.988281 C 149.914062 120.863281 149.804688 120.734375 149.695312 120.605469 C 149.613281 120.507812 149.527344 120.40625 149.445312 120.308594 C 149.546875 120.277344 149.679688 120.253906 149.832031 120.238281 C 150.054688 120.210938 150.320312 120.199219 150.613281 120.207031 C 151.679688 120.226562 153.082031 120.492188 153.886719 121.253906 C 153.890625 121.257812 153.894531 121.261719 153.898438 121.265625 C 153.902344 121.269531 153.90625 121.273438 153.914062 121.28125 L 153.933594 121.296875 L 153.996094 121.347656 C 154.019531 121.367188 154.042969 121.390625 154.070312 121.414062 C 154.121094 121.460938 154.175781 121.507812 154.226562 121.558594 C 154.332031 121.660156 154.425781 121.773438 154.527344 121.882812 C 154.625 122.003906 154.722656 122.125 154.816406 122.253906 C 154.902344 122.367188 154.984375 122.480469 155.058594 122.597656 C 155.382812 123.101562 155.652344 123.652344 155.828125 124.234375 C 155.882812 124.378906 155.90625 124.527344 155.949219 124.675781 C 155.988281 124.824219 156.023438 124.972656 156.042969 125.125 L 156.113281 125.582031 L 156.144531 126.042969 C 156.179688 126.332031 156.148438 126.625 156.152344 126.917969 C 156.152344 126.9375 156.152344 126.957031 156.152344 126.976562 C 156.136719 127.292969 156.097656 127.605469 156.074219 127.921875 L 156.070312 127.972656 C 156.058594 128.164062 156.1875 128.339844 156.378906 128.386719 C 156.59375 128.433594 156.804688 128.300781 156.855469 128.085938 C 156.929688 127.753906 157.023438 127.417969 157.074219 127.074219 L 157.136719 126.554688 C 157.164062 126.382812 157.171875 126.207031 157.171875 126.03125 L 157.175781 125.503906 L 157.136719 124.976562 C 157.125 124.800781 157.097656 124.625 157.066406 124.449219 C 157.03125 124.277344 157.015625 124.097656 156.964844 123.925781 C 156.808594 123.230469 156.539062 122.558594 156.195312 121.921875 C 156.027344 121.605469 155.824219 121.304688 155.605469 121.011719 C 155.578125 120.972656 155.546875 120.9375 155.515625 120.898438 C 157.136719 120.066406 161.371094 118.507812 167.140625 121.035156 C 167.363281 121.132812 167.585938 121.234375 167.808594 121.34375 C 168.027344 121.449219 168.25 121.5625 168.472656 121.679688 C 168.589844 121.742188 168.707031 121.796875 168.820312 121.863281 C 170.199219 122.625 173.117188 124.9375 173.339844 127.222656 C 173.4375 128.238281 172.996094 129.144531 171.988281 129.992188 C 171.769531 130.175781 171.679688 130.464844 171.753906 130.738281 C 171.777344 130.816406 173.882812 138.691406 168.304688 140.722656 C 167.941406 140.859375 167.746094 141.257812 167.867188 141.628906 Z M 233.847656 131.386719 C 234.453125 132.21875 235.191406 133.960938 233.421875 136.359375 C 232.566406 137.519531 231.082031 139.519531 228.160156 139.980469 C 228.863281 136.546875 229.019531 132.839844 228.628906 128.871094 C 228.15625 124.101562 226.542969 119.847656 224.40625 115.726562 C 224.136719 115.210938 223.859375 114.691406 223.574219 114.175781 C 223.277344 113.632812 222.96875 113.09375 222.65625 112.554688 C 222.433594 112.167969 222.210938 111.785156 221.980469 111.402344 C 222.113281 111.3125 222.253906 111.222656 222.414062 111.144531 C 223.046875 110.824219 223.78125 110.664062 224.613281 110.664062 C 225.640625 110.664062 226.816406 110.90625 228.128906 111.398438 C 228.996094 111.722656 229.777344 112.082031 230.464844 112.464844 C 230.695312 112.59375 230.917969 112.726562 231.128906 112.859375 C 231.359375 113.007812 231.574219 113.160156 231.78125 113.316406 C 232.777344 114.070312 233.46875 114.910156 233.8125 115.804688 C 234.195312 116.789062 234.171875 117.882812 233.757812 119.070312 C 233.6875 118.992188 233.621094 118.914062 233.554688 118.835938 C 233.214844 118.449219 232.871094 118.078125 232.515625 117.710938 C 232.003906 117.183594 231.476562 116.679688 230.925781 116.195312 C 230.730469 116.027344 230.535156 115.859375 230.335938 115.695312 C 230.3125 115.675781 230.289062 115.652344 230.261719 115.632812 C 230.074219 115.480469 229.796875 115.492188 229.625 115.667969 C 229.445312 115.855469 229.445312 116.152344 229.632812 116.335938 L 229.636719 116.339844 C 229.746094 116.445312 229.847656 116.554688 229.953125 116.664062 C 230.136719 116.847656 230.320312 117.035156 230.5 117.226562 C 230.886719 117.640625 231.265625 118.066406 231.621094 118.503906 C 231.933594 118.882812 232.234375 119.269531 232.527344 119.664062 C 232.816406 120.054688 233.105469 120.464844 233.359375 120.855469 L 233.367188 120.863281 C 233.371094 120.871094 233.371094 120.875 233.375 120.878906 C 233.636719 121.257812 236.328125 125.445312 233.257812 129.898438 C 233.007812 130.238281 232.734375 130.59375 232.464844 130.933594 C 232.183594 131.285156 231.890625 131.636719 231.597656 131.976562 C 231.003906 132.664062 230.382812 133.324219 229.726562 133.9375 L 229.722656 133.945312 C 229.546875 134.109375 229.523438 134.382812 229.675781 134.578125 C 229.835938 134.78125 230.132812 134.816406 230.339844 134.65625 C 230.90625 134.214844 231.445312 133.738281 231.96875 133.253906 C 231.964844 133.269531 231.964844 133.285156 231.960938 133.304688 C 231.886719 133.90625 231.796875 134.511719 231.773438 135.128906 C 231.765625 135.296875 231.867188 135.457031 232.027344 135.519531 C 232.234375 135.601562 232.46875 135.503906 232.550781 135.292969 C 232.777344 134.71875 232.941406 134.132812 233.117188 133.546875 C 233.296875 132.960938 233.464844 132.375 233.625 131.785156 C 233.632812 131.757812 233.640625 131.726562 233.644531 131.699219 C 233.648438 131.664062 233.648438 131.632812 233.648438 131.597656 C 233.714844 131.527344 233.78125 131.457031 233.847656 131.386719 " fill-opacity="1" fill-rule="nonzero"/><path fill="#7f3e1a" d="M 168.640625 191.152344 C 168.671875 191.226562 168.753906 191.332031 168.894531 191.453125 C 169.261719 191.546875 169.371094 191.546875 169.4375 191.5 L 169.628906 191.367188 C 169.75 191.277344 169.875 191.191406 169.984375 191.09375 C 170.101562 191.007812 170.203125 190.90625 170.328125 190.828125 C 170.386719 190.789062 170.445312 190.746094 170.507812 190.707031 L 170.707031 190.617188 C 171.246094 190.390625 171.824219 190.367188 172.378906 190.328125 C 172.519531 190.320312 172.660156 190.316406 172.800781 190.300781 C 172.945312 190.308594 173.089844 190.300781 173.234375 190.289062 L 173.453125 190.265625 L 173.683594 190.269531 L 174.140625 190.269531 C 174.449219 190.296875 174.761719 190.34375 175.085938 190.351562 C 175.25 190.371094 175.417969 190.375 175.585938 190.378906 L 175.847656 190.375 C 175.933594 190.382812 176.039062 190.320312 176.273438 189.960938 C 176.34375 189.542969 176.289062 189.425781 176.210938 189.378906 L 175.984375 189.210938 C 175.828125 189.101562 175.671875 188.996094 175.507812 188.90625 C 175.171875 188.746094 174.8125 188.628906 174.453125 188.515625 C 173.714844 188.339844 172.925781 188.132812 172.113281 188.328125 C 171.3125 188.46875 170.554688 188.875 169.929688 189.375 C 169.769531 189.496094 169.617188 189.621094 169.46875 189.757812 C 169.316406 189.882812 169.175781 190.023438 169.046875 190.175781 C 168.917969 190.328125 168.804688 190.492188 168.726562 190.679688 C 168.683594 190.769531 168.644531 190.863281 168.617188 190.964844 C 168.601562 191.011719 168.597656 191.070312 168.640625 191.152344 Z M 163.761719 186.816406 C 163.859375 186.613281 163.773438 186.378906 163.574219 186.28125 L 163.546875 186.269531 C 163.25 186.128906 162.964844 186.003906 162.695312 185.835938 C 162.421875 185.675781 162.167969 185.496094 161.929688 185.292969 C 161.695312 185.089844 161.472656 184.867188 161.273438 184.632812 C 161.171875 184.511719 161.078125 184.390625 160.988281 184.269531 C 160.902344 184.152344 160.804688 184.007812 160.757812 183.917969 C 160.746094 183.890625 160.730469 183.859375 160.710938 183.835938 C 160.652344 183.753906 160.582031 183.6875 160.5 183.636719 C 159.554688 181.214844 159.519531 179.273438 160.394531 177.859375 C 161.753906 175.660156 164.914062 175.355469 165.535156 175.316406 C 165.664062 175.308594 165.792969 175.300781 165.917969 175.296875 C 165.195312 177.128906 164.566406 178.402344 164.277344 178.953125 C 164.011719 178.734375 163.761719 178.488281 163.539062 178.257812 L 163.507812 178.230469 C 163.382812 178.101562 163.179688 178.070312 163.019531 178.167969 C 162.832031 178.28125 162.773438 178.523438 162.886719 178.710938 C 163.019531 178.925781 163.144531 179.105469 163.292969 179.28125 C 163.433594 179.460938 163.585938 179.628906 163.746094 179.792969 C 163.902344 179.957031 164.082031 180.101562 164.25 180.257812 C 164.429688 180.398438 164.613281 180.535156 164.796875 180.667969 C 164.996094 180.789062 165.1875 180.914062 165.390625 181.023438 L 166.019531 181.324219 C 166.238281 181.402344 166.460938 181.472656 166.683594 181.546875 C 166.90625 181.613281 167.136719 181.648438 167.363281 181.695312 C 167.59375 181.75 167.828125 181.753906 168.058594 181.769531 C 168.292969 181.777344 168.523438 181.804688 168.753906 181.769531 L 169.445312 181.710938 C 169.667969 181.664062 169.890625 181.605469 170.113281 181.554688 L 170.445312 181.472656 C 170.550781 181.433594 170.65625 181.390625 170.761719 181.347656 L 171.390625 181.097656 C 171.59375 181.007812 171.78125 180.878906 171.976562 180.773438 C 172.167969 180.664062 172.359375 180.550781 172.546875 180.433594 C 172.660156 180.359375 172.71875 180.21875 172.675781 180.082031 C 172.625 179.917969 172.453125 179.828125 172.289062 179.875 L 172.25 179.890625 C 172.027344 179.957031 171.808594 180.039062 171.59375 180.121094 C 172.226562 179.128906 172.777344 178.09375 173.261719 177.042969 C 174.230469 177.792969 174.851562 178.683594 175.113281 179.699219 C 175.699219 181.980469 174.363281 184.378906 173.769531 185.296875 C 173.542969 185.277344 173.332031 185.269531 173.109375 185.269531 C 172.800781 185.261719 172.496094 185.277344 172.191406 185.292969 C 171.886719 185.3125 171.585938 185.34375 171.28125 185.378906 C 170.984375 185.429688 170.679688 185.464844 170.382812 185.53125 C 169.191406 185.773438 168.03125 186.164062 166.957031 186.726562 C 165.886719 187.285156 164.859375 187.949219 163.992188 188.789062 C 163.53125 189.175781 163.160156 189.648438 162.757812 190.089844 C 162.367188 190.539062 162.046875 191.046875 161.699219 191.527344 C 161.578125 191.695312 161.605469 191.929688 161.765625 192.0625 C 161.933594 192.207031 162.183594 192.183594 162.324219 192.015625 L 162.355469 191.980469 L 162.898438 191.335938 C 163.082031 191.121094 163.238281 190.886719 163.449219 190.699219 C 163.851562 190.308594 164.222656 189.890625 164.671875 189.558594 C 165.507812 188.824219 166.46875 188.25 167.464844 187.785156 C 168.464844 187.316406 169.535156 187.003906 170.617188 186.832031 C 170.890625 186.785156 171.164062 186.765625 171.4375 186.730469 C 171.710938 186.707031 171.984375 186.6875 172.257812 186.675781 C 172.53125 186.675781 172.800781 186.667969 173.074219 186.683594 C 173.335938 186.691406 173.625 186.71875 173.847656 186.75 L 173.890625 186.757812 C 173.894531 186.757812 173.902344 186.757812 173.90625 186.757812 C 174.054688 186.773438 174.195312 186.746094 174.316406 186.683594 C 183.066406 188.164062 184.453125 195.121094 184.652344 196.660156 C 180.351562 200.089844 172.953125 200.359375 169.203125 199.964844 C 160.808594 199.085938 157.394531 193.976562 156.886719 193.136719 C 156.941406 189.234375 159.035156 186.386719 160.023438 185.257812 C 160.121094 185.359375 160.21875 185.464844 160.324219 185.558594 C 160.609375 185.816406 160.914062 186.046875 161.238281 186.25 C 161.558594 186.453125 161.898438 186.628906 162.253906 186.761719 C 162.605469 186.902344 162.980469 186.988281 163.351562 187.039062 C 163.515625 187.0625 163.6875 186.976562 163.761719 186.816406 Z M 185.257812 197.648438 C 181.617188 200.472656 176.070312 201.257812 171.976562 201.257812 C 170.886719 201.257812 169.902344 201.199219 169.082031 201.113281 C 160.746094 200.242188 157.054688 195.535156 156.074219 194.019531 C 155.746094 194.199219 155.316406 194.523438 155.15625 195.035156 C 154.933594 195.769531 155.316406 196.773438 156.265625 197.945312 C 158.578125 200.792969 165.695312 204.269531 173.277344 204.273438 C 177.023438 204.273438 180.878906 203.421875 184.328125 201.230469 C 185.125 200.722656 185.984375 199.875 186.003906 199.007812 C 186.011719 198.539062 185.761719 198.082031 185.257812 197.648438 Z M 208.269531 117.664062 C 208.363281 117.789062 208.449219 117.917969 208.539062 118.046875 C 208.636719 118.167969 208.71875 118.296875 208.8125 118.425781 L 209.089844 118.796875 C 209.265625 119.050781 209.464844 119.285156 209.628906 119.550781 L 209.882812 119.9375 C 209.960938 120.070312 210.035156 120.210938 210.109375 120.34375 C 210.6875 121.445312 211.074219 122.621094 211.445312 123.78125 C 211.535156 124.074219 211.609375 124.371094 211.699219 124.664062 C 211.753906 124.832031 211.800781 125 211.847656 125.167969 C 211.882812 125.296875 211.914062 125.421875 211.949219 125.550781 C 212.023438 125.847656 212.128906 126.140625 212.199219 126.441406 L 212.214844 126.511719 L 212.386719 127.347656 L 212.484375 127.804688 L 212.542969 128.269531 C 212.550781 128.332031 212.5625 128.394531 212.574219 128.453125 C 212.605469 128.703125 212.640625 128.949219 212.6875 129.199219 C 212.746094 129.507812 212.773438 129.824219 212.832031 130.140625 L 212.914062 130.613281 C 212.933594 130.773438 213.027344 130.933594 213.441406 131.113281 C 213.859375 130.96875 213.953125 130.800781 213.972656 130.636719 L 214.066406 130.140625 C 214.113281 129.808594 214.183594 129.472656 214.191406 129.136719 C 214.207031 128.804688 214.210938 128.464844 214.203125 128.128906 L 214.199219 127.621094 L 214.15625 127.117188 C 214.097656 126.175781 213.960938 125.226562 213.722656 124.304688 C 213.628906 123.941406 213.519531 123.582031 213.390625 123.230469 C 213.378906 123.195312 213.367188 123.160156 213.355469 123.125 C 213.25 122.847656 213.132812 122.578125 213.007812 122.316406 C 212.554688 121.339844 211.972656 120.425781 211.347656 119.566406 C 211.15625 119.285156 210.949219 119.015625 210.742188 118.746094 C 210.546875 118.472656 210.324219 118.214844 210.101562 117.957031 C 209.871094 117.707031 209.628906 117.46875 209.355469 117.257812 C 209.21875 117.152344 209.082031 117.050781 208.9375 116.953125 C 208.867188 116.902344 208.785156 116.867188 208.667969 116.867188 C 208.5625 116.863281 208.414062 116.898438 208.238281 116.988281 C 208.132812 117.375 208.175781 117.539062 208.269531 117.664062 Z M 213.464844 135.933594 C 213.492188 135.660156 213.546875 135.398438 213.566406 135.125 C 213.570312 135.074219 213.570312 135.019531 213.570312 134.96875 C 213.570312 134.875 213.5625 134.785156 213.542969 134.691406 C 213.53125 134.621094 213.515625 134.546875 213.492188 134.46875 C 213.484375 134.433594 213.453125 134.394531 213.382812 134.351562 L 213.246094 134.289062 C 213.179688 134.269531 213.101562 134.246094 213.027344 134.226562 C 213.027344 134.226562 213.023438 134.226562 213.019531 134.226562 L 212.789062 134.261719 L 212.644531 134.296875 C 212.570312 134.320312 212.53125 134.347656 212.519531 134.375 C 212.484375 134.433594 212.449219 134.492188 212.417969 134.546875 C 212.414062 134.558594 212.40625 134.570312 212.402344 134.582031 C 212.351562 134.6875 212.304688 134.792969 212.273438 134.894531 C 212.203125 135.132812 212.15625 135.375 212.042969 135.601562 C 211.828125 136.054688 211.53125 136.46875 211.316406 136.90625 C 211.199219 137.121094 211.105469 137.34375 211.023438 137.574219 C 210.984375 137.6875 210.953125 137.808594 210.914062 137.929688 L 210.789062 138.277344 C 210.707031 138.515625 210.59375 138.734375 210.527344 138.988281 C 210.496094 139.113281 210.460938 139.242188 210.433594 139.375 L 210.402344 139.582031 C 210.378906 139.644531 210.425781 139.753906 210.722656 140.046875 C 211.097656 140.234375 211.21875 140.234375 211.269531 140.1875 L 211.457031 140.066406 C 211.578125 139.980469 211.703125 139.894531 211.800781 139.792969 C 212.007812 139.59375 212.183594 139.375 212.347656 139.140625 C 212.515625 138.910156 212.6875 138.683594 212.839844 138.441406 C 212.992188 138.199219 213.097656 137.933594 213.1875 137.664062 C 213.371094 137.121094 213.40625 136.53125 213.460938 135.96875 C 213.460938 135.957031 213.464844 135.945312 213.464844 135.933594 Z M 180.570312 134.972656 C 179.890625 120.347656 187.609375 113.960938 193.539062 112.035156 C 193.773438 111.957031 194.003906 111.886719 194.234375 111.828125 C 194.472656 111.761719 194.707031 111.703125 194.9375 111.652344 C 195.199219 111.59375 195.453125 111.542969 195.699219 111.503906 C 205.925781 109.867188 211.828125 114.285156 214.800781 119.023438 C 214.949219 119.261719 215.089844 119.496094 215.222656 119.734375 C 215.363281 119.984375 215.496094 120.234375 215.625 120.484375 C 216.40625 122.042969 216.890625 123.574219 217.125 124.871094 C 218.003906 129.777344 217.71875 133.65625 216.78125 136.730469 C 216.707031 136.96875 216.628906 137.203125 216.550781 137.429688 C 216.46875 137.664062 216.382812 137.890625 216.296875 138.113281 C 213.164062 145.9375 205.613281 147.757812 204.441406 147.996094 C 203.242188 148.238281 202.078125 148.417969 200.949219 148.539062 C 200.710938 148.566406 200.46875 148.597656 200.230469 148.621094 C 199.984375 148.640625 199.746094 148.652344 199.507812 148.667969 C 193.941406 149.042969 189.316406 147.90625 185.96875 145.300781 C 181.234375 141.613281 180.640625 136.464844 180.570312 134.972656 Z M 217.011719 185.300781 C 217.210938 185.621094 217.296875 185.691406 217.378906 185.699219 L 217.609375 185.71875 C 217.761719 185.726562 217.910156 185.730469 218.058594 185.71875 L 218.496094 185.683594 C 218.640625 185.683594 218.789062 185.6875 218.933594 185.699219 C 219.523438 185.761719 220.070312 185.96875 220.589844 186.125 C 221.101562 186.308594 221.648438 186.382812 222.167969 186.605469 C 222.4375 186.695312 222.675781 186.84375 222.953125 186.953125 C 223.09375 187 223.226562 187.070312 223.371094 187.125 L 223.597656 187.207031 C 223.667969 187.242188 223.785156 187.222656 224.136719 186.976562 C 224.371094 186.628906 224.367188 186.5 224.316406 186.429688 L 224.179688 186.191406 C 224.085938 186.039062 223.992188 185.878906 223.863281 185.753906 C 223.617188 185.488281 223.34375 185.25 223.035156 185.050781 C 222.746094 184.832031 222.421875 184.652344 222.09375 184.476562 C 221.757812 184.324219 221.402344 184.207031 221.035156 184.15625 C 220.308594 184.023438 219.566406 184.109375 218.871094 184.238281 C 218.695312 184.269531 218.523438 184.296875 218.347656 184.320312 C 218.175781 184.355469 218.003906 184.375 217.835938 184.425781 C 217.664062 184.46875 217.5 184.53125 217.339844 184.617188 C 217.261719 184.65625 217.183594 184.707031 217.109375 184.757812 C 217.070312 184.78125 217.035156 184.824219 217.015625 184.910156 C 216.996094 184.984375 216.988281 185.117188 217.011719 185.300781 Z M 214.027344 183.808594 C 214.902344 183.105469 217.496094 181.40625 221.238281 182.332031 C 228.125 184.039062 228.039062 190.980469 227.976562 192.105469 C 223.296875 199.421875 209.824219 197.695312 207.15625 197.273438 C 194.203125 195.214844 190.566406 192.328125 189.964844 191.765625 C 188.988281 185.664062 191.597656 183.054688 192.949219 182.140625 C 192.949219 182.140625 192.949219 182.144531 192.953125 182.148438 C 193.039062 182.4375 193.152344 182.714844 193.285156 182.984375 C 193.554688 183.519531 193.902344 184.015625 194.332031 184.429688 C 194.429688 184.542969 194.550781 184.632812 194.660156 184.730469 C 194.773438 184.824219 194.882812 184.921875 195.007812 185 L 195.375 185.246094 L 195.761719 185.449219 C 195.890625 185.519531 196.019531 185.582031 196.152344 185.628906 L 196.558594 185.777344 C 196.828125 185.863281 197.109375 185.914062 197.378906 185.980469 C 197.5625 186.023438 197.75 185.933594 197.832031 185.757812 C 197.921875 185.558594 197.835938 185.324219 197.632812 185.234375 L 197.582031 185.210938 C 197.355469 185.105469 197.121094 185.019531 196.898438 184.914062 C 196.6875 184.789062 196.453125 184.703125 196.261719 184.554688 L 195.960938 184.355469 L 195.6875 184.128906 C 195.59375 184.058594 195.511719 183.972656 195.433594 183.890625 C 195.351562 183.804688 195.261719 183.730469 195.195312 183.632812 C 194.890625 183.28125 194.660156 182.871094 194.492188 182.441406 C 194.410156 182.226562 194.34375 182.003906 194.292969 181.785156 C 194.269531 181.671875 194.242188 181.5625 194.230469 181.453125 C 194.214844 181.347656 194.203125 181.21875 194.203125 181.15625 L 194.203125 181.140625 C 194.203125 181.121094 194.203125 181.101562 194.199219 181.082031 C 194.191406 180.957031 194.144531 180.84375 194.078125 180.746094 C 194.167969 179.59375 194.609375 178.6875 195.429688 177.988281 C 196.625 176.96875 198.40625 176.582031 199.992188 176.492188 C 199.128906 178.355469 198.378906 179.632812 198.0625 180.152344 C 197.789062 179.929688 197.527344 179.671875 197.296875 179.4375 L 197.269531 179.410156 C 197.144531 179.28125 196.941406 179.25 196.78125 179.347656 C 196.59375 179.460938 196.535156 179.703125 196.648438 179.890625 C 196.777344 180.109375 196.90625 180.285156 197.054688 180.460938 C 197.195312 180.640625 197.347656 180.808594 197.503906 180.972656 C 197.664062 181.136719 197.839844 181.28125 198.007812 181.4375 C 198.1875 181.578125 198.371094 181.714844 198.558594 181.847656 C 198.753906 181.96875 198.949219 182.09375 199.152344 182.203125 L 199.78125 182.503906 C 200 182.582031 200.222656 182.652344 200.441406 182.722656 C 200.664062 182.792969 200.898438 182.824219 201.125 182.875 C 201.351562 182.929688 201.585938 182.933594 201.820312 182.945312 C 202.050781 182.957031 202.285156 182.984375 202.515625 182.949219 L 203.207031 182.886719 C 203.429688 182.84375 203.652344 182.785156 203.875 182.734375 L 204.207031 182.648438 C 204.3125 182.613281 204.417969 182.570312 204.523438 182.527344 L 205.148438 182.277344 C 205.355469 182.1875 205.542969 182.058594 205.734375 181.953125 C 205.929688 181.84375 206.117188 181.730469 206.304688 181.613281 C 206.421875 181.539062 206.476562 181.394531 206.4375 181.261719 C 206.386719 181.097656 206.210938 181.007812 206.050781 181.054688 L 206.007812 181.066406 C 205.773438 181.140625 205.546875 181.226562 205.320312 181.3125 C 205.964844 180.265625 206.539062 179.210938 207.054688 178.15625 C 208.933594 179.425781 209.21875 181.007812 209.242188 181.742188 C 209.148438 181.859375 209.085938 182.003906 209.078125 182.164062 C 209.078125 182.210938 209.0625 182.324219 209.046875 182.410156 C 209.03125 182.503906 209.007812 182.601562 208.980469 182.695312 C 208.933594 182.882812 208.867188 183.070312 208.796875 183.253906 C 208.644531 183.621094 208.441406 183.960938 208.179688 184.261719 C 207.921875 184.558594 207.621094 184.832031 207.269531 185.035156 C 207.105469 185.15625 206.910156 185.226562 206.722656 185.328125 C 206.535156 185.417969 206.332031 185.484375 206.136719 185.570312 L 206.074219 185.59375 C 205.910156 185.664062 205.808594 185.84375 205.84375 186.027344 C 205.882812 186.242188 206.089844 186.386719 206.304688 186.347656 C 206.542969 186.300781 206.792969 186.273438 207.035156 186.203125 C 207.273438 186.128906 207.519531 186.058594 207.75 185.941406 C 208.21875 185.738281 208.648438 185.429688 209.03125 185.074219 C 209.414062 184.71875 209.734375 184.292969 209.984375 183.832031 C 210.046875 183.714844 210.101562 183.597656 210.160156 183.480469 C 210.210938 183.359375 210.261719 183.238281 210.304688 183.113281 C 210.328125 183.050781 210.34375 182.988281 210.363281 182.925781 C 210.742188 183.007812 211.226562 183.136719 211.632812 183.324219 C 211.90625 183.449219 212.128906 183.574219 212.3125 183.6875 C 212.191406 183.832031 212.070312 183.984375 211.960938 184.136719 C 211.707031 184.480469 211.484375 184.839844 211.28125 185.214844 C 211.078125 185.585938 210.898438 185.972656 210.757812 186.375 C 210.613281 186.773438 210.519531 187.195312 210.464844 187.613281 C 210.441406 187.785156 210.535156 187.960938 210.703125 188.03125 C 210.90625 188.121094 211.140625 188.027344 211.226562 187.824219 L 211.238281 187.796875 C 211.386719 187.449219 211.523438 187.105469 211.703125 186.78125 C 211.871094 186.453125 212.0625 186.132812 212.28125 185.832031 C 212.496094 185.53125 212.730469 185.242188 212.984375 184.972656 C 213.109375 184.839844 213.238281 184.707031 213.371094 184.578125 C 213.496094 184.457031 213.644531 184.324219 213.757812 184.234375 L 213.765625 184.230469 C 213.78125 184.214844 213.800781 184.199219 213.820312 184.183594 C 213.929688 184.078125 214 183.945312 214.027344 183.808594 Z M 228.128906 197.257812 C 220.398438 205.164062 198.886719 200.8125 191.488281 196.785156 C 190.09375 196.027344 189.316406 195.191406 189.183594 194.304688 C 189.097656 193.738281 189.300781 193.230469 189.503906 192.890625 C 190.851562 193.960938 195.164062 196.535156 206.976562 198.414062 C 207.972656 198.570312 210.410156 198.902344 213.367188 198.902344 C 218.554688 198.902344 225.335938 197.878906 228.695312 193.113281 C 229.101562 193.457031 229.328125 193.855469 229.386719 194.316406 C 229.542969 195.515625 228.53125 196.847656 228.128906 197.257812 " fill-opacity="1" fill-rule="nonzero"/><path fill="#80cc42" d="M 142.949219 117.933594 C 142.96875 117.832031 142.980469 117.734375 142.980469 117.636719 C 142.996094 117.542969 143.015625 117.449219 143.03125 117.359375 L 143.054688 117.222656 L 143.101562 117.09375 C 143.136719 117.007812 143.160156 116.921875 143.199219 116.839844 C 143.238281 116.757812 143.269531 116.675781 143.289062 116.589844 C 143.320312 116.503906 143.351562 116.417969 143.371094 116.328125 C 143.488281 115.984375 143.578125 115.566406 143.792969 115.179688 C 143.898438 114.988281 144.050781 114.835938 144.195312 114.667969 C 144.265625 114.585938 144.332031 114.496094 144.390625 114.390625 C 144.421875 114.339844 144.449219 114.285156 144.476562 114.226562 C 144.492188 114.203125 144.492188 114.160156 144.472656 114.082031 L 144.425781 113.941406 L 144.339844 113.726562 C 144.285156 113.671875 144.226562 113.609375 144.175781 113.5625 L 144.054688 113.476562 C 143.984375 113.433594 143.933594 113.421875 143.902344 113.4375 C 143.832031 113.453125 143.757812 113.46875 143.691406 113.492188 C 143.558594 113.542969 143.433594 113.605469 143.324219 113.6875 C 143.101562 113.84375 142.910156 114.042969 142.691406 114.214844 C 142.261719 114.566406 141.800781 114.972656 141.523438 115.523438 C 141.457031 115.664062 141.386719 115.800781 141.339844 115.949219 C 141.292969 116.097656 141.261719 116.253906 141.238281 116.40625 C 141.210938 116.5625 141.226562 116.722656 141.222656 116.878906 L 141.222656 117.113281 L 141.25 117.34375 C 141.273438 117.496094 141.28125 117.652344 141.320312 117.796875 C 141.363281 117.945312 141.410156 118.085938 141.472656 118.226562 C 141.523438 118.367188 141.617188 118.492188 141.707031 118.609375 L 141.855469 118.78125 C 141.890625 118.839844 142.007812 118.878906 142.410156 118.785156 C 142.777344 118.578125 142.855469 118.496094 142.855469 118.441406 L 142.890625 118.261719 C 142.910156 118.148438 142.921875 118.039062 142.949219 117.933594 Z M 161.730469 84.695312 C 162.132812 84.589844 162.226562 84.535156 162.238281 84.488281 L 162.3125 84.34375 C 162.355469 84.246094 162.390625 84.15625 162.421875 84.0625 C 162.488281 83.882812 162.5 83.707031 162.539062 83.535156 C 162.570312 83.359375 162.625 83.191406 162.667969 83.023438 C 162.707031 82.855469 162.726562 82.6875 162.71875 82.515625 C 162.730469 82.175781 162.652344 81.8125 162.65625 81.449219 C 162.65625 81.269531 162.714844 81.105469 162.746094 80.933594 C 162.765625 80.847656 162.769531 80.753906 162.761719 80.660156 C 162.757812 80.613281 162.75 80.5625 162.742188 80.511719 C 162.742188 80.488281 162.71875 80.453125 162.664062 80.402344 L 162.554688 80.308594 L 162.367188 80.171875 C 162.296875 80.144531 162.214844 80.117188 162.148438 80.097656 L 162.003906 80.066406 C 161.925781 80.058594 161.882812 80.066406 161.863281 80.089844 C 161.8125 80.125 161.765625 80.164062 161.722656 80.203125 C 161.636719 80.285156 161.570312 80.371094 161.519531 80.46875 C 161.417969 80.660156 161.351562 80.859375 161.25 81.050781 C 161.042969 81.429688 160.808594 81.824219 160.71875 82.253906 C 160.671875 82.464844 160.640625 82.679688 160.660156 82.898438 C 160.679688 83.117188 160.722656 83.332031 160.761719 83.542969 C 160.789062 83.753906 160.839844 83.964844 160.921875 84.171875 C 160.957031 84.273438 161.023438 84.371094 161.085938 84.46875 L 161.1875 84.613281 C 161.210938 84.660156 161.316406 84.699219 161.730469 84.695312 Z M 161.96875 75.734375 L 162.015625 76.089844 C 162.023438 76.203125 162.101562 76.328125 162.507812 76.464844 C 162.9375 76.378906 163.039062 76.285156 163.070312 76.183594 L 163.191406 75.882812 C 163.269531 75.683594 163.328125 75.484375 163.414062 75.292969 C 163.496094 75.101562 163.5625 74.910156 163.621094 74.714844 C 163.671875 74.519531 163.777344 74.339844 163.847656 74.152344 C 164.152344 73.402344 164.601562 72.75 164.976562 72.054688 C 165.375 71.371094 165.777344 70.65625 166.324219 70.03125 C 166.460938 69.875 166.609375 69.730469 166.757812 69.589844 L 167.230469 69.191406 C 167.390625 69.058594 167.542969 68.917969 167.695312 68.769531 L 167.917969 68.542969 C 167.996094 68.464844 168.03125 68.339844 167.964844 67.960938 C 167.835938 67.824219 167.726562 67.742188 167.644531 67.710938 C 167.554688 67.671875 167.488281 67.671875 167.433594 67.691406 C 167.316406 67.726562 167.203125 67.761719 167.089844 67.808594 C 166.867188 67.890625 166.660156 68.003906 166.460938 68.125 C 166.261719 68.246094 166.078125 68.394531 165.886719 68.527344 C 165.707031 68.675781 165.515625 68.8125 165.328125 68.953125 C 164.578125 69.519531 163.835938 70.15625 163.285156 70.957031 L 163.074219 71.253906 C 163.011719 71.355469 162.949219 71.460938 162.894531 71.566406 C 162.777344 71.78125 162.664062 71.992188 162.574219 72.21875 C 162.410156 72.679688 162.25 73.132812 162.152344 73.605469 C 162.027344 74.070312 161.960938 74.542969 161.933594 75.019531 C 161.910156 75.253906 161.945312 75.496094 161.96875 75.734375 Z M 146.742188 127.179688 C 145.894531 126.628906 144.925781 125.816406 143.976562 124.867188 C 143.796875 124.683594 143.617188 124.5 143.4375 124.308594 C 143.261719 124.121094 143.085938 123.929688 142.914062 123.738281 C 140.96875 121.542969 139.335938 118.960938 139.320312 117.207031 C 139.292969 113.59375 144.800781 110.6875 149.425781 108.882812 C 150.746094 108.371094 152.078125 107.914062 153.34375 107.519531 C 153.621094 107.429688 153.894531 107.347656 154.164062 107.265625 C 154.441406 107.183594 154.710938 107.105469 154.976562 107.027344 C 157.9375 106.175781 160.253906 105.707031 160.675781 105.65625 C 160.921875 105.667969 161.167969 105.546875 161.308594 105.328125 C 161.523438 104.992188 161.429688 104.546875 161.09375 104.328125 C 160.839844 104.164062 160.769531 104.121094 158.875 104.539062 C 158.09375 104.710938 156.886719 104.996094 155.394531 105.410156 C 156.148438 102.300781 156.539062 99.621094 156.761719 96.605469 C 156.957031 94.011719 157.101562 91.761719 157.230469 89.773438 C 157.785156 81.269531 158.011719 77.746094 160.230469 72.824219 C 162.828125 67.058594 167.925781 63.671875 175.382812 62.761719 C 176.757812 62.59375 178.097656 62.527344 179.332031 62.527344 C 179.363281 62.527344 179.394531 62.527344 179.425781 62.527344 C 171.0625 65.015625 167.691406 73.214844 168.828125 88.292969 C 168.898438 89.25 168.980469 90.203125 169.0625 91.167969 C 169.695312 98.683594 170.347656 106.421875 167.464844 119.597656 C 160.78125 116.777344 155.933594 118.984375 154.4375 119.84375 C 153.476562 119.160156 152.230469 118.855469 151.132812 118.777344 C 151.703125 117.191406 152.21875 115.738281 152.683594 114.382812 C 155.148438 113.5625 158.128906 112.894531 160.585938 112.523438 C 160.980469 112.464844 161.253906 112.097656 161.191406 111.703125 C 161.140625 111.351562 160.84375 111.097656 160.5 111.089844 C 160.457031 111.085938 160.414062 111.089844 160.371094 111.09375 C 159.28125 111.257812 156.238281 111.761719 153.265625 112.65625 C 152.980469 112.742188 152.695312 112.832031 152.414062 112.925781 C 152.121094 113.019531 151.835938 113.121094 151.550781 113.222656 C 148.59375 114.308594 146.125 115.820312 146.359375 117.820312 C 146.429688 118.40625 146.71875 119.023438 147.128906 119.648438 C 147.257812 119.847656 147.398438 120.046875 147.546875 120.246094 C 147.695312 120.441406 147.847656 120.636719 148.003906 120.832031 C 148.195312 121.066406 148.390625 121.300781 148.589844 121.535156 C 148.703125 121.667969 148.816406 121.800781 148.925781 121.929688 C 148.996094 122.011719 149.0625 122.089844 149.132812 122.167969 C 149.316406 122.386719 149.496094 122.601562 149.667969 122.808594 C 149.953125 123.15625 150.214844 123.488281 150.421875 123.796875 C 151.222656 124.992188 151.269531 126.050781 150.558594 126.851562 C 149.960938 127.527344 148.929688 127.882812 148.078125 127.777344 C 147.855469 127.75 147.644531 127.695312 147.460938 127.601562 C 147.4375 127.589844 147.414062 127.574219 147.390625 127.5625 C 147.183594 127.453125 146.964844 127.328125 146.742188 127.179688 Z M 192.914062 103.722656 C 192.609375 103.328125 192.308594 102.976562 192.007812 102.664062 C 189.949219 100.503906 188.0625 100.15625 186.957031 100.191406 C 187.042969 100.363281 187.128906 100.535156 187.207031 100.710938 C 187.480469 101.335938 187.726562 101.964844 187.867188 102.625 C 187.914062 102.84375 187.777344 103.058594 187.558594 103.105469 C 187.386719 103.140625 187.214844 103.0625 187.128906 102.917969 L 187.125 102.910156 C 186.957031 102.632812 186.808594 102.351562 186.648438 102.078125 C 186.496094 101.804688 186.335938 101.53125 186.164062 101.269531 C 185.992188 101.007812 185.816406 100.753906 185.632812 100.511719 C 185.539062 100.390625 185.445312 100.269531 185.347656 100.15625 C 185.257812 100.050781 185.144531 99.921875 185.074219 99.859375 C 185.035156 99.824219 185 99.78125 184.972656 99.738281 C 177.175781 94.988281 176.089844 100.96875 176.089844 100.96875 C 176.804688 102.160156 177.714844 103.117188 178.746094 103.886719 C 178.78125 103.910156 178.816406 103.9375 178.851562 103.960938 C 178.882812 103.988281 178.917969 104.011719 178.953125 104.035156 C 183.25 107.078125 189.511719 106.941406 192.65625 106.632812 C 192.917969 106.609375 193.160156 106.582031 193.375 106.554688 C 193.660156 106.519531 193.898438 106.484375 194.089844 106.457031 C 194.425781 106.40625 194.609375 106.371094 194.609375 106.371094 C 194.363281 105.914062 194.117188 105.488281 193.871094 105.09375 C 193.550781 104.585938 193.230469 104.132812 192.914062 103.722656 Z M 195.8125 88.710938 L 195.832031 88.585938 C 195.847656 88.492188 195.859375 88.386719 195.84375 88.277344 C 195.832031 88.164062 195.824219 88.058594 195.785156 87.949219 C 195.742188 87.839844 195.6875 87.730469 195.628906 87.628906 C 195.492188 87.425781 195.3125 87.246094 195.097656 87.125 C 194.886719 87.007812 194.667969 86.933594 194.464844 86.890625 C 194.332031 86.867188 194.207031 86.832031 194.085938 86.8125 C 194.023438 86.800781 193.960938 86.789062 193.898438 86.789062 C 193.804688 86.785156 193.710938 86.800781 193.621094 86.839844 C 193.574219 86.859375 193.527344 86.890625 193.488281 86.914062 C 193.464844 86.921875 193.441406 86.957031 193.417969 87.03125 L 193.390625 87.171875 C 193.382812 87.242188 193.375 87.324219 193.375 87.402344 C 193.386719 87.476562 193.394531 87.5625 193.40625 87.628906 L 193.425781 87.769531 C 193.441406 87.84375 193.449219 87.878906 193.460938 87.890625 L 193.527344 87.972656 C 193.570312 88.023438 193.609375 88.054688 193.648438 88.078125 C 193.730469 88.121094 193.808594 88.144531 193.847656 88.21875 C 193.886719 88.292969 193.898438 88.367188 193.882812 88.433594 C 193.867188 88.492188 193.839844 88.535156 193.839844 88.5625 C 193.832031 88.585938 193.828125 88.601562 193.839844 88.613281 C 193.84375 88.632812 193.855469 88.660156 193.875 88.679688 L 193.914062 88.710938 L 193.945312 88.761719 C 193.96875 88.796875 193.992188 88.835938 194.011719 88.875 C 194.039062 88.96875 194.0625 89.0625 194.125 89.175781 C 194.148438 89.230469 194.1875 89.292969 194.226562 89.359375 L 194.296875 89.464844 C 194.308594 89.496094 194.402344 89.542969 194.792969 89.671875 C 195.203125 89.738281 195.308594 89.71875 195.332031 89.6875 L 195.4375 89.589844 C 195.503906 89.523438 195.566406 89.457031 195.617188 89.382812 C 195.707031 89.226562 195.746094 89.054688 195.792969 88.878906 Z M 196.675781 88.050781 C 196.734375 88.359375 196.722656 88.667969 196.648438 88.957031 C 196.519531 89.472656 196.195312 89.945312 195.695312 90.296875 C 194.808594 90.929688 193.230469 91.234375 191.445312 90.210938 C 191.4375 90.207031 191.429688 90.203125 191.421875 90.199219 C 191.351562 90.160156 191.277344 90.144531 191.203125 90.144531 L 189.804688 88.734375 L 191.195312 87.1875 C 191.351562 87.1875 191.5 87.105469 191.578125 86.960938 C 191.90625 86.339844 192.765625 85.917969 193.699219 85.859375 C 193.941406 85.84375 194.1875 85.851562 194.433594 85.886719 C 195.132812 85.992188 196.359375 86.410156 196.675781 88.050781 Z M 169.949219 172.789062 C 169.953125 172.839844 169.960938 172.890625 169.972656 172.941406 C 169.972656 172.96875 169.996094 173 170.054688 173.050781 L 170.171875 173.140625 L 170.363281 173.265625 L 170.585938 173.324219 L 170.730469 173.347656 C 170.808594 173.355469 170.851562 173.347656 170.871094 173.328125 C 170.917969 173.292969 170.960938 173.257812 171 173.222656 C 171.082031 173.148438 171.144531 173.066406 171.195312 172.980469 C 171.289062 172.804688 171.355469 172.617188 171.464844 172.449219 C 171.679688 172.105469 171.9375 171.761719 172.070312 171.382812 C 172.144531 171.191406 172.1875 170.992188 172.203125 170.789062 C 172.210938 170.585938 172.207031 170.378906 172.203125 170.171875 C 172.199219 169.96875 172.199219 169.765625 172.148438 169.554688 C 172.128906 169.453125 172.089844 169.347656 172.042969 169.242188 L 171.96875 169.089844 C 171.957031 169.039062 171.859375 168.980469 171.453125 168.90625 C 171.039062 168.929688 170.933594 168.964844 170.914062 169.007812 L 170.816406 169.132812 C 170.757812 169.21875 170.699219 169.300781 170.65625 169.382812 C 170.5625 169.550781 170.511719 169.714844 170.445312 169.882812 C 170.386719 170.050781 170.300781 170.210938 170.238281 170.375 C 170.167969 170.539062 170.136719 170.707031 170.113281 170.882812 C 170.058594 171.226562 170.105469 171.609375 170.078125 171.976562 C 170.066406 172.164062 170.003906 172.332031 169.964844 172.507812 C 169.945312 172.597656 169.941406 172.691406 169.949219 172.789062 Z M 185.390625 164.183594 C 182.324219 164.09375 179.328125 163.828125 176.589844 163.421875 C 176.710938 161.875 176.710938 160.867188 176.710938 160.730469 C 176.707031 160.335938 176.386719 160.015625 175.988281 160.015625 C 175.984375 160.015625 175.984375 160.015625 175.984375 160.015625 C 175.703125 160.015625 175.464844 160.175781 175.347656 160.410156 C 175.296875 160.507812 175.265625 160.621094 175.265625 160.738281 C 175.265625 160.773438 175.265625 161.703125 175.144531 163.191406 C 175.125 163.417969 175.105469 163.660156 175.082031 163.914062 C 175.058594 164.140625 175.035156 164.378906 175.007812 164.628906 C 174.695312 167.4375 174.003906 171.390625 172.476562 175.1875 C 172.40625 175.367188 172.332031 175.542969 172.257812 175.722656 C 172.183594 175.898438 172.105469 176.078125 172.027344 176.253906 C 171.429688 177.585938 170.722656 178.882812 169.882812 180.085938 C 169.246094 180.1875 167.460938 180.34375 165.695312 179.363281 C 166.082031 178.613281 166.761719 177.199219 167.5 175.265625 C 167.570312 175.078125 167.644531 174.882812 167.714844 174.6875 C 167.785156 174.503906 167.851562 174.3125 167.921875 174.117188 C 168.894531 171.367188 169.898438 167.78125 170.425781 163.640625 C 170.457031 163.402344 170.484375 163.160156 170.511719 162.917969 C 170.539062 162.675781 170.5625 162.433594 170.585938 162.1875 C 170.714844 160.875 170.789062 159.507812 170.804688 158.101562 C 170.804688 157.980469 170.804688 157.859375 170.804688 157.738281 C 170.804688 157.339844 170.484375 157.015625 170.082031 157.015625 C 169.683594 157.015625 169.359375 157.339844 169.359375 157.738281 C 169.359375 159.121094 169.292969 160.464844 169.171875 161.765625 C 158.726562 158.367188 151.832031 153.375 148.683594 146.921875 C 147.125 143.726562 146.566406 140.386719 146.609375 137.101562 C 146.957031 138.648438 147.917969 139.882812 148.421875 140.449219 C 147.589844 143.335938 147.816406 145.640625 149.09375 147.304688 C 151.058594 149.859375 155.007812 150.277344 158.003906 150.277344 C 158.886719 150.277344 159.683594 150.242188 160.324219 150.214844 L 160.488281 150.207031 C 163.601562 150.066406 165.945312 149.316406 167.480469 147.976562 C 168.859375 151.410156 170.808594 154.628906 173.410156 157.320312 C 176.03125 160.035156 179.898438 162.808594 185.390625 164.183594 Z M 204.941406 171.132812 L 204.835938 171.226562 C 204.777344 171.289062 204.714844 171.351562 204.667969 171.414062 C 204.570312 171.539062 204.503906 171.671875 204.4375 171.800781 C 204.367188 171.929688 204.28125 172.054688 204.207031 172.183594 C 204.132812 172.308594 204.089844 172.449219 204.0625 172.589844 C 203.992188 172.878906 204.019531 173.207031 203.976562 173.523438 C 203.960938 173.683594 203.894531 173.816406 203.851562 173.964844 C 203.832031 174.039062 203.820312 174.121094 203.824219 174.207031 L 203.84375 174.34375 C 203.84375 174.367188 203.867188 174.402344 203.921875 174.453125 L 204.03125 174.546875 L 204.214844 174.683594 L 204.429688 174.765625 L 204.566406 174.808594 C 204.640625 174.824219 204.6875 174.824219 204.703125 174.808594 C 204.746094 174.785156 204.792969 174.761719 204.832031 174.734375 C 204.914062 174.679688 204.976562 174.621094 205.027344 174.550781 C 205.128906 174.414062 205.195312 174.261719 205.3125 174.128906 C 205.535156 173.859375 205.804688 173.601562 205.957031 173.285156 C 206.035156 173.132812 206.097656 172.964844 206.121094 172.789062 C 206.144531 172.613281 206.144531 172.429688 206.160156 172.25 C 206.167969 172.070312 206.179688 171.894531 206.144531 171.703125 C 206.125 171.609375 206.09375 171.515625 206.054688 171.421875 L 205.988281 171.277344 C 205.976562 171.234375 205.882812 171.175781 205.480469 171.085938 C 205.066406 171.078125 204.960938 171.097656 204.941406 171.132812 Z M 205.242188 163.210938 C 206.683594 162.789062 208.21875 162.25 209.789062 161.574219 C 209.578125 165.28125 208.78125 170.789062 206.261719 176.421875 C 206.183594 176.597656 206.105469 176.769531 206.023438 176.945312 C 205.941406 177.121094 205.859375 177.292969 205.777344 177.464844 C 205.15625 178.742188 204.449219 180.019531 203.632812 181.277344 C 202.984375 181.375 201.230469 181.515625 199.5 180.574219 C 199.953125 179.816406 200.742188 178.410156 201.601562 176.492188 C 201.683594 176.308594 201.765625 176.121094 201.847656 175.929688 C 201.929688 175.746094 202.007812 175.558594 202.085938 175.367188 C 203.378906 172.253906 204.714844 168.066406 205.242188 163.210938 Z M 230.632812 110.914062 C 230.019531 110.605469 229.355469 110.316406 228.632812 110.046875 C 225.851562 109.003906 223.527344 108.945312 221.730469 109.871094 C 221.550781 109.960938 221.390625 110.0625 221.234375 110.164062 C 220.621094 109.152344 219.992188 108.140625 219.359375 107.121094 C 218.628906 105.945312 217.875 104.730469 217.132812 103.503906 C 223.089844 103.738281 229.707031 104.851562 230.488281 108.78125 C 230.628906 109.484375 230.660156 110.203125 230.632812 110.914062 " fill-opacity="1" fill-rule="nonzero"/><path fill="#f4e038" d="M 214.988281 142.734375 C 211.425781 147.335938 206.585938 148.738281 204.667969 149.128906 C 203.460938 149.375 202.28125 149.558594 201.136719 149.6875 C 200.894531 149.714844 200.65625 149.738281 200.417969 149.757812 C 200.171875 149.78125 199.933594 149.800781 199.695312 149.816406 C 198.941406 149.871094 198.207031 149.898438 197.488281 149.898438 C 192.554688 149.898438 188.398438 148.660156 185.257812 146.210938 C 181.800781 143.519531 179.617188 139.335938 179.414062 135.027344 C 178.695312 119.574219 187.027344 112.863281 193.347656 110.878906 C 193.585938 110.804688 193.816406 110.738281 194.046875 110.675781 C 194.285156 110.613281 194.523438 110.558594 194.753906 110.507812 C 195.011719 110.453125 195.269531 110.402344 195.515625 110.363281 C 202.167969 109.296875 207.925781 110.640625 212.175781 114.246094 C 213.425781 115.308594 214.539062 116.574219 215.46875 117.953125 C 215.617188 118.171875 215.761719 118.398438 215.902344 118.625 C 216.042969 118.855469 216.183594 119.09375 216.3125 119.328125 C 217.257812 121.023438 217.9375 122.847656 218.261719 124.667969 C 219.121094 129.464844 218.964844 133.691406 217.816406 137.304688 C 217.742188 137.535156 217.667969 137.769531 217.585938 137.996094 C 217.503906 138.222656 217.410156 138.441406 217.320312 138.664062 C 216.722656 140.132812 215.949219 141.496094 214.988281 142.734375 Z M 181.71875 155.980469 C 181.429688 156.289062 181.3125 156.320312 181.234375 156.292969 L 180.984375 156.230469 C 180.824219 156.183594 180.65625 156.140625 180.507812 156.066406 C 180.207031 155.929688 179.921875 155.761719 179.648438 155.578125 C 179.367188 155.402344 179.09375 155.21875 178.824219 155.023438 C 178.558594 154.824219 178.332031 154.585938 178.113281 154.335938 C 177.671875 153.84375 177.359375 153.238281 177.039062 152.667969 C 176.878906 152.382812 176.691406 152.117188 176.53125 151.828125 C 176.453125 151.683594 176.390625 151.53125 176.34375 151.367188 C 176.320312 151.285156 176.304688 151.203125 176.289062 151.117188 C 176.277344 151.074219 176.285156 151.023438 176.332031 150.949219 C 176.371094 150.882812 176.457031 150.785156 176.601562 150.667969 C 176.78125 150.621094 176.90625 150.59375 176.980469 150.59375 C 177.066406 150.589844 177.109375 150.605469 177.136719 150.632812 C 177.199219 150.679688 177.261719 150.730469 177.316406 150.78125 C 177.429688 150.882812 177.539062 150.988281 177.628906 151.105469 C 177.816406 151.335938 177.984375 151.578125 178.203125 151.78125 C 178.636719 152.195312 179.128906 152.542969 179.5625 152.929688 L 179.882812 153.226562 C 179.988281 153.324219 180.082031 153.4375 180.183594 153.542969 C 180.28125 153.648438 180.375 153.765625 180.472656 153.875 C 180.566406 153.988281 180.671875 154.089844 180.773438 154.199219 C 180.972656 154.417969 181.195312 154.609375 181.390625 154.847656 C 181.484375 154.964844 181.582031 155.082031 181.675781 155.210938 L 181.8125 155.40625 C 181.867188 155.464844 181.878906 155.582031 181.71875 155.980469 Z M 174.480469 95.558594 C 174.875 94.847656 175.738281 94 177.59375 94 C 178.742188 94 180.175781 94.328125 181.855469 94.980469 L 181.871094 94.988281 C 183.902344 95.773438 186.207031 96.664062 190.046875 96.664062 C 190.363281 96.664062 190.695312 96.65625 191.027344 96.644531 C 191.195312 96.636719 191.363281 96.632812 191.535156 96.625 C 191.601562 96.621094 191.679688 96.613281 191.753906 96.609375 C 191.972656 96.59375 192.210938 96.570312 192.476562 96.546875 C 192.71875 96.523438 192.976562 96.5 193.25 96.46875 C 194.53125 96.339844 196.128906 96.175781 197.636719 96.175781 C 198.84375 96.175781 202.523438 96.175781 203.328125 98.664062 C 203.765625 100.019531 203.539062 101.5 202.695312 102.832031 C 201.265625 105.089844 198.277344 106.679688 194.238281 107.351562 C 194.003906 107.390625 193.765625 107.425781 193.523438 107.457031 C 193.488281 107.460938 193.449219 107.46875 193.414062 107.472656 C 193.210938 107.5 193.007812 107.519531 192.804688 107.542969 C 191.679688 107.667969 190.546875 107.734375 189.429688 107.734375 C 184.789062 107.734375 178.578125 106.640625 175.351562 101.425781 C 174.347656 99.800781 173.515625 97.289062 174.480469 95.558594 Z M 174.257812 76.710938 C 174.609375 75.484375 175.65625 74.589844 176.925781 74.433594 C 178.195312 74.277344 179.425781 74.890625 180.0625 75.996094 C 180.183594 76.203125 180.113281 76.46875 179.90625 76.589844 C 179.699219 76.707031 179.433594 76.636719 179.316406 76.429688 C 178.847656 75.625 177.953125 75.179688 177.03125 75.292969 C 176.109375 75.40625 175.347656 76.054688 175.089844 76.949219 C 175.035156 77.140625 174.863281 77.261719 174.675781 77.261719 C 174.636719 77.261719 174.59375 77.257812 174.554688 77.246094 C 174.324219 77.179688 174.191406 76.9375 174.257812 76.710938 Z M 181.351562 85.328125 L 178.613281 86.59375 L 181.605469 86.773438 C 181.757812 88.972656 180.84375 90.851562 179.398438 91.128906 C 177.796875 91.433594 176.144531 89.648438 175.710938 87.148438 C 175.273438 84.644531 176.222656 82.367188 177.824219 82.0625 C 179.273438 81.785156 180.757812 83.207031 181.351562 85.328125 Z M 191.199219 88.710938 L 191.195312 87.1875 C 191.128906 87.1875 191.058594 87.171875 190.992188 87.140625 C 190.972656 87.128906 190.953125 87.117188 190.9375 87.105469 C 190.769531 86.976562 190.710938 86.746094 190.8125 86.554688 C 190.820312 86.539062 190.832031 86.523438 190.839844 86.507812 C 191.304688 85.683594 192.34375 85.125 193.492188 85.007812 C 193.488281 84.988281 193.484375 84.972656 193.480469 84.953125 C 193.046875 82.449219 193.996094 80.171875 195.597656 79.867188 C 197.042969 79.59375 198.527344 81.015625 199.125 83.132812 L 196.382812 84.402344 L 199.375 84.578125 C 199.515625 86.578125 198.773438 88.304688 197.554688 88.8125 C 197.449219 89.664062 196.96875 90.453125 196.199219 91.003906 C 195.597656 91.429688 194.75 91.746094 193.757812 91.746094 C 193.097656 91.746094 192.375 91.605469 191.617188 91.269531 C 191.410156 91.175781 191.199219 91.074219 190.988281 90.949219 C 190.890625 90.894531 190.824219 90.808594 190.792969 90.710938 C 190.78125 90.667969 190.773438 90.621094 190.773438 90.578125 C 190.769531 90.503906 190.789062 90.425781 190.828125 90.359375 C 190.910156 90.21875 191.054688 90.144531 191.203125 90.144531 Z M 191.714844 75.195312 C 192.070312 73.96875 193.117188 73.078125 194.382812 72.921875 C 195.652344 72.765625 196.882812 73.378906 197.523438 74.484375 C 197.644531 74.691406 197.574219 74.957031 197.367188 75.078125 C 197.15625 75.195312 196.894531 75.125 196.773438 74.917969 C 196.308594 74.113281 195.410156 73.667969 194.488281 73.78125 C 193.570312 73.894531 192.808594 74.542969 192.550781 75.4375 C 192.496094 75.625 192.320312 75.75 192.132812 75.75 C 192.09375 75.75 192.054688 75.746094 192.011719 75.734375 C 191.78125 75.667969 191.652344 75.425781 191.714844 75.195312 Z M 227.1875 129.015625 C 226.632812 123.378906 224.367188 118.429688 221.546875 113.519531 C 221.34375 113.167969 221.136719 112.816406 220.925781 112.460938 C 220.808594 112.257812 220.6875 112.054688 220.566406 111.851562 C 220.550781 111.832031 220.539062 111.808594 220.527344 111.789062 C 220.398438 111.570312 220.265625 111.351562 220.132812 111.132812 C 219.933594 110.800781 219.726562 110.46875 219.523438 110.136719 C 219.066406 109.386719 218.597656 108.636719 218.128906 107.882812 C 217.367188 106.652344 216.574219 105.378906 215.800781 104.09375 C 215.675781 103.882812 215.550781 103.675781 215.425781 103.460938 C 215.285156 103.21875 215.148438 102.972656 215.007812 102.726562 C 214.875 102.484375 214.742188 102.238281 214.609375 101.992188 C 212.949219 98.90625 211.367188 95.273438 209.324219 90.589844 C 208.148438 87.890625 206.816406 84.835938 205.246094 81.378906 C 202.367188 75.03125 199.304688 70.484375 195.886719 67.472656 C 193.140625 65.050781 190.214844 63.648438 187.050781 63.242188 C 186.800781 63.210938 186.554688 63.183594 186.304688 63.164062 C 186.0625 63.144531 185.816406 63.132812 185.566406 63.125 C 185.40625 63.121094 185.25 63.113281 185.09375 63.113281 C 183.511719 63.113281 181.875 63.347656 180.175781 63.8125 C 175.234375 65.160156 168.832031 69.152344 170.269531 88.1875 C 170.339844 89.136719 170.421875 90.089844 170.5 91.046875 C 171.121094 98.378906 171.8125 106.566406 168.804688 120.21875 C 169.042969 120.339844 169.28125 120.464844 169.519531 120.597656 C 170.878906 121.351562 174.476562 123.980469 174.777344 127.082031 C 174.910156 128.457031 174.402344 129.703125 173.257812 130.792969 C 174.007812 133.972656 174.015625 139.699219 169.402344 141.832031 C 169.601562 142.859375 169.765625 144.910156 168.546875 146.761719 C 169.871094 150.277344 171.808594 153.585938 174.449219 156.316406 C 180.851562 162.945312 190.289062 165.113281 201.777344 162.605469 C 201.996094 162.558594 202.214844 162.511719 202.4375 162.460938 C 202.453125 162.457031 202.46875 162.453125 202.484375 162.449219 C 202.703125 162.398438 202.9375 162.339844 203.1875 162.277344 C 203.414062 162.21875 203.648438 162.15625 203.894531 162.089844 C 204.132812 162.023438 204.378906 161.953125 204.636719 161.875 C 204.878906 161.804688 205.125 161.726562 205.382812 161.644531 C 206.710938 161.222656 208.238281 160.660156 209.851562 159.921875 C 210.09375 159.808594 210.339844 159.691406 210.585938 159.574219 C 210.828125 159.457031 211.074219 159.335938 211.316406 159.210938 C 217.199219 156.207031 223.796875 150.847656 226.328125 141.5 C 226.390625 141.265625 226.449219 141.027344 226.507812 140.789062 C 226.566406 140.554688 226.621094 140.316406 226.671875 140.074219 C 227.371094 136.851562 227.605469 133.183594 227.1875 129.015625 " fill-opacity="1" fill-rule="nonzero"/><path stroke-linecap="butt" transform="matrix(0.75, 0, 0, 0.75, 260.641775, 203.264341)" fill="none" stroke-linejoin="miter" d="M -0.00153385 0.501712 L 56.451595 0.501712 " stroke="#ffffff" stroke-width="1" stroke-opacity="1" stroke-miterlimit="4"/><path stroke-linecap="butt" transform="matrix(0.75, 0, 0, 0.75, 72.020287, 174.746869)" fill="none" stroke-linejoin="miter" d="M -0.00100763 0.498967 L 41.35837 0.498967 " stroke="#ffffff" stroke-width="1" stroke-opacity="1" stroke-miterlimit="4"/><path stroke-linecap="butt" transform="matrix(0.75, 0, 0, 0.75, 72.020287, 204.199645)" fill="none" stroke-linejoin="miter" d="M -0.00100763 0.499432 L 41.35837 0.499432 " stroke="#ffffff" stroke-width="1" stroke-opacity="1" stroke-miterlimit="4"/><path stroke-linecap="butt" transform="matrix(0.75, 0, 0, 0.75, 260.641775, 174.746869)" fill="none" stroke-linejoin="miter" d="M -0.00153385 0.498967 L 56.451595 0.498967 " stroke="#ffffff" stroke-width="1" stroke-opacity="1" stroke-miterlimit="4"/><g fill="#ffffff" fill-opacity="1"><g transform="translate(72.020287, 193.422376)"><g><path d="M 6.171875 0 L 6.171875 -1.960938 L 3.058594 -1.960938 L 3.058594 -3.921875 L 5.636719 -3.921875 L 5.636719 -5.882812 L 3.058594 -5.882812 L 3.058594 -7.84375 L 6.003906 -7.84375 L 6.003906 -9.804688 L 1.097656 -9.804688 L 1.097656 0 Z M 6.171875 0 "/></g></g></g><g fill="#ffffff" fill-opacity="1"><g transform="translate(81.52168, 193.422376)"><g><path d="M 0.644531 -0.628906 C 1.972656 0.0546875 3.195312 0.125 3.742188 0.0820312 C 5.582031 -0.015625 6.703125 -1.261719 6.703125 -2.894531 C 6.703125 -4.457031 5.386719 -5.332031 3.867188 -5.894531 C 3.304688 -6.085938 2.824219 -6.335938 2.769531 -6.882812 C 2.730469 -7.429688 3.042969 -7.9375 3.742188 -7.980469 C 4.042969 -7.992188 4.660156 -8.007812 5.746094 -7.570312 L 5.992188 -9.460938 C 4.730469 -9.898438 4.058594 -9.898438 3.550781 -9.871094 C 1.917969 -9.789062 0.78125 -8.527344 0.78125 -6.882812 C 0.78125 -5.238281 2.152344 -4.457031 3.6875 -3.894531 C 4.238281 -3.703125 4.660156 -3.457031 4.703125 -2.894531 C 4.757812 -2.359375 4.265625 -1.945312 3.6875 -1.90625 C 3.234375 -1.863281 2.015625 -1.890625 0.890625 -2.6875 Z M 0.644531 -0.628906 "/></g></g></g><g fill="#ffffff" fill-opacity="1"><g transform="translate(91.365772, 193.422376)"><g><path d="M 4.675781 0 L 4.675781 -7.84375 L 7.117188 -7.84375 L 7.117188 -9.789062 L 0.273438 -9.789062 L 0.273438 -7.84375 L 2.714844 -7.84375 L 2.714844 0 Z M 4.675781 0 "/></g></g></g><g fill="#ffffff" fill-opacity="1"><g transform="translate(101.456602, 193.422376)"><g><path d="M 1.507812 -2.113281 C 0.0273438 -2.113281 0.0273438 0.0976562 1.507812 0.0976562 C 2.976562 0.0976562 3.015625 -2.113281 1.507812 -2.113281 Z M 1.507812 -2.113281 "/></g></g></g><g fill="#ffffff" fill-opacity="1"><g transform="translate(265.321821, 193.890026)"><g><path d="M 3.742188 -5.8125 L 0.0820312 0 L 6.554688 0 L 6.554688 -1.988281 L 3.648438 -1.988281 L 5.582031 -4.976562 C 7.226562 -7.265625 6.265625 -9.789062 3.386719 -9.941406 C 2.425781 -9.980469 1.234375 -9.597656 0.480469 -9.050781 L 0.960938 -7.15625 C 1.273438 -7.429688 2.359375 -7.992188 3.222656 -7.9375 C 3.796875 -7.910156 4.238281 -7.5 4.238281 -6.953125 C 4.238281 -6.953125 4.265625 -6.554688 3.742188 -5.8125 Z M 3.742188 -5.8125 "/></g></g></g><g fill="#ffffff" fill-opacity="1"><g transform="translate(275.056252, 193.890026)"><g><path d="M 4.074219 0.136719 C 6.511719 0.136719 7.445312 -2.125 7.445312 -4.910156 C 7.445312 -7.691406 6.511719 -9.941406 4.074219 -9.941406 C 1.660156 -9.941406 0.714844 -7.691406 0.714844 -4.910156 C 0.714844 -2.125 1.660156 0.136719 4.074219 0.136719 Z M 4.074219 -1.714844 C 2.988281 -1.714844 2.617188 -3.140625 2.617188 -4.910156 C 2.617188 -6.664062 2.988281 -8.101562 4.074219 -8.101562 C 5.183594 -8.101562 5.554688 -6.664062 5.554688 -4.910156 C 5.554688 -3.140625 5.183594 -1.714844 4.074219 -1.714844 Z M 4.074219 -1.714844 "/></g></g></g><g fill="#ffffff" fill-opacity="1"><g transform="translate(285.832479, 193.890026)"><g><path d="M 3.742188 -5.8125 L 0.0820312 0 L 6.554688 0 L 6.554688 -1.988281 L 3.648438 -1.988281 L 5.582031 -4.976562 C 7.226562 -7.265625 6.265625 -9.789062 3.386719 -9.941406 C 2.425781 -9.980469 1.234375 -9.597656 0.480469 -9.050781 L 0.960938 -7.15625 C 1.273438 -7.429688 2.359375 -7.992188 3.222656 -7.9375 C 3.796875 -7.910156 4.238281 -7.5 4.238281 -6.953125 C 4.238281 -6.953125 4.265625 -6.554688 3.742188 -5.8125 Z M 3.742188 -5.8125 "/></g></g></g><g fill="#ffffff" fill-opacity="1"><g transform="translate(295.56691, 193.890026)"><g><path d="M 5.992188 -0.015625 L 5.992188 -2.46875 L 7.0625 -2.46875 L 7.0625 -4.429688 L 5.992188 -4.429688 L 5.992188 -7.402344 L 4.03125 -6.085938 L 4.03125 -4.429688 L 2.785156 -4.429688 L 4.785156 -9.804688 L 2.730469 -9.804688 L -0.0546875 -2.46875 L 4.03125 -2.46875 L 4.03125 -0.015625 Z M 5.992188 -0.015625 "/></g></g></g><g fill="#ffffff" fill-opacity="1"><g transform="translate(60.972657, 257.147122)"><g><path d="M 12.074219 0.605469 L 13.082031 0.605469 L 18.332031 -12.316406 L 23.621094 0.484375 L 24.671875 0.484375 L 36.464844 -28.871094 L 29.960938 -28.871094 L 24.148438 -14.132812 L 18.492188 -28.589844 L 18.210938 -28.589844 L 12.558594 -14.132812 L 6.742188 -28.871094 L 0.242188 -28.871094 Z M 12.074219 0.605469 "/></g></g></g><g fill="#ffffff" fill-opacity="1"><g transform="translate(97.710432, 257.147122)"><g/></g></g><g fill="#ffffff" fill-opacity="1"><g transform="translate(109.175844, 257.147122)"><g><path d="M 20.230469 0 L 20.230469 -5.816406 L 9.488281 -5.816406 L 19.90625 -28.871094 L 2.421875 -28.871094 L 2.421875 -23.257812 L 11.304688 -23.257812 C 7.832031 -15.546875 4.359375 -7.753906 0.886719 0 Z M 20.230469 0 "/></g></g></g><g fill="#ffffff" fill-opacity="1"><g transform="translate(130.774426, 257.147122)"><g><path d="M 11.832031 -28.871094 L 3.230469 -28.871094 L 3.230469 0 L 11.832031 0 C 31.050781 0 31.050781 -28.871094 11.832031 -28.871094 Z M 11.832031 -23.097656 C 23.058594 -23.097656 23.058594 -5.773438 11.832031 -5.773438 L 9.003906 -5.773438 L 9.003906 -23.097656 Z M 11.832031 -23.097656 "/></g></g></g><g fill="#ffffff" fill-opacity="1"><g transform="translate(159.195734, 257.147122)"><g><path d="M 17.605469 0 L 24.148438 0 L 17.445312 -11.910156 C 25.925781 -14.375 24.914062 -28.871094 14.617188 -28.871094 L 3.230469 -28.871094 L 3.230469 0 L 9.003906 0 L 9.003906 -11.023438 L 11.789062 -11.023438 Z M 9.003906 -16.636719 L 9.003906 -23.097656 L 14.09375 -23.097656 C 18.007812 -23.097656 18.007812 -16.636719 14.09375 -16.636719 Z M 9.003906 -16.636719 "/></g></g></g><g fill="#ffffff" fill-opacity="1"><g transform="translate(183.943261, 257.147122)"><g><path d="M 17.121094 0.402344 C 36.988281 0.402344 36.988281 -29.355469 17.121094 -29.355469 C -2.746094 -29.355469 -2.746094 0.402344 17.121094 0.402344 Z M 17.121094 -5.574219 C 5.574219 -5.574219 5.574219 -23.421875 17.121094 -23.421875 C 28.667969 -23.421875 28.667969 -5.574219 17.121094 -5.574219 Z M 17.121094 -5.574219 "/></g></g></g><g fill="#ffffff" fill-opacity="1"><g transform="translate(218.137644, 257.147122)"><g><path d="M 12.074219 0.605469 L 13.082031 0.605469 L 18.332031 -12.316406 L 23.621094 0.484375 L 24.671875 0.484375 L 36.464844 -28.871094 L 29.960938 -28.871094 L 24.148438 -14.132812 L 18.492188 -28.589844 L 18.210938 -28.589844 L 12.558594 -14.132812 L 6.742188 -28.871094 L 0.242188 -28.871094 Z M 12.074219 0.605469 "/></g></g></g><g fill="#ffffff" fill-opacity="1"><g transform="translate(254.875431, 257.147122)"><g><path d="M 10.296875 0 L 16.03125 0 L 16.03125 -13.003906 L 26.125 -28.871094 L 19.058594 -28.871094 L 13.164062 -18.9375 L 7.269531 -28.871094 L 0.242188 -28.871094 L 10.296875 -13.003906 Z M 10.296875 0 "/></g></g></g><g fill="#ffffff" fill-opacity="1"><g transform="translate(281.076311, 257.147122)"><g><path d="M 16.476562 -16.636719 L 5.085938 -29.316406 L 3.230469 -29.316406 L 3.230469 0 L 9.085938 0 L 9.085938 -16.113281 L 16.476562 -8.359375 L 23.863281 -16.113281 L 23.824219 0 L 29.679688 0 L 29.679688 -29.316406 L 27.863281 -29.316406 Z M 16.476562 -16.636719 "/></g></g></g><g fill="#ffffff" fill-opacity="1"><g transform="translate(42.375002, 294.647119)"><g><path d="M 21.601562 -22.167969 L 22.289062 -28.105469 C 20.554688 -28.871094 18.613281 -29.234375 16.597656 -29.234375 C -2.949219 -29.234375 -2.988281 0.0820312 16.597656 0.0820312 C 18.613281 0.0820312 21.160156 -0.402344 22.9375 -1.128906 L 22.167969 -7.105469 C 21.078125 -6.542969 19.101562 -5.816406 16.597656 -5.816406 C 5.167969 -5.816406 5.167969 -23.421875 16.597656 -23.421875 C 19.101562 -23.421875 20.511719 -22.734375 21.601562 -22.167969 Z M 21.601562 -22.167969 "/></g></g></g><g fill="#ffffff" fill-opacity="1"><g transform="translate(66.678452, 294.647119)"><g><path d="M 9.003906 0 L 9.003906 -28.871094 L 3.230469 -28.871094 L 3.230469 0 Z M 9.003906 0 "/></g></g></g><g fill="#ffffff" fill-opacity="1"><g transform="translate(78.951289, 294.647119)"><g><path d="M 18.171875 0 L 18.171875 -5.773438 L 9.003906 -5.773438 L 9.003906 -11.546875 L 16.597656 -11.546875 L 16.597656 -17.324219 L 9.003906 -17.324219 L 9.003906 -23.097656 L 17.6875 -23.097656 L 17.6875 -28.871094 L 3.230469 -28.871094 L 3.230469 0 Z M 18.171875 0 "/></g></g></g><g fill="#ffffff" fill-opacity="1"><g transform="translate(99.298368, 294.647119)"><g><path d="M 3.230469 -28.871094 L 3.230469 0 L 18.171875 0 L 18.171875 -5.773438 L 9.003906 -5.773438 L 9.003906 -28.871094 Z M 3.230469 -28.871094 "/></g></g></g><g fill="#ffffff" fill-opacity="1"><g transform="translate(119.201359, 294.647119)"><g><path d="M 18.171875 0 L 18.171875 -5.773438 L 9.003906 -5.773438 L 9.003906 -11.546875 L 16.597656 -11.546875 L 16.597656 -17.324219 L 9.003906 -17.324219 L 9.003906 -23.097656 L 17.6875 -23.097656 L 17.6875 -28.871094 L 3.230469 -28.871094 L 3.230469 0 Z M 18.171875 0 "/></g></g></g><g fill="#ffffff" fill-opacity="1"><g transform="translate(139.548438, 294.647119)"><g><path d="M 8.277344 -4.441406 L 2.300781 -4.441406 L 0.605469 4.683594 L 5.128906 4.683594 Z M 8.277344 -4.441406 "/></g></g></g><g fill="#ffffff" fill-opacity="1"><g transform="translate(149.23752, 294.647119)"><g/></g></g><g fill="#ffffff" fill-opacity="1"><g transform="translate(160.702932, 294.647119)"><g><path d="M 20.230469 0 L 20.230469 -5.816406 L 9.488281 -5.816406 L 19.90625 -28.871094 L 2.421875 -28.871094 L 2.421875 -23.257812 L 11.304688 -23.257812 C 7.832031 -15.546875 4.359375 -7.753906 0.886719 0 Z M 20.230469 0 "/></g></g></g><g fill="#ffffff" fill-opacity="1"><g transform="translate(182.301513, 294.647119)"><g><path d="M 11.832031 -28.871094 L 3.230469 -28.871094 L 3.230469 0 L 11.832031 0 C 31.050781 0 31.050781 -28.871094 11.832031 -28.871094 Z M 11.832031 -23.097656 C 23.058594 -23.097656 23.058594 -5.773438 11.832031 -5.773438 L 9.003906 -5.773438 L 9.003906 -23.097656 Z M 11.832031 -23.097656 "/></g></g></g><g fill="#ffffff" fill-opacity="1"><g transform="translate(210.722822, 294.647119)"><g><path d="M 17.605469 0 L 24.148438 0 L 17.445312 -11.910156 C 25.925781 -14.375 24.914062 -28.871094 14.617188 -28.871094 L 3.230469 -28.871094 L 3.230469 0 L 9.003906 0 L 9.003906 -11.023438 L 11.789062 -11.023438 Z M 9.003906 -16.636719 L 9.003906 -23.097656 L 14.09375 -23.097656 C 18.007812 -23.097656 18.007812 -16.636719 14.09375 -16.636719 Z M 9.003906 -16.636719 "/></g></g></g><g fill="#ffffff" fill-opacity="1"><g transform="translate(235.470349, 294.647119)"><g><path d="M 17.121094 0.402344 C 36.988281 0.402344 36.988281 -29.355469 17.121094 -29.355469 C -2.746094 -29.355469 -2.746094 0.402344 17.121094 0.402344 Z M 17.121094 -5.574219 C 5.574219 -5.574219 5.574219 -23.421875 17.121094 -23.421875 C 28.667969 -23.421875 28.667969 -5.574219 17.121094 -5.574219 Z M 17.121094 -5.574219 "/></g></g></g><g fill="#ffffff" fill-opacity="1"><g transform="translate(269.664721, 294.647119)"><g><path d="M 12.074219 0.605469 L 13.082031 0.605469 L 18.332031 -12.316406 L 23.621094 0.484375 L 24.671875 0.484375 L 36.464844 -28.871094 L 29.960938 -28.871094 L 24.148438 -14.132812 L 18.492188 -28.589844 L 18.210938 -28.589844 L 12.558594 -14.132812 L 6.742188 -28.871094 L 0.242188 -28.871094 Z M 12.074219 0.605469 "/></g></g></g><g fill="#ffffff" fill-opacity="1"><g transform="translate(306.402496, 294.647119)"><g><path d="M 10.296875 0 L 16.03125 0 L 16.03125 -13.003906 L 26.125 -28.871094 L 19.058594 -28.871094 L 13.164062 -18.9375 L 7.269531 -28.871094 L 0.242188 -28.871094 L 10.296875 -13.003906 Z M 10.296875 0 "/></g></g></g><g fill="#ffffff" fill-opacity="1"><g transform="translate(134.249996, 332.147117)"><g><path d="M 11.832031 -28.871094 L 3.230469 -28.871094 L 3.230469 0 L 11.832031 0 C 31.050781 0 31.050781 -28.871094 11.832031 -28.871094 Z M 11.832031 -23.097656 C 23.058594 -23.097656 23.058594 -5.773438 11.832031 -5.773438 L 9.003906 -5.773438 L 9.003906 -23.097656 Z M 11.832031 -23.097656 "/></g></g></g><g fill="#ffffff" fill-opacity="1"><g transform="translate(162.671305, 332.147117)"><g><path d="M 23.945312 -10.054688 L 23.945312 -28.871094 L 18.210938 -28.871094 L 18.210938 -10.09375 C 18.210938 -4.039062 8.84375 -4.039062 8.84375 -10.09375 L 8.84375 -28.871094 L 3.070312 -28.871094 L 3.070312 -10.054688 C 3.070312 3.675781 23.945312 3.675781 23.945312 -10.054688 Z M 23.945312 -10.054688 "/></g></g></g><g fill="#ffffff" fill-opacity="1"><g transform="translate(189.760361, 332.147117)"><g><path d="M 21.601562 -22.167969 L 22.289062 -28.105469 C 20.554688 -28.871094 18.613281 -29.234375 16.597656 -29.234375 C -2.949219 -29.234375 -2.988281 0.0820312 16.597656 0.0820312 C 18.613281 0.0820312 21.160156 -0.402344 22.9375 -1.128906 L 22.167969 -7.105469 C 21.078125 -6.542969 19.101562 -5.816406 16.597656 -5.816406 C 5.167969 -5.816406 5.167969 -23.421875 16.597656 -23.421875 C 19.101562 -23.421875 20.511719 -22.734375 21.601562 -22.167969 Z M 21.601562 -22.167969 "/></g></g></g><g fill="#ffffff" fill-opacity="1"><g transform="translate(214.063811, 332.147117)"><g><path d="M 23.421875 0 L 23.421875 -28.871094 L 17.644531 -28.871094 L 17.644531 -17.324219 L 9.003906 -17.324219 L 9.003906 -28.871094 L 3.230469 -28.871094 L 3.230469 0 L 9.003906 0 L 9.003906 -11.546875 L 17.644531 -11.546875 L 17.644531 0 Z M 23.421875 0 "/></g></g></g></svg>